<svg width="147" height="147" viewBox="0 0 147 147" fill="none" xmlns="http://www.w3.org/2000/svg">
<g clip-path="url(#clip0_250_2100)">
<path d="M105.963 38.5874C103.574 36.1987 99.715 36.1987 97.3263 38.5874L62.7813 73.1324L71.4175 81.7687L105.963 47.1624C108.29 44.8349 108.29 40.9149 105.963 38.5874ZM131.933 38.5262L71.4175 99.0412L50.1025 77.7874C47.7138 75.3987 43.855 75.3987 41.4663 77.7874C39.0775 80.1762 39.0775 84.0349 41.4663 86.4237L67.0688 112.026C69.4575 114.415 73.3163 114.415 75.705 112.026L140.569 47.2237C142.958 44.8349 142.958 40.9762 140.569 38.5874H140.508C138.18 36.1374 134.321 36.1374 131.933 38.5262ZM6.86001 86.4849L32.4625 112.087C34.8513 114.476 38.71 114.476 41.0988 112.087L45.3863 107.8L15.4963 77.7874C13.1075 75.3987 9.24876 75.3987 6.86001 77.7874C4.47126 80.1762 4.47126 84.0962 6.86001 86.4849Z" fill="#323232" fill-opacity="0.8"/>
</g>
<defs>
<clipPath id="clip0_250_2100">
<rect width="147" height="147" fill="white"/>
</clipPath>
</defs>
</svg>
