<svg width="727" height="601" viewBox="0 0 727 601" fill="none" xmlns="http://www.w3.org/2000/svg">
<g filter="url(#filter0_f_204_536)">
<path d="M471.176 -398.372C555.501 -79.9097 347.735 251.371 7.11613 341.564C-333.503 431.756 -677.989 246.707 -762.314 -71.7557C-846.64 -390.218 -638.874 -721.499 -298.255 -811.692C42.3638 -901.884 386.85 -716.835 471.176 -398.372ZM-439.209 -157.311C-399.06 -5.68741 -235.047 82.4167 -72.8741 39.4749C89.2984 -3.46685 188.218 -161.193 148.07 -312.817C107.921 -464.441 -56.0923 -552.545 -218.265 -509.603C-380.437 -466.661 -479.357 -308.935 -439.209 -157.311Z" fill="url(#paint0_linear_204_536)" fill-opacity="0.4"/>
</g>
<defs>
<filter id="filter0_f_204_536" x="-1017.49" y="-1070.93" width="1743.84" height="1671.74" filterUnits="userSpaceOnUse" color-interpolation-filters="sRGB">
<feFlood flood-opacity="0" result="BackgroundImageFix"/>
<feBlend mode="normal" in="SourceGraphic" in2="BackgroundImageFix" result="shape"/>
<feGaussianBlur stdDeviation="118.205" result="effect1_foregroundBlur_204_536"/>
</filter>
<linearGradient id="paint0_linear_204_536" x1="-298.255" y1="-811.692" x2="7.11613" y2="341.564" gradientUnits="userSpaceOnUse">
<stop offset="0.3" stop-color="#004AE9" stop-opacity="0"/>
<stop offset="1" stop-color="#004AE9" stop-opacity="0.25"/>
</linearGradient>
</defs>
</svg>
