<svg width="659" height="735" viewBox="0 0 659 735" fill="none" xmlns="http://www.w3.org/2000/svg">
<rect width="659" height="735" rx="30" fill="url(#paint0_radial_204_1414)"/>
<path d="M213.945 476H207.705L203.925 466.1H189.765L185.985 476H180.045L193.665 440.36H200.325L213.945 476ZM202.365 461.36L198.165 450.5C197.625 449.06 197.265 447.86 196.965 446.54H196.725C196.425 447.86 196.065 449.06 195.525 450.5L191.265 461.36H202.365ZM224.141 440.36V476H218.321V440.36H224.141ZM243.92 460.28V465.08H229.88V460.28H243.92ZM298.269 440.36L287.649 476H281.109L273.969 453.98C273.489 452.48 273.069 450.86 272.889 449.6H272.649C272.469 450.86 272.049 452.48 271.629 453.98L264.489 476H257.949L247.329 440.36H253.449L260.529 465.26C260.949 466.76 261.249 467.96 261.429 469.22H261.729C261.909 467.96 262.209 466.76 262.629 465.26L269.649 442.94H276.189L283.209 465.26C283.629 466.76 283.989 467.96 284.169 469.22H284.469C284.649 467.96 284.949 466.82 285.369 465.26L292.389 440.36H298.269ZM327.027 462.8C327.027 470.78 321.027 476.42 313.047 476.42C305.127 476.42 299.067 470.78 299.067 462.8C299.067 454.82 305.127 449.18 313.047 449.18C321.027 449.18 327.027 454.82 327.027 462.8ZM321.207 462.8C321.207 457.64 317.607 454.1 313.047 454.1C308.427 454.1 304.887 457.64 304.887 462.8C304.887 467.96 308.487 471.5 313.047 471.5C317.667 471.5 321.207 467.96 321.207 462.8ZM347.167 449.48L346.987 454.88C346.387 454.64 345.187 454.4 344.287 454.4C341.707 454.4 339.247 455.66 337.387 457.58V476H331.747V449.72L337.387 449.48V453.02C339.607 450.5 342.367 449.18 345.187 449.18C345.907 449.18 346.747 449.3 347.167 449.48ZM375.436 449.72L364.996 461L376.216 476H369.556L360.736 464.96L357.016 468.98V476H351.376V438.26L357.016 437.96V463.52H357.256C358.156 462.02 359.536 460.1 361.276 457.94L369.196 449.48L375.436 449.72ZM402.703 437.96V476H397.123V443C396.103 442.82 394.783 442.7 393.523 442.7C389.383 442.7 387.223 444.44 387.223 448.46V449.6H393.043L392.623 454.46H387.223V476H381.643V454.46H377.923V449.6H381.643V448.4C381.643 441.62 385.843 437.96 393.223 437.96C394.903 437.96 397.003 438.14 398.563 438.32L402.703 437.96ZM435.484 462.8C435.484 470.78 429.484 476.42 421.504 476.42C413.584 476.42 407.524 470.78 407.524 462.8C407.524 454.82 413.584 449.18 421.504 449.18C429.484 449.18 435.484 454.82 435.484 462.8ZM429.664 462.8C429.664 457.64 426.064 454.1 421.504 454.1C416.884 454.1 413.344 457.64 413.344 462.8C413.344 467.96 416.944 471.5 421.504 471.5C426.124 471.5 429.664 467.96 429.664 462.8ZM479.567 449.6L471.167 476H465.167L460.907 463.88C459.887 460.76 459.227 458.72 458.807 456.98H458.567C458.147 458.72 457.487 460.76 456.467 463.88L452.207 476H446.207L437.867 449.72L443.567 449.48L448.247 464.42C448.727 466.1 449.267 468.38 449.507 470.12H449.807C450.107 468.38 450.707 466.1 451.307 464.42L455.807 451.46H461.747L466.307 464.42C466.847 466.1 467.507 468.38 467.807 470.12H468.047C468.347 468.38 468.887 466.1 469.367 464.42L473.927 449.6H479.567ZM222.587 538H216.347L212.567 528.1H198.407L194.627 538H188.687L202.307 502.36H208.967L222.587 538ZM211.007 523.36L206.807 512.5C206.267 511.06 205.907 509.86 205.607 508.54H205.367C205.067 509.86 204.707 511.06 204.167 512.5L199.907 523.36H211.007ZM249.653 511.48V538H244.013V535.3C241.133 537.46 238.253 538.42 235.253 538.42C229.673 538.42 226.073 535.54 226.073 529V511.72L231.713 511.48V527.8C231.713 531.7 233.693 533.44 237.113 533.44C239.393 533.44 241.853 532.48 244.013 530.98V511.72L249.653 511.48ZM271.249 511.6L270.829 516.46H263.149V529.24C263.149 532.24 264.769 533.5 267.409 533.5C268.909 533.5 270.289 532.96 271.249 532.24L271.549 537.04C270.289 537.94 268.429 538.42 266.209 538.42C260.389 538.42 257.569 535.42 257.569 529.9V516.46H253.849V511.6H257.569V505.84L263.149 504.58V511.6H271.249ZM302.271 524.8C302.271 532.78 296.271 538.42 288.291 538.42C280.371 538.42 274.311 532.78 274.311 524.8C274.311 516.82 280.371 511.18 288.291 511.18C296.271 511.18 302.271 516.82 302.271 524.8ZM296.451 524.8C296.451 519.64 292.851 516.1 288.291 516.1C283.671 516.1 280.131 519.64 280.131 524.8C280.131 529.96 283.731 533.5 288.291 533.5C292.911 533.5 296.451 529.96 296.451 524.8ZM347.431 538H341.791V521.8C341.791 521.02 341.671 520.36 341.491 519.82C340.951 517.24 339.211 516.16 336.691 516.16C336.391 516.16 336.091 516.22 335.851 516.22C333.931 516.46 331.771 517.3 329.791 518.68C329.911 519.52 330.031 520.42 330.031 521.32V538H324.391V521.8C324.391 521.02 324.271 520.36 324.091 519.82C323.551 517.24 321.811 516.16 319.291 516.16C317.191 516.16 314.731 517.18 312.631 518.62V538H306.991V511.72L312.631 511.48V514.3C315.031 512.5 317.371 511.54 319.471 511.36C320.791 511.24 321.931 511.3 323.071 511.48C325.591 511.84 327.631 513.04 328.831 515.14C332.011 512.32 335.191 511.18 338.371 511.18C343.891 511.18 347.431 514.06 347.431 520.6V538ZM375.222 538H369.882V535.78C367.782 537.28 364.722 538.42 361.302 538.42C355.422 538.42 352.182 535.54 352.182 530.68C352.182 525.34 356.322 522.64 362.742 522.64C365.262 522.64 368.202 523.18 369.762 523.9V521.44C369.762 517.66 367.482 516.1 362.982 516.1C359.802 516.1 356.562 517 354.642 518.2L354.402 513.16C356.742 511.9 360.102 511.18 363.702 511.18C371.082 511.18 375.222 514.18 375.222 521.08V538ZM369.762 532.48V527.5C368.262 526.72 365.982 526.3 363.942 526.3C360.102 526.3 357.822 527.56 357.822 530.62C357.822 533.44 359.862 534.58 363.042 534.58C365.502 534.58 368.262 533.62 369.762 532.48ZM396.874 511.6L396.454 516.46H388.774V529.24C388.774 532.24 390.394 533.5 393.034 533.5C394.534 533.5 395.914 532.96 396.874 532.24L397.174 537.04C395.914 537.94 394.054 538.42 391.834 538.42C386.014 538.42 383.194 535.42 383.194 529.9V516.46H379.474V511.6H383.194V505.84L388.774 504.58V511.6H396.874ZM404.676 500.08C406.536 500.08 407.916 501.46 407.916 503.26C407.916 505.12 406.536 506.56 404.676 506.56C402.756 506.56 401.316 505.12 401.316 503.26C401.316 501.46 402.756 500.08 404.676 500.08ZM407.436 511.48V538H401.796V511.72L407.436 511.48ZM440.142 524.8C440.142 532.78 434.142 538.42 426.162 538.42C418.242 538.42 412.182 532.78 412.182 524.8C412.182 516.82 418.242 511.18 426.162 511.18C434.142 511.18 440.142 516.82 440.142 524.8ZM434.322 524.8C434.322 519.64 430.722 516.1 426.162 516.1C421.542 516.1 418.002 519.64 418.002 524.8C418.002 529.96 421.602 533.5 426.162 533.5C430.782 533.5 434.322 529.96 434.322 524.8ZM468.683 538H463.043V521.8C463.043 517.9 461.063 516.16 457.583 516.16C455.243 516.16 452.663 517.18 450.503 518.62V538H444.863V511.72L450.503 511.48V514.3C453.383 512.14 456.383 511.18 459.443 511.18C465.083 511.18 468.683 514.06 468.683 520.6V538Z" fill="white"/>
<path d="M163.834 606.025C162.684 606.775 161.059 607.15 159.259 607.15C154.559 607.15 151.284 604.025 151.284 599.575C151.284 595.225 154.409 592 158.809 592C160.859 592 162.259 592.375 163.484 593.225L162.934 594.775C161.959 594.025 160.484 593.525 158.909 593.525C155.409 593.525 152.984 596.05 152.984 599.575C152.984 603.075 155.609 605.625 159.309 605.625C160.934 605.625 162.684 605.175 163.809 604.35L163.834 606.025ZM176.743 601.5C176.743 604.825 174.268 607.15 171.043 607.15C167.843 607.15 165.343 604.825 165.343 601.5C165.343 598.175 167.843 595.85 171.043 595.85C174.268 595.85 176.743 598.175 176.743 601.5ZM175.093 601.5C175.093 599 173.268 597.275 171.043 597.275C168.768 597.275 166.993 599 166.993 601.5C166.993 604 168.818 605.725 171.043 605.725C173.343 605.725 175.093 604 175.093 601.5ZM188.438 607H186.863V600.1C186.863 598.175 185.913 597.3 184.163 597.3C182.988 597.3 181.688 597.825 180.563 598.625V607H178.963V596.05L180.563 595.95V597.3C181.913 596.3 183.263 595.85 184.563 595.85C186.988 595.85 188.438 597.05 188.438 599.75V607ZM201.035 607H199.46V600.1C199.46 598.175 198.51 597.3 196.76 597.3C195.585 597.3 194.285 597.825 193.16 598.625V607H191.56V596.05L193.16 595.95V597.3C194.51 596.3 195.86 595.85 197.16 595.85C199.585 595.85 201.035 597.05 201.035 599.75V607ZM213.108 601.825H204.958C205.108 604.2 206.858 605.725 209.433 605.725C210.808 605.725 212.283 605.3 213.183 604.575L213.258 606.075C212.408 606.725 210.783 607.15 209.358 607.15C205.708 607.15 203.283 604.95 203.283 601.375C203.283 598.075 205.508 595.85 208.508 595.85C211.258 595.85 213.208 597.7 213.208 600.5C213.208 600.9 213.158 601.425 213.108 601.825ZM208.508 597.1C206.533 597.1 205.083 598.525 204.908 600.775H211.633C211.658 600.65 211.658 600.475 211.658 600.3C211.658 598.45 210.408 597.1 208.508 597.1ZM224.006 596.825L223.606 598.3C222.906 597.725 221.681 597.325 220.631 597.325C218.256 597.325 216.481 599 216.481 601.5C216.481 604 218.231 605.675 220.781 605.675C222.056 605.675 223.331 605.25 224.206 604.525L224.281 606.05C223.431 606.725 222.056 607.15 220.606 607.15C217.381 607.15 214.831 605 214.831 601.5C214.831 598.175 217.356 595.85 220.531 595.85C222.006 595.85 223.231 596.225 224.006 596.825ZM232.197 596L232.072 597.4H228.622V603.7C228.622 605.125 229.372 605.725 230.572 605.725C231.247 605.725 231.872 605.475 232.297 605.175L232.372 606.575C231.897 606.95 231.122 607.15 230.297 607.15C228.172 607.15 227.022 606.05 227.022 603.9V597.4H225.422V596H227.022V593.525L228.622 593.1V596H232.197ZM247.785 607H246.26V606C245.335 606.65 243.91 607.15 242.435 607.15C239.96 607.15 238.61 605.975 238.61 603.975C238.61 601.725 240.36 600.65 243.06 600.65C244.185 600.65 245.51 600.925 246.21 601.275V599.875C246.21 598.025 245.16 597.275 243.135 597.275C241.735 597.275 240.435 597.675 239.635 598.175L239.56 596.7C240.46 596.175 241.81 595.85 243.285 595.85C246.135 595.85 247.785 597.025 247.785 599.725V607ZM246.21 604.9V602.375C245.51 602.025 244.36 601.775 243.31 601.775C241.435 601.775 240.235 602.4 240.235 603.95C240.235 605.4 241.31 605.975 242.81 605.975C244.085 605.975 245.485 605.45 246.21 604.9ZM252.486 591.15V607H250.886V591.275L252.486 591.15ZM257.198 591.15V607H255.598V591.275L257.198 591.15ZM274.715 596L271.115 605.3C269.54 609.475 267.89 611.15 265.54 611.775L264.84 610.525C266.69 609.95 267.74 608.85 268.665 607L264.065 596.05L265.765 595.95L268.665 602.9C269.015 603.775 269.365 604.725 269.54 605.275H269.64C269.79 604.725 270.09 603.775 270.415 602.875L273.065 596H274.715ZM287.022 601.5C287.022 604.825 284.547 607.15 281.322 607.15C278.122 607.15 275.622 604.825 275.622 601.5C275.622 598.175 278.122 595.85 281.322 595.85C284.547 595.85 287.022 598.175 287.022 601.5ZM285.372 601.5C285.372 599 283.547 597.275 281.322 597.275C279.047 597.275 277.272 599 277.272 601.5C277.272 604 279.097 605.725 281.322 605.725C283.622 605.725 285.372 604 285.372 601.5ZM298.616 595.95V607H297.041V605.725C295.691 606.7 294.341 607.15 293.091 607.15C290.716 607.15 289.241 605.95 289.241 603.25V596.05L290.841 595.95V602.875C290.841 604.825 291.791 605.7 293.491 605.7C294.641 605.7 295.916 605.2 297.041 604.4V596.05L298.616 595.95ZM307.666 596L307.616 597.525C307.341 597.425 306.891 597.35 306.541 597.35C305.341 597.35 304.191 598.025 303.341 599.025V607H301.741V596.05L303.341 595.95V597.6C304.241 596.525 305.491 595.85 306.766 595.85C307.091 595.85 307.466 595.9 307.666 596ZM320.356 596L320.231 597.4H316.781V603.7C316.781 605.125 317.531 605.725 318.731 605.725C319.406 605.725 320.031 605.475 320.456 605.175L320.531 606.575C320.056 606.95 319.281 607.15 318.456 607.15C316.331 607.15 315.181 606.05 315.181 603.9V597.4H313.581V596H315.181V593.525L316.781 593.1V596H320.356ZM333.164 601.5C333.164 604.825 330.689 607.15 327.464 607.15C324.264 607.15 321.764 604.825 321.764 601.5C321.764 598.175 324.264 595.85 327.464 595.85C330.689 595.85 333.164 598.175 333.164 601.5ZM331.514 601.5C331.514 599 329.689 597.275 327.464 597.275C325.189 597.275 323.414 599 323.414 601.5C323.414 604 325.239 605.725 327.464 605.725C329.764 605.725 331.514 604 331.514 601.5ZM345.908 601.5C345.908 604.825 343.433 607.15 340.208 607.15C337.008 607.15 334.508 604.825 334.508 601.5C334.508 598.175 337.008 595.85 340.208 595.85C343.433 595.85 345.908 598.175 345.908 601.5ZM344.258 601.5C344.258 599 342.433 597.275 340.208 597.275C337.933 597.275 336.158 599 336.158 601.5C336.158 604 337.983 605.725 340.208 605.725C342.508 605.725 344.258 604 344.258 601.5ZM349.728 591.15V607H348.128V591.275L349.728 591.15ZM359.54 596.3L359.315 597.725C358.615 597.425 357.665 597.2 356.54 597.2C354.94 597.2 354.09 597.875 354.09 598.85C354.09 601.1 360.04 600.4 360.04 603.95C360.04 605.7 358.815 607.15 355.765 607.15C354.465 607.15 353.09 606.85 352.265 606.375L352.415 604.95C353.265 605.425 354.59 605.8 355.765 605.8C357.565 605.8 358.39 605.175 358.39 604.025C358.39 601.75 352.44 602.425 352.44 598.925C352.44 597.325 353.84 595.85 356.565 595.85C357.865 595.85 358.815 596 359.54 596.3ZM383.436 596L379.736 607H378.061L375.836 600.9C375.486 599.85 375.211 599.075 375.061 598.425H374.936C374.786 599.075 374.511 599.85 374.161 600.9L371.936 607H370.261L366.561 596.05L368.211 595.95L370.561 603.05C370.786 603.775 371.011 604.625 371.161 605.25H371.261C371.386 604.625 371.661 603.775 371.911 603.05L374.186 596.75H375.861L378.136 603.05C378.386 603.775 378.661 604.625 378.786 605.25H378.911C379.036 604.625 379.261 603.775 379.486 603.05L381.811 596H383.436ZM386.331 591.4C386.906 591.4 387.356 591.85 387.356 592.425C387.356 593.025 386.906 593.475 386.331 593.475C385.731 593.475 385.256 593.025 385.256 592.425C385.256 591.85 385.731 591.4 386.331 591.4ZM387.106 595.95V607H385.506V596.05L387.106 595.95ZM395.917 596L395.792 597.4H392.342V603.7C392.342 605.125 393.092 605.725 394.292 605.725C394.967 605.725 395.592 605.475 396.017 605.175L396.092 606.575C395.617 606.95 394.842 607.15 394.017 607.15C391.892 607.15 390.742 606.05 390.742 603.9V597.4H389.142V596H390.742V593.525L392.342 593.1V596H395.917ZM407.701 607H406.126V600.1C406.126 598.175 405.151 597.3 403.401 597.3C402.226 597.3 400.926 597.825 399.801 598.625V607H398.201V591.275L399.801 591.15V597.3C401.151 596.3 402.526 595.85 403.826 595.85C406.251 595.85 407.701 597.05 407.701 599.75V607ZM416.653 591.4C417.228 591.4 417.678 591.85 417.678 592.425C417.678 593.025 417.228 593.475 416.653 593.475C416.053 593.475 415.578 593.025 415.578 592.425C415.578 591.85 416.053 591.4 416.653 591.4ZM417.428 595.95V607H415.828V596.05L417.428 595.95ZM430.015 607H428.44V600.1C428.44 598.175 427.49 597.3 425.74 597.3C424.565 597.3 423.265 597.825 422.14 598.625V607H420.54V596.05L422.14 595.95V597.3C423.49 596.3 424.84 595.85 426.14 595.85C428.565 595.85 430.015 597.05 430.015 599.75V607ZM438.837 596L438.712 597.4H435.262V603.7C435.262 605.125 436.012 605.725 437.212 605.725C437.887 605.725 438.512 605.475 438.937 605.175L439.012 606.575C438.537 606.95 437.762 607.15 436.937 607.15C434.812 607.15 433.662 606.05 433.662 603.9V597.4H432.062V596H433.662V593.525L435.262 593.1V596H438.837ZM450.071 601.825H441.921C442.071 604.2 443.821 605.725 446.396 605.725C447.771 605.725 449.246 605.3 450.146 604.575L450.221 606.075C449.371 606.725 447.746 607.15 446.321 607.15C442.671 607.15 440.246 604.95 440.246 601.375C440.246 598.075 442.471 595.85 445.471 595.85C448.221 595.85 450.171 597.7 450.171 600.5C450.171 600.9 450.121 601.425 450.071 601.825ZM445.471 597.1C443.496 597.1 442.046 598.525 441.871 600.775H448.596C448.621 600.65 448.621 600.475 448.621 600.3C448.621 598.45 447.371 597.1 445.471 597.1ZM454.269 591.15V607H452.669V591.275L454.269 591.15ZM458.981 591.15V607H457.381V591.275L458.981 591.15ZM462.917 591.4C463.492 591.4 463.942 591.85 463.942 592.425C463.942 593.025 463.492 593.475 462.917 593.475C462.317 593.475 461.842 593.025 461.842 592.425C461.842 591.85 462.317 591.4 462.917 591.4ZM463.692 595.95V607H462.092V596.05L463.692 595.95ZM475.929 595.75L475.879 597.15H473.604C474.354 597.75 474.829 598.65 474.829 599.65C474.829 601.725 473.304 603.25 470.879 603.425L469.029 605.4C469.529 605.3 470.804 605.225 471.379 605.225C474.529 605.225 476.154 606.25 476.154 608.375C476.154 610.35 474.529 611.775 470.729 611.775C468.729 611.775 466.604 611.325 465.454 610.625L465.604 609.15C466.729 609.85 468.804 610.425 470.779 610.425C473.704 610.425 474.604 609.5 474.604 608.375C474.604 607.05 473.554 606.55 471.104 606.55C469.979 606.55 468.454 606.675 467.604 606.85V605.575L469.704 603.4C467.429 603.175 466.054 601.6 466.054 599.65C466.054 597.475 467.754 595.85 470.429 595.85C471.004 595.85 471.554 595.925 472.004 596.075L475.929 595.75ZM473.304 599.65C473.304 598.15 472.204 597.05 470.429 597.05C468.679 597.05 467.579 598.1 467.579 599.65C467.579 601.15 468.679 602.225 470.429 602.225C472.204 602.225 473.304 601.175 473.304 599.65ZM486.887 601.825H478.737C478.887 604.2 480.637 605.725 483.212 605.725C484.587 605.725 486.062 605.3 486.962 604.575L487.037 606.075C486.187 606.725 484.562 607.15 483.137 607.15C479.487 607.15 477.062 604.95 477.062 601.375C477.062 598.075 479.287 595.85 482.287 595.85C485.037 595.85 486.987 597.7 486.987 600.5C486.987 600.9 486.937 601.425 486.887 601.825ZM482.287 597.1C480.312 597.1 478.862 598.525 478.687 600.775H485.412C485.437 600.65 485.437 600.475 485.437 600.3C485.437 598.45 484.187 597.1 482.287 597.1ZM498.96 607H497.385V600.1C497.385 598.175 496.435 597.3 494.685 597.3C493.51 597.3 492.21 597.825 491.085 598.625V607H489.485V596.05L491.085 595.95V597.3C492.435 596.3 493.785 595.85 495.085 595.85C497.51 595.85 498.96 597.05 498.96 599.75V607ZM507.783 596L507.658 597.4H504.208V603.7C504.208 605.125 504.958 605.725 506.158 605.725C506.833 605.725 507.458 605.475 507.883 605.175L507.958 606.575C507.483 606.95 506.708 607.15 505.883 607.15C503.758 607.15 502.608 606.05 502.608 603.9V597.4H501.008V596H502.608V593.525L504.208 593.1V596H507.783ZM157.27 633H155.745V632C154.82 632.65 153.395 633.15 151.92 633.15C149.445 633.15 148.095 631.975 148.095 629.975C148.095 627.725 149.845 626.65 152.545 626.65C153.67 626.65 154.995 626.925 155.695 627.275V625.875C155.695 624.025 154.645 623.275 152.62 623.275C151.22 623.275 149.92 623.675 149.12 624.175L149.045 622.7C149.945 622.175 151.295 621.85 152.77 621.85C155.62 621.85 157.27 623.025 157.27 625.725V633ZM155.695 630.9V628.375C154.995 628.025 153.845 627.775 152.795 627.775C150.92 627.775 149.72 628.4 149.72 629.95C149.72 631.4 150.795 631.975 152.295 631.975C153.57 631.975 154.97 631.45 155.695 630.9ZM169.746 621.95V633H168.171V631.725C166.821 632.7 165.471 633.15 164.221 633.15C161.846 633.15 160.371 631.95 160.371 629.25V622.05L161.971 621.95V628.875C161.971 630.825 162.921 631.7 164.621 631.7C165.771 631.7 167.046 631.2 168.171 630.4V622.05L169.746 621.95ZM178.571 622L178.446 623.4H174.996V629.7C174.996 631.125 175.746 631.725 176.946 631.725C177.621 631.725 178.246 631.475 178.671 631.175L178.746 632.575C178.271 632.95 177.496 633.15 176.671 633.15C174.546 633.15 173.396 632.05 173.396 629.9V623.4H171.796V622H173.396V619.525L174.996 619.1V622H178.571ZM191.38 627.5C191.38 630.825 188.905 633.15 185.68 633.15C182.48 633.15 179.98 630.825 179.98 627.5C179.98 624.175 182.48 621.85 185.68 621.85C188.905 621.85 191.38 624.175 191.38 627.5ZM189.73 627.5C189.73 625 187.905 623.275 185.68 623.275C183.405 623.275 181.63 625 181.63 627.5C181.63 630 183.455 631.725 185.68 631.725C187.98 631.725 189.73 630 189.73 627.5ZM210.274 633H208.674V626.1C208.674 625.625 208.599 625.225 208.474 624.9C208.149 623.775 207.324 623.3 206.099 623.3C205.924 623.3 205.774 623.325 205.599 623.325C204.649 623.45 203.599 623.9 202.574 624.625C202.674 625 202.724 625.45 202.724 625.9V633H201.124V626.1C201.124 625.625 201.074 625.225 200.924 624.9C200.624 623.775 199.799 623.3 198.574 623.3C197.499 623.3 196.299 623.825 195.199 624.625V633H193.599V622.05L195.199 621.95V623.3C196.424 622.375 197.599 621.925 198.624 621.9C199.199 621.85 199.724 621.925 200.199 622.05C201.124 622.25 201.824 622.725 202.249 623.55C203.749 622.325 205.174 621.85 206.474 621.85C208.799 621.85 210.274 623.05 210.274 625.75V633ZM221.674 633H220.149V632C219.224 632.65 217.799 633.15 216.324 633.15C213.849 633.15 212.499 631.975 212.499 629.975C212.499 627.725 214.249 626.65 216.949 626.65C218.074 626.65 219.399 626.925 220.099 627.275V625.875C220.099 624.025 219.049 623.275 217.024 623.275C215.624 623.275 214.324 623.675 213.524 624.175L213.449 622.7C214.349 622.175 215.699 621.85 217.174 621.85C220.024 621.85 221.674 623.025 221.674 625.725V633ZM220.099 630.9V628.375C219.399 628.025 218.249 627.775 217.199 627.775C215.324 627.775 214.124 628.4 214.124 629.95C214.124 631.4 215.199 631.975 216.699 631.975C217.974 631.975 219.374 631.45 220.099 630.9ZM230.476 622L230.351 623.4H226.901V629.7C226.901 631.125 227.651 631.725 228.851 631.725C229.526 631.725 230.151 631.475 230.576 631.175L230.651 632.575C230.176 632.95 229.401 633.15 228.576 633.15C226.451 633.15 225.301 632.05 225.301 629.9V623.4H223.701V622H225.301V619.525L226.901 619.1V622H230.476ZM233.584 617.4C234.159 617.4 234.609 617.85 234.609 618.425C234.609 619.025 234.159 619.475 233.584 619.475C232.984 619.475 232.509 619.025 232.509 618.425C232.509 617.85 232.984 617.4 233.584 617.4ZM234.359 621.95V633H232.759V622.05L234.359 621.95ZM247.996 627.5C247.996 630.825 245.521 633.15 242.296 633.15C239.096 633.15 236.596 630.825 236.596 627.5C236.596 624.175 239.096 621.85 242.296 621.85C245.521 621.85 247.996 624.175 247.996 627.5ZM246.346 627.5C246.346 625 244.521 623.275 242.296 623.275C240.021 623.275 238.246 625 238.246 627.5C238.246 630 240.071 631.725 242.296 631.725C244.596 631.725 246.346 630 246.346 627.5ZM259.69 633H258.115V626.1C258.115 624.175 257.165 623.3 255.415 623.3C254.24 623.3 252.94 623.825 251.815 624.625V633H250.215V622.05L251.815 621.95V623.3C253.165 622.3 254.515 621.85 255.815 621.85C258.24 621.85 259.69 623.05 259.69 625.75V633ZM263.488 630.975C264.088 630.975 264.563 631.45 264.563 632.05C264.563 632.675 264.088 633.15 263.488 633.15C262.863 633.15 262.413 632.675 262.413 632.075C262.413 631.45 262.888 630.975 263.488 630.975ZM283.261 631.975C281.986 632.775 280.561 633.125 278.661 633.125C274.286 633.125 271.711 630.125 271.711 626.575C271.711 621.65 275.136 618.025 280.211 618.025C282.086 618.025 283.761 618.45 284.836 619.175L284.461 620.175C283.536 619.475 281.736 619.025 280.211 619.025C275.711 619.025 272.836 622.2 272.836 626.525C272.836 629.8 275.261 632.125 278.736 632.125C280.486 632.125 282.161 631.65 283.411 630.8L283.261 631.975ZM289.444 617.15L286.694 633H285.644L288.369 617.25L289.444 617.15ZM293.164 617.575C293.589 617.575 293.864 617.875 293.864 618.275C293.864 618.775 293.489 619.175 292.989 619.175C292.564 619.175 292.264 618.85 292.264 618.45C292.264 617.95 292.664 617.575 293.164 617.575ZM293.014 621.95L291.089 633H290.039L291.939 622.05L293.014 621.95ZM304.233 627.4L295.458 627.9C295.408 630.55 297.133 632.175 299.658 632.175C301.333 632.175 302.708 631.65 303.733 630.9L303.608 631.95C302.658 632.675 301.258 633.125 299.558 633.125C296.333 633.125 294.358 631 294.358 628.075C294.358 624.325 296.908 621.875 299.983 621.875C302.558 621.875 304.383 623.475 304.383 626.05C304.383 626.45 304.333 626.975 304.233 627.4ZM299.958 622.75C297.708 622.75 295.858 624.4 295.508 627.1L303.283 626.65C303.308 626.5 303.333 626.225 303.333 626C303.333 623.975 301.933 622.75 299.958 622.75ZM315.107 633H314.057L315.232 626.25C315.307 625.85 315.357 625.325 315.357 625.025C315.357 623.55 314.582 622.85 312.932 622.85C311.532 622.85 310.032 623.45 308.432 624.625L306.982 633H305.932L307.832 622.05L308.907 621.95L308.632 623.575C310.157 622.425 311.657 621.875 313.157 621.875C315.257 621.875 316.432 622.85 316.432 624.8C316.432 625.1 316.382 625.65 316.307 626.1L315.107 633ZM321.132 619.45L322.232 619.125L321.732 622H325.482L325.207 622.925H321.582L320.357 629.975C320.082 631.525 320.682 632.175 321.957 632.175C322.682 632.175 323.407 631.925 323.932 631.575L323.807 632.55C323.357 632.9 322.582 633.125 321.807 633.125C320.157 633.125 319.207 632.35 319.207 630.875C319.207 630.625 319.232 630.4 319.282 630.125L320.532 622.925H318.907L319.082 622H320.682L321.132 619.45ZM340.977 627.4L332.202 627.9C332.152 630.55 333.877 632.175 336.402 632.175C338.077 632.175 339.452 631.65 340.477 630.9L340.352 631.95C339.402 632.675 338.002 633.125 336.302 633.125C333.077 633.125 331.102 631 331.102 628.075C331.102 624.325 333.652 621.875 336.727 621.875C339.302 621.875 341.127 623.475 341.127 626.05C341.127 626.45 341.077 626.975 340.977 627.4ZM336.702 622.75C334.452 622.75 332.602 624.4 332.252 627.1L340.027 626.65C340.052 626.5 340.077 626.225 340.077 626C340.077 623.975 338.677 622.75 336.702 622.75ZM353.201 622L348.151 627.4L351.501 633H350.276L347.351 628.075L342.726 633H341.476L346.826 627.275L343.676 622.05L344.851 621.925L347.601 626.6L351.951 622H353.201ZM364.436 622L362.536 633H361.586L361.736 631.775C360.686 632.575 359.411 633.125 358.011 633.125C355.436 633.125 353.636 631.575 353.636 628.475C353.636 624.625 356.011 621.875 359.386 621.875C360.761 621.875 362.161 622.35 363.211 623.2L363.486 622H364.436ZM363.036 624.15C362.211 623.4 360.761 622.8 359.461 622.8C356.786 622.8 354.711 624.95 354.711 628.425C354.711 631.05 356.211 632.2 358.211 632.2C359.561 632.2 360.886 631.525 361.911 630.7L363.036 624.15ZM382.418 633H381.393L382.543 626.25C382.618 625.85 382.668 625.325 382.668 625.025C382.668 623.55 381.893 622.85 380.318 622.85C379.218 622.85 377.568 623.45 375.993 624.625C376.018 625.05 375.943 625.725 375.868 626.175L374.693 633H373.643L374.818 626.25C374.893 625.85 374.918 625.325 374.918 625.025C374.918 623.55 374.118 622.85 372.618 622.85C371.493 622.85 369.993 623.45 368.418 624.625L366.968 633H365.918L367.818 622.05L368.893 621.95L368.593 623.575C370.143 622.425 371.618 621.875 372.868 621.875C374.518 621.875 375.543 622.625 375.868 623.775C377.868 622.325 379.318 621.875 380.518 621.875C382.568 621.875 383.743 622.85 383.743 624.825C383.743 625.125 383.693 625.65 383.618 626.1L382.418 633ZM396.791 626.525C396.791 630.375 394.416 633.125 391.041 633.125C389.491 633.125 388.091 632.65 387.066 631.8L386.041 637.625H384.991L387.691 622.05L388.766 621.95L388.516 623.225C389.566 622.425 390.866 621.875 392.316 621.875C394.991 621.875 396.791 623.425 396.791 626.525ZM395.716 626.575C395.716 623.95 394.216 622.8 392.116 622.8C390.716 622.8 389.366 623.475 388.341 624.3L387.216 630.85C388.041 631.6 389.491 632.2 390.966 632.2C393.616 632.2 395.716 630.05 395.716 626.575ZM401.92 617.15L399.17 633H398.12L400.845 617.25L401.92 617.15ZM412.314 627.4L403.539 627.9C403.489 630.55 405.214 632.175 407.739 632.175C409.414 632.175 410.789 631.65 411.814 630.9L411.689 631.95C410.739 632.675 409.339 633.125 407.639 633.125C404.414 633.125 402.439 631 402.439 628.075C402.439 624.325 404.989 621.875 408.064 621.875C410.639 621.875 412.464 623.475 412.464 626.05C412.464 626.45 412.414 626.975 412.314 627.4ZM408.039 622.75C405.789 622.75 403.939 624.4 403.589 627.1L411.364 626.65C411.389 626.5 411.414 626.225 411.414 626C411.414 623.975 410.014 622.75 408.039 622.75ZM416.11 621.875C416.535 621.875 416.835 622.2 416.835 622.6C416.835 623.125 416.46 623.5 415.935 623.5C415.51 623.5 415.21 623.175 415.21 622.775C415.21 622.25 415.61 621.875 416.11 621.875ZM414.41 631.5C414.835 631.5 415.135 631.825 415.135 632.225C415.135 632.75 414.735 633.125 414.235 633.125C413.81 633.125 413.51 632.8 413.51 632.4C413.51 631.875 413.91 631.5 414.41 631.5ZM438.255 624.575C438.255 629.6 434.655 633.125 430.005 633.125C425.805 633.125 423.005 630.25 423.005 626.575C423.005 621.55 426.605 618.025 431.255 618.025C435.455 618.025 438.255 620.9 438.255 624.575ZM437.13 624.625C437.13 621.5 434.805 619 431.23 619C427.13 619 424.13 622.15 424.13 626.525C424.13 629.65 426.455 632.15 430.005 632.15C434.13 632.15 437.13 629 437.13 624.625ZM446.83 622.025L446.655 623.05C446.38 622.925 446.08 622.85 445.68 622.85C444.355 622.85 442.93 623.725 441.83 624.925L440.43 633H439.38L441.28 622.05L442.355 621.95L442.03 623.75C443.43 622.35 444.53 621.875 445.88 621.875C446.305 621.875 446.655 621.925 446.83 622.025ZM458.82 617.15L456.07 633H455.12L455.27 631.75C454.22 632.575 452.92 633.125 451.47 633.125C448.795 633.125 446.995 631.575 446.995 628.475C446.995 624.625 449.37 621.875 452.745 621.875C454.27 621.875 455.695 622.35 456.72 623.2L457.77 617.25L458.82 617.15ZM456.545 624.15C455.745 623.4 454.295 622.8 452.795 622.8C450.145 622.8 448.07 624.95 448.07 628.425C448.07 631.05 449.57 632.2 451.67 632.2C453.07 632.2 454.42 631.55 455.42 630.7L456.545 624.15ZM469.248 627.4L460.473 627.9C460.423 630.55 462.148 632.175 464.673 632.175C466.348 632.175 467.723 631.65 468.748 630.9L468.623 631.95C467.673 632.675 466.273 633.125 464.573 633.125C461.348 633.125 459.373 631 459.373 628.075C459.373 624.325 461.923 621.875 464.998 621.875C467.573 621.875 469.398 623.475 469.398 626.05C469.398 626.45 469.348 626.975 469.248 627.4ZM464.973 622.75C462.723 622.75 460.873 624.4 460.523 627.1L468.298 626.65C468.323 626.5 468.348 626.225 468.348 626C468.348 623.975 466.948 622.75 464.973 622.75ZM478.397 622.025L478.222 623.05C477.947 622.925 477.647 622.85 477.247 622.85C475.922 622.85 474.497 623.725 473.397 624.925L471.997 633H470.947L472.847 622.05L473.922 621.95L473.597 623.75C474.997 622.35 476.097 621.875 477.447 621.875C477.872 621.875 478.222 621.925 478.397 622.025ZM482.979 626.95L482.804 627.95H476.954L477.129 626.95H482.979ZM487.099 619.45L488.199 619.125L487.699 622H491.449L491.174 622.925H487.549L486.324 629.975C486.049 631.525 486.649 632.175 487.924 632.175C488.649 632.175 489.374 631.925 489.899 631.575L489.774 632.55C489.324 632.9 488.549 633.125 487.774 633.125C486.124 633.125 485.174 632.35 485.174 630.875C485.174 630.625 485.199 630.4 485.249 630.125L486.499 622.925H484.874L485.049 622H486.649L487.099 619.45ZM492.063 628.075C492.063 624.375 494.938 621.875 498.313 621.875C501.363 621.875 503.463 624.025 503.463 626.925C503.463 630.625 500.588 633.125 497.213 633.125C494.163 633.125 492.063 630.975 492.063 628.075ZM493.163 628.05C493.163 630.65 494.913 632.175 497.263 632.175C500.088 632.175 502.363 630.125 502.363 626.95C502.363 624.35 500.588 622.825 498.263 622.825C495.438 622.825 493.163 624.875 493.163 628.05ZM510.835 626.95L510.66 627.95H504.81L504.985 626.95H510.835ZM137.22 643.25L136.97 644.225C136.72 644.15 136.42 644.125 136.07 644.125C134.695 644.125 133.52 644.75 133.12 647.075L132.97 648H136.095L135.82 648.925H132.82L131.07 659H130.02L131.77 648.925H130.145L130.32 648H131.92L132.095 646.95C132.595 644.15 134.22 643.15 136.145 643.15C136.495 643.15 136.92 643.175 137.22 643.25ZM147.658 647.95L145.708 659H144.708L144.958 657.4C143.433 658.575 141.958 659.125 140.508 659.125C138.408 659.125 137.233 658.15 137.233 656.2C137.233 655.9 137.283 655.35 137.358 654.9L138.533 648.05L139.608 647.95L138.433 654.75C138.358 655.15 138.333 655.675 138.333 655.975C138.333 657.45 139.108 658.15 140.733 658.15C142.058 658.15 143.533 657.55 145.133 656.375L146.583 648.05L147.658 647.95ZM152.86 643.15L150.11 659H149.06L151.785 643.25L152.86 643.15ZM162.354 647.95L160.429 659H159.379L161.104 648.925H156.379L154.629 659H153.579L155.329 648.925H153.704L153.879 648H155.479L155.654 646.95C156.154 644.15 157.754 643.15 159.679 643.15C160.054 643.15 160.479 643.175 160.754 643.25L160.529 644.225C160.279 644.15 159.954 644.125 159.629 644.125C158.254 644.125 157.079 644.75 156.679 647.075L156.529 648H161.804L162.354 647.95ZM162.479 643.575C162.904 643.575 163.204 643.875 163.204 644.275C163.204 644.775 162.804 645.175 162.304 645.175C161.879 645.175 161.579 644.85 161.579 644.45C161.579 643.95 161.979 643.575 162.479 643.575ZM167.582 643.15L164.832 659H163.782L166.507 643.25L167.582 643.15ZM171.976 643.15L169.226 659H168.176L170.901 643.25L171.976 643.15ZM189.071 659H188.046L189.196 652.25C189.271 651.85 189.321 651.325 189.321 651.025C189.321 649.55 188.546 648.85 186.971 648.85C185.871 648.85 184.221 649.45 182.646 650.625C182.671 651.05 182.596 651.725 182.521 652.175L181.346 659H180.296L181.471 652.25C181.546 651.85 181.571 651.325 181.571 651.025C181.571 649.55 180.771 648.85 179.271 648.85C178.146 648.85 176.646 649.45 175.071 650.625L173.621 659H172.571L174.471 648.05L175.546 647.95L175.246 649.575C176.796 648.425 178.271 647.875 179.521 647.875C181.171 647.875 182.196 648.625 182.521 649.775C184.521 648.325 185.971 647.875 187.171 647.875C189.221 647.875 190.396 648.85 190.396 650.825C190.396 651.125 190.346 651.65 190.271 652.1L189.071 659ZM202.244 653.4L193.469 653.9C193.419 656.55 195.144 658.175 197.669 658.175C199.344 658.175 200.719 657.65 201.744 656.9L201.619 657.95C200.669 658.675 199.269 659.125 197.569 659.125C194.344 659.125 192.369 657 192.369 654.075C192.369 650.325 194.919 647.875 197.994 647.875C200.569 647.875 202.394 649.475 202.394 652.05C202.394 652.45 202.344 652.975 202.244 653.4ZM197.969 648.75C195.719 648.75 193.869 650.4 193.519 653.1L201.294 652.65C201.319 652.5 201.344 652.225 201.344 652C201.344 649.975 199.944 648.75 197.969 648.75ZM213.118 659H212.068L213.243 652.25C213.318 651.85 213.368 651.325 213.368 651.025C213.368 649.55 212.593 648.85 210.943 648.85C209.543 648.85 208.043 649.45 206.443 650.625L204.993 659H203.943L205.843 648.05L206.918 647.95L206.643 649.575C208.168 648.425 209.668 647.875 211.168 647.875C213.268 647.875 214.443 648.85 214.443 650.8C214.443 651.1 214.393 651.65 214.318 652.1L213.118 659ZM219.142 645.45L220.242 645.125L219.742 648H223.492L223.217 648.925H219.592L218.367 655.975C218.092 657.525 218.692 658.175 219.967 658.175C220.692 658.175 221.417 657.925 221.942 657.575L221.817 658.55C221.367 658.9 220.592 659.125 219.817 659.125C218.167 659.125 217.217 658.35 217.217 656.875C217.217 656.625 217.242 656.4 217.292 656.125L218.542 648.925H216.917L217.092 648H218.692L219.142 645.45ZM238.487 659H237.437L238.687 652.025C238.737 651.675 238.762 651.325 238.762 651.05C238.762 649.55 237.887 648.85 236.262 648.85C234.862 648.85 233.287 649.45 231.687 650.6L230.237 659H229.187L231.912 643.25L232.987 643.15L231.887 649.575C233.412 648.425 234.962 647.875 236.487 647.875C238.637 647.875 239.837 648.925 239.837 650.825C239.837 651.125 239.812 651.45 239.762 651.8L238.487 659ZM252.558 648L250.658 659H249.708L249.858 657.775C248.808 658.575 247.533 659.125 246.133 659.125C243.558 659.125 241.758 657.575 241.758 654.475C241.758 650.625 244.133 647.875 247.508 647.875C248.883 647.875 250.283 648.35 251.333 649.2L251.608 648H252.558ZM251.158 650.15C250.333 649.4 248.883 648.8 247.583 648.8C244.908 648.8 242.833 650.95 242.833 654.425C242.833 657.05 244.333 658.2 246.333 658.2C247.683 658.2 249.008 657.525 250.033 656.7L251.158 650.15ZM265.04 652.525C265.04 656.375 262.665 659.125 259.29 659.125C257.74 659.125 256.34 658.65 255.315 657.8L254.29 663.625H253.24L255.94 648.05L257.015 647.95L256.765 649.225C257.815 648.425 259.115 647.875 260.565 647.875C263.24 647.875 265.04 649.425 265.04 652.525ZM263.965 652.575C263.965 649.95 262.465 648.8 260.365 648.8C258.965 648.8 257.615 649.475 256.59 650.3L255.465 656.85C256.29 657.6 257.74 658.2 259.215 658.2C261.865 658.2 263.965 656.05 263.965 652.575ZM277.369 652.525C277.369 656.375 274.994 659.125 271.619 659.125C270.069 659.125 268.669 658.65 267.644 657.8L266.619 663.625H265.569L268.269 648.05L269.344 647.95L269.094 649.225C270.144 648.425 271.444 647.875 272.894 647.875C275.569 647.875 277.369 649.425 277.369 652.525ZM276.294 652.575C276.294 649.95 274.794 648.8 272.694 648.8C271.294 648.8 269.944 649.475 268.919 650.3L267.794 656.85C268.619 657.6 270.069 658.2 271.544 658.2C274.194 658.2 276.294 656.05 276.294 652.575ZM288.499 653.4L279.724 653.9C279.674 656.55 281.399 658.175 283.924 658.175C285.599 658.175 286.974 657.65 287.999 656.9L287.874 657.95C286.924 658.675 285.524 659.125 283.824 659.125C280.599 659.125 278.624 657 278.624 654.075C278.624 650.325 281.174 647.875 284.249 647.875C286.824 647.875 288.649 649.475 288.649 652.05C288.649 652.45 288.599 652.975 288.499 653.4ZM284.224 648.75C281.974 648.75 280.124 650.4 279.774 653.1L287.549 652.65C287.574 652.5 287.599 652.225 287.599 652C287.599 649.975 286.199 648.75 284.224 648.75ZM299.373 659H298.323L299.498 652.25C299.573 651.85 299.623 651.325 299.623 651.025C299.623 649.55 298.848 648.85 297.198 648.85C295.798 648.85 294.298 649.45 292.698 650.625L291.248 659H290.198L292.098 648.05L293.173 647.95L292.898 649.575C294.423 648.425 295.923 647.875 297.423 647.875C299.523 647.875 300.698 648.85 300.698 650.8C300.698 651.1 300.648 651.65 300.573 652.1L299.373 659ZM310.622 648.25L310.422 649.25C309.772 649 308.797 648.8 307.847 648.8C305.672 648.8 304.672 649.725 304.672 650.975C304.672 653.25 309.972 652.875 309.972 655.95C309.972 657.6 308.772 659.125 305.447 659.125C304.272 659.125 302.972 658.875 302.247 658.475L302.422 657.45C303.197 657.875 304.422 658.2 305.472 658.2C307.872 658.2 308.872 657.35 308.872 655.975C308.872 653.725 303.572 654.1 303.572 651.025C303.572 649.475 304.797 647.875 307.872 647.875C308.947 647.875 309.922 648 310.622 648.25ZM334.379 648L328.579 659H327.504L326.179 652.1C326.004 651.2 325.854 650.325 325.829 649.925H325.704C325.554 650.325 325.079 651.2 324.604 652.1L320.879 659H319.779L317.854 648.05L318.904 647.95L320.179 655.7C320.304 656.425 320.429 657.225 320.479 657.8H320.604C320.829 657.225 321.204 656.425 321.604 655.7L325.404 648.725H326.479L327.804 655.7C327.929 656.425 328.054 657.225 328.129 657.8H328.229C328.479 657.225 328.829 656.45 329.204 655.7L333.204 648H334.379ZM337.854 643.575C338.279 643.575 338.554 643.875 338.554 644.275C338.554 644.775 338.179 645.175 337.679 645.175C337.254 645.175 336.954 644.85 336.954 644.45C336.954 643.95 337.354 643.575 337.854 643.575ZM337.704 647.95L335.779 659H334.729L336.629 648.05L337.704 647.95ZM341.798 645.45L342.898 645.125L342.398 648H346.148L345.873 648.925H342.248L341.023 655.975C340.748 657.525 341.348 658.175 342.623 658.175C343.348 658.175 344.073 657.925 344.598 657.575L344.473 658.55C344.023 658.9 343.248 659.125 342.473 659.125C340.823 659.125 339.873 658.35 339.873 656.875C339.873 656.625 339.898 656.4 339.948 656.125L341.198 648.925H339.573L339.748 648H341.348L341.798 645.45ZM356.138 659H355.088L356.338 652.025C356.388 651.675 356.413 651.325 356.413 651.05C356.413 649.55 355.538 648.85 353.913 648.85C352.513 648.85 350.938 649.45 349.338 650.6L347.888 659H346.838L349.563 643.25L350.638 643.15L349.538 649.575C351.063 648.425 352.613 647.875 354.138 647.875C356.288 647.875 357.488 648.925 357.488 650.825C357.488 651.125 357.463 651.45 357.413 651.8L356.138 659ZM359.41 654.075C359.41 650.375 362.285 647.875 365.66 647.875C368.71 647.875 370.81 650.025 370.81 652.925C370.81 656.625 367.935 659.125 364.56 659.125C361.51 659.125 359.41 656.975 359.41 654.075ZM360.51 654.05C360.51 656.65 362.26 658.175 364.61 658.175C367.435 658.175 369.71 656.125 369.71 652.95C369.71 650.35 367.935 648.825 365.61 648.825C362.785 648.825 360.51 650.875 360.51 654.05ZM383.156 647.95L381.206 659H380.206L380.456 657.4C378.931 658.575 377.456 659.125 376.006 659.125C373.906 659.125 372.731 658.15 372.731 656.2C372.731 655.9 372.781 655.35 372.856 654.9L374.031 648.05L375.106 647.95L373.931 654.75C373.856 655.15 373.831 655.675 373.831 655.975C373.831 657.45 374.606 658.15 376.231 658.15C377.556 658.15 379.031 657.55 380.631 656.375L382.081 648.05L383.156 647.95ZM387.233 645.45L388.333 645.125L387.833 648H391.583L391.308 648.925H387.683L386.458 655.975C386.183 657.525 386.783 658.175 388.058 658.175C388.783 658.175 389.508 657.925 390.033 657.575L389.908 658.55C389.458 658.9 388.683 659.125 387.908 659.125C386.258 659.125 385.308 658.35 385.308 656.875C385.308 656.625 385.333 656.4 385.383 656.125L386.633 648.925H385.008L385.183 648H386.783L387.233 645.45ZM406.578 659H405.528L406.778 652.025C406.828 651.675 406.853 651.325 406.853 651.05C406.853 649.55 405.978 648.85 404.353 648.85C402.953 648.85 401.378 649.45 399.778 650.6L398.328 659H397.278L400.003 643.25L401.078 643.15L399.978 649.575C401.503 648.425 403.053 647.875 404.578 647.875C406.728 647.875 407.928 648.925 407.928 650.825C407.928 651.125 407.903 651.45 407.853 651.8L406.578 659ZM420.949 647.95L418.999 659H417.999L418.249 657.4C416.724 658.575 415.249 659.125 413.799 659.125C411.699 659.125 410.524 658.15 410.524 656.2C410.524 655.9 410.574 655.35 410.649 654.9L411.824 648.05L412.899 647.95L411.724 654.75C411.649 655.15 411.624 655.675 411.624 655.975C411.624 657.45 412.399 658.15 414.024 658.15C415.349 658.15 416.824 657.55 418.424 656.375L419.874 648.05L420.949 647.95ZM438.851 659H437.826L438.976 652.25C439.051 651.85 439.101 651.325 439.101 651.025C439.101 649.55 438.326 648.85 436.751 648.85C435.651 648.85 434.001 649.45 432.426 650.625C432.451 651.05 432.376 651.725 432.301 652.175L431.126 659H430.076L431.251 652.25C431.326 651.85 431.351 651.325 431.351 651.025C431.351 649.55 430.551 648.85 429.051 648.85C427.926 648.85 426.426 649.45 424.851 650.625L423.401 659H422.351L424.251 648.05L425.326 647.95L425.026 649.575C426.576 648.425 428.051 647.875 429.301 647.875C430.951 647.875 431.976 648.625 432.301 649.775C434.301 648.325 435.751 647.875 436.951 647.875C439.001 647.875 440.176 648.85 440.176 650.825C440.176 651.125 440.126 651.65 440.051 652.1L438.851 659ZM452.949 648L451.049 659H450.099L450.249 657.775C449.199 658.575 447.924 659.125 446.524 659.125C443.949 659.125 442.149 657.575 442.149 654.475C442.149 650.625 444.524 647.875 447.899 647.875C449.274 647.875 450.674 648.35 451.724 649.2L451.999 648H452.949ZM451.549 650.15C450.724 649.4 449.274 648.8 447.974 648.8C445.299 648.8 443.224 650.95 443.224 654.425C443.224 657.05 444.724 658.2 446.724 658.2C448.074 658.2 449.399 657.525 450.424 656.7L451.549 650.15ZM463.606 659H462.556L463.731 652.25C463.806 651.85 463.856 651.325 463.856 651.025C463.856 649.55 463.081 648.85 461.431 648.85C460.031 648.85 458.531 649.45 456.931 650.625L455.481 659H454.431L456.331 648.05L457.406 647.95L457.131 649.575C458.656 648.425 460.156 647.875 461.656 647.875C463.756 647.875 464.931 648.85 464.931 650.8C464.931 651.1 464.881 651.65 464.806 652.1L463.606 659ZM474.635 645.45L475.735 645.125L475.235 648H478.985L478.71 648.925H475.085L473.86 655.975C473.585 657.525 474.185 658.175 475.46 658.175C476.185 658.175 476.91 657.925 477.435 657.575L477.31 658.55C476.86 658.9 476.085 659.125 475.31 659.125C473.66 659.125 472.71 658.35 472.71 656.875C472.71 656.625 472.735 656.4 472.785 656.125L474.035 648.925H472.41L472.585 648H474.185L474.635 645.45ZM479.6 654.075C479.6 650.375 482.475 647.875 485.85 647.875C488.9 647.875 491 650.025 491 652.925C491 656.625 488.125 659.125 484.75 659.125C481.7 659.125 479.6 656.975 479.6 654.075ZM480.7 654.05C480.7 656.65 482.45 658.175 484.8 658.175C487.625 658.175 489.9 656.125 489.9 652.95C489.9 650.35 488.125 648.825 485.8 648.825C482.975 648.825 480.7 650.875 480.7 654.05ZM503.347 647.95L501.397 659H500.397L500.647 657.4C499.122 658.575 497.647 659.125 496.197 659.125C494.097 659.125 492.922 658.15 492.922 656.2C492.922 655.9 492.972 655.35 493.047 654.9L494.222 648.05L495.297 647.95L494.122 654.75C494.047 655.15 494.022 655.675 494.022 655.975C494.022 657.45 494.797 658.15 496.422 658.15C497.747 658.15 499.222 657.55 500.822 656.375L502.272 648.05L503.347 647.95ZM514.198 648.8L513.848 649.8C513.123 649.275 511.973 648.85 510.773 648.85C507.948 648.85 505.773 650.85 505.773 654.05C505.773 656.625 507.423 658.15 509.773 658.15C511.098 658.15 512.573 657.625 513.473 656.875L513.448 657.95C512.573 658.65 511.123 659.125 509.698 659.125C506.648 659.125 504.673 656.975 504.673 654.075C504.673 650.375 507.398 647.875 510.773 647.875C512.198 647.875 513.373 648.225 514.198 648.8ZM524.522 659H523.472L524.722 652.025C524.772 651.675 524.797 651.325 524.797 651.05C524.797 649.55 523.922 648.85 522.297 648.85C520.897 648.85 519.322 649.45 517.722 650.6L516.272 659H515.222L517.947 643.25L519.022 643.15L517.922 649.575C519.447 648.425 520.997 647.875 522.522 647.875C524.672 647.875 525.872 648.925 525.872 650.825C525.872 651.125 525.847 651.45 525.797 651.8L524.522 659ZM527.801 657.5C528.226 657.5 528.526 657.825 528.526 658.225C528.526 658.75 528.126 659.125 527.626 659.125C527.201 659.125 526.901 658.8 526.901 658.4C526.901 657.875 527.301 657.5 527.801 657.5Z" fill="white"/>
<path d="M329 330.5C302 330.5 275.75 317 260 293H299V278H239V338H254V310.25C272.75 332.75 299.75 345.5 329 345.5V330.5ZM441.5 300.5V285.5H425.75C425 281 422.75 276.5 420.5 272L431.75 260.75L421.25 250.25L410 261.5C406.25 259.25 401.75 257 396.5 256.25V240.5H381.5V256.25C377 257 372.5 259.25 368 261.5L356.75 250.25L346.25 260.75L357.5 272C355.25 275.75 353 280.25 352.25 285.5H336.5V300.5H352.25C353 305 355.25 309.5 357.5 314L346.25 325.25L356.75 335.75L368 324.5C371.75 326.75 376.25 329 381.5 329.75V345.5H396.5V329.75C401 329 405.5 326.75 410 324.5L421.25 335.75L431.75 325.25L420.5 314C422.75 310.25 425 305.75 425.75 300.5H441.5ZM389 315.5C376.25 315.5 366.5 305.75 366.5 293C366.5 280.25 376.25 270.5 389 270.5C401.75 270.5 411.5 280.25 411.5 293C411.5 305.75 401.75 315.5 389 315.5ZM359 203H398C373.25 164.75 322.25 154.25 284 179C260.75 194 246.5 220.25 246.5 248H231.5C231.5 194 275 150.5 329 150.5C358.25 150.5 385.25 163.25 404 185.75V158H419V218H359V203Z" fill="url(#paint1_linear_204_1414)"/>
<defs>
<radialGradient id="paint0_radial_204_1414" cx="0" cy="0" r="1" gradientTransform="matrix(144 423.85 -380.023 193.746 330 399.35)" gradientUnits="userSpaceOnUse">
<stop stop-color="#00277C" stop-opacity="0.8"/>
<stop offset="1" stop-color="#000F30"/>
</radialGradient>
<linearGradient id="paint1_linear_204_1414" x1="336.5" y1="150.5" x2="336.5" y2="345.5" gradientUnits="userSpaceOnUse">
<stop stop-color="white"/>
<stop offset="1" stop-color="#999999"/>
</linearGradient>
</defs>
</svg>
