<svg width="659" height="735" viewBox="0 0 659 735" fill="none" xmlns="http://www.w3.org/2000/svg">
<rect width="659" height="735" rx="30" fill="url(#paint0_radial_204_1437)"/>
<path d="M333.296 476H327.056L323.276 466.1H309.116L305.336 476H299.396L313.016 440.36H319.676L333.296 476ZM321.716 461.36L317.516 450.5C316.976 449.06 316.616 447.86 316.316 446.54H316.076C315.776 447.86 315.416 449.06 314.876 450.5L310.616 461.36H321.716ZM343.493 440.36V476H337.673V440.36H343.493ZM175.636 520.18C175.636 530.86 168.016 538 155.776 538H144.196V502.36H155.776C168.076 502.36 175.636 509.5 175.636 520.18ZM169.516 520.18C169.516 512.14 164.176 507.34 155.776 507.34H149.956V533.02H155.776C164.236 533.02 169.516 528.22 169.516 520.18ZM201.693 538H196.353V535.78C194.253 537.28 191.193 538.42 187.773 538.42C181.893 538.42 178.653 535.54 178.653 530.68C178.653 525.34 182.793 522.64 189.213 522.64C191.733 522.64 194.673 523.18 196.233 523.9V521.44C196.233 517.66 193.953 516.1 189.453 516.1C186.273 516.1 183.033 517 181.113 518.2L180.873 513.16C183.213 511.9 186.573 511.18 190.173 511.18C197.553 511.18 201.693 514.18 201.693 521.08V538ZM196.233 532.48V527.5C194.733 526.72 192.453 526.3 190.413 526.3C186.573 526.3 184.293 527.56 184.293 530.62C184.293 533.44 186.333 534.58 189.513 534.58C191.973 534.58 194.733 533.62 196.233 532.48ZM223.345 511.6L222.925 516.46H215.245V529.24C215.245 532.24 216.865 533.5 219.505 533.5C221.005 533.5 222.385 532.96 223.345 532.24L223.645 537.04C222.385 537.94 220.525 538.42 218.305 538.42C212.485 538.42 209.665 535.42 209.665 529.9V516.46H205.945V511.6H209.665V505.84L215.245 504.58V511.6H223.345ZM249.447 538H244.107V535.78C242.007 537.28 238.947 538.42 235.527 538.42C229.647 538.42 226.407 535.54 226.407 530.68C226.407 525.34 230.547 522.64 236.967 522.64C239.487 522.64 242.427 523.18 243.987 523.9V521.44C243.987 517.66 241.707 516.1 237.207 516.1C234.027 516.1 230.787 517 228.867 518.2L228.627 513.16C230.967 511.9 234.327 511.18 237.927 511.18C245.307 511.18 249.447 514.18 249.447 521.08V538ZM243.987 532.48V527.5C242.487 526.72 240.207 526.3 238.167 526.3C234.327 526.3 232.047 527.56 232.047 530.62C232.047 533.44 234.087 534.58 237.267 534.58C239.727 534.58 242.487 533.62 243.987 532.48ZM294.451 514.18C294.451 522.1 288.631 526 279.871 526H274.411V538H268.591V502.36H279.931C288.691 502.36 294.451 506.32 294.451 514.18ZM288.511 514.18C288.511 509.08 284.791 507.22 279.691 507.22H274.411V521.14H279.691C284.791 521.14 288.511 519.28 288.511 514.18ZM314.937 511.48L314.757 516.88C314.157 516.64 312.957 516.4 312.057 516.4C309.477 516.4 307.017 517.66 305.157 519.58V538H299.517V511.72L305.157 511.48V515.02C307.377 512.5 310.137 511.18 312.957 511.18C313.677 511.18 314.517 511.3 314.937 511.48ZM344.777 524.8C344.777 532.78 338.777 538.42 330.797 538.42C322.877 538.42 316.817 532.78 316.817 524.8C316.817 516.82 322.877 511.18 330.797 511.18C338.777 511.18 344.777 516.82 344.777 524.8ZM338.957 524.8C338.957 519.64 335.357 516.1 330.797 516.1C326.177 516.1 322.637 519.64 322.637 524.8C322.637 529.96 326.237 533.5 330.797 533.5C335.417 533.5 338.957 529.96 338.957 524.8ZM369.957 513.52L368.697 518.62C367.137 517.24 364.437 516.28 361.977 516.28C357.057 516.28 353.457 519.58 353.457 524.8C353.457 530.02 357.057 533.32 362.457 533.32C365.337 533.32 368.157 532.36 370.197 530.8L370.437 535.96C368.277 537.46 365.157 538.42 361.677 538.42C353.937 538.42 347.637 533.32 347.637 524.8C347.637 516.82 353.757 511.18 361.497 511.18C365.097 511.18 368.097 512.08 369.957 513.52ZM397.541 526.12H379.181C379.781 530.68 383.381 533.5 388.961 533.5C391.961 533.5 395.441 532.54 397.541 531.04L397.781 536.02C395.741 537.52 391.781 538.42 388.601 538.42C379.061 538.42 373.301 533.08 373.301 524.56C373.301 516.52 378.821 511.18 386.201 511.18C392.921 511.18 397.781 515.56 397.781 522.52C397.781 523.54 397.721 524.98 397.541 526.12ZM386.201 515.32C382.241 515.32 379.421 518.2 379.001 522.7H392.441C392.501 522.46 392.501 522.04 392.501 521.74C392.501 517.96 389.981 515.32 386.201 515.32ZM420.211 512.32L419.371 517.12C417.691 516.34 415.231 515.8 412.651 515.8C409.591 515.8 407.971 517 407.971 518.8C407.971 523.06 421.411 521.68 421.411 530.38C421.411 534.76 418.291 538.42 410.671 538.42C407.371 538.42 403.831 537.64 401.851 536.44L402.271 531.58C404.251 532.84 407.611 533.8 410.611 533.8C414.031 533.8 415.591 532.72 415.591 530.62C415.591 526.3 402.211 527.68 402.211 519.04C402.211 514.78 405.931 511.18 412.711 511.18C415.831 511.18 418.411 511.6 420.211 512.32ZM443.414 512.32L442.574 517.12C440.894 516.34 438.434 515.8 435.854 515.8C432.794 515.8 431.174 517 431.174 518.8C431.174 523.06 444.614 521.68 444.614 530.38C444.614 534.76 441.494 538.42 433.874 538.42C430.574 538.42 427.034 537.64 425.054 536.44L425.474 531.58C427.454 532.84 430.814 533.8 433.814 533.8C437.234 533.8 438.794 532.72 438.794 530.62C438.794 526.3 425.414 527.68 425.414 519.04C425.414 514.78 429.134 511.18 435.914 511.18C439.034 511.18 441.614 511.6 443.414 512.32ZM472.19 526.12H453.83C454.43 530.68 458.03 533.5 463.61 533.5C466.61 533.5 470.09 532.54 472.19 531.04L472.43 536.02C470.39 537.52 466.43 538.42 463.25 538.42C453.71 538.42 447.95 533.08 447.95 524.56C447.95 516.52 453.47 511.18 460.85 511.18C467.57 511.18 472.43 515.56 472.43 522.52C472.43 523.54 472.37 524.98 472.19 526.12ZM460.85 515.32C456.89 515.32 454.07 518.2 453.65 522.7H467.09C467.15 522.46 467.15 522.04 467.15 521.74C467.15 517.96 464.63 515.32 460.85 515.32ZM493.179 511.48L492.999 516.88C492.399 516.64 491.199 516.4 490.299 516.4C487.719 516.4 485.259 517.66 483.399 519.58V538H477.759V511.72L483.399 511.48V515.02C485.619 512.5 488.379 511.18 491.199 511.18C491.919 511.18 492.759 511.3 493.179 511.48ZM514.488 512.32L513.648 517.12C511.968 516.34 509.508 515.8 506.928 515.8C503.868 515.8 502.248 517 502.248 518.8C502.248 523.06 515.688 521.68 515.688 530.38C515.688 534.76 512.568 538.42 504.948 538.42C501.648 538.42 498.108 537.64 496.128 536.44L496.548 531.58C498.528 532.84 501.888 533.8 504.888 533.8C508.308 533.8 509.868 532.72 509.868 530.62C509.868 526.3 496.488 527.68 496.488 519.04C496.488 514.78 500.208 511.18 506.988 511.18C510.108 511.18 512.688 511.6 514.488 512.32Z" fill="white"/>
<path d="M132.049 610H130.274L128.449 605.425H121.924L120.099 610H118.399L124.299 595.15H126.149L132.049 610ZM127.949 604.05L125.749 598.525C125.524 597.95 125.374 597.5 125.249 597H125.124C124.999 597.5 124.849 597.95 124.624 598.525L122.399 604.05H127.949ZM143.208 598.95V610H141.633V608.725C140.283 609.7 138.933 610.15 137.683 610.15C135.308 610.15 133.833 608.95 133.833 606.25V599.05L135.433 598.95V605.875C135.433 607.825 136.383 608.7 138.083 608.7C139.233 608.7 140.508 608.2 141.633 607.4V599.05L143.208 598.95ZM152.033 599L151.908 600.4H148.458V606.7C148.458 608.125 149.208 608.725 150.408 608.725C151.083 608.725 151.708 608.475 152.133 608.175L152.208 609.575C151.733 609.95 150.958 610.15 150.133 610.15C148.008 610.15 146.858 609.05 146.858 606.9V600.4H145.258V599H146.858V596.525L148.458 596.1V599H152.033ZM164.842 604.5C164.842 607.825 162.367 610.15 159.142 610.15C155.942 610.15 153.442 607.825 153.442 604.5C153.442 601.175 155.942 598.85 159.142 598.85C162.367 598.85 164.842 601.175 164.842 604.5ZM163.192 604.5C163.192 602 161.367 600.275 159.142 600.275C156.867 600.275 155.092 602 155.092 604.5C155.092 607 156.917 608.725 159.142 608.725C161.442 608.725 163.192 607 163.192 604.5ZM183.736 610H182.136V603.1C182.136 602.625 182.061 602.225 181.936 601.9C181.611 600.775 180.786 600.3 179.561 600.3C179.386 600.3 179.236 600.325 179.061 600.325C178.111 600.45 177.061 600.9 176.036 601.625C176.136 602 176.186 602.45 176.186 602.9V610H174.586V603.1C174.586 602.625 174.536 602.225 174.386 601.9C174.086 600.775 173.261 600.3 172.036 600.3C170.961 600.3 169.761 600.825 168.661 601.625V610H167.061V599.05L168.661 598.95V600.3C169.886 599.375 171.061 598.925 172.086 598.9C172.661 598.85 173.186 598.925 173.661 599.05C174.586 599.25 175.286 599.725 175.711 600.55C177.211 599.325 178.636 598.85 179.936 598.85C182.261 598.85 183.736 600.05 183.736 602.75V610ZM195.136 610H193.611V609C192.686 609.65 191.261 610.15 189.786 610.15C187.311 610.15 185.961 608.975 185.961 606.975C185.961 604.725 187.711 603.65 190.411 603.65C191.536 603.65 192.861 603.925 193.561 604.275V602.875C193.561 601.025 192.511 600.275 190.486 600.275C189.086 600.275 187.786 600.675 186.986 601.175L186.911 599.7C187.811 599.175 189.161 598.85 190.636 598.85C193.486 598.85 195.136 600.025 195.136 602.725V610ZM193.561 607.9V605.375C192.861 605.025 191.711 604.775 190.661 604.775C188.786 604.775 187.586 605.4 187.586 606.95C187.586 608.4 188.661 608.975 190.161 608.975C191.436 608.975 192.836 608.45 193.561 607.9ZM203.938 599L203.813 600.4H200.362V606.7C200.362 608.125 201.113 608.725 202.313 608.725C202.988 608.725 203.613 608.475 204.037 608.175L204.113 609.575C203.638 609.95 202.863 610.15 202.038 610.15C199.913 610.15 198.763 609.05 198.763 606.9V600.4H197.163V599H198.763V596.525L200.362 596.1V599H203.938ZM215.171 604.825H207.021C207.171 607.2 208.921 608.725 211.496 608.725C212.871 608.725 214.346 608.3 215.246 607.575L215.321 609.075C214.471 609.725 212.846 610.15 211.421 610.15C207.771 610.15 205.346 607.95 205.346 604.375C205.346 601.075 207.571 598.85 210.571 598.85C213.321 598.85 215.271 600.7 215.271 603.5C215.271 603.9 215.221 604.425 215.171 604.825ZM210.571 600.1C208.596 600.1 207.146 601.525 206.971 603.775H213.696C213.721 603.65 213.721 603.475 213.721 603.3C213.721 601.45 212.471 600.1 210.571 600.1ZM232.074 594.15V610H230.474V609.1C229.524 609.8 228.399 610.15 227.174 610.15C224.274 610.15 221.899 608.1 221.899 604.575C221.899 601.225 224.274 598.85 227.649 598.85C228.674 598.85 229.699 599.025 230.474 599.4V594.275L232.074 594.15ZM230.474 600.8C229.799 600.475 228.749 600.25 227.824 600.25C225.449 600.25 223.549 601.85 223.549 604.55C223.549 607.225 225.224 608.75 227.474 608.75C228.599 608.75 229.599 608.425 230.474 607.75V600.8ZM243.476 610H241.951V609C241.026 609.65 239.601 610.15 238.126 610.15C235.651 610.15 234.301 608.975 234.301 606.975C234.301 604.725 236.051 603.65 238.751 603.65C239.876 603.65 241.201 603.925 241.901 604.275V602.875C241.901 601.025 240.851 600.275 238.826 600.275C237.426 600.275 236.126 600.675 235.326 601.175L235.251 599.7C236.151 599.175 237.501 598.85 238.976 598.85C241.826 598.85 243.476 600.025 243.476 602.725V610ZM241.901 607.9V605.375C241.201 605.025 240.051 604.775 239.001 604.775C237.126 604.775 235.926 605.4 235.926 606.95C235.926 608.4 237.001 608.975 238.501 608.975C239.776 608.975 241.176 608.45 241.901 607.9ZM252.277 599L252.152 600.4H248.702V606.7C248.702 608.125 249.452 608.725 250.652 608.725C251.327 608.725 251.952 608.475 252.377 608.175L252.452 609.575C251.977 609.95 251.202 610.15 250.377 610.15C248.252 610.15 247.102 609.05 247.102 606.9V600.4H245.502V599H247.102V596.525L248.702 596.1V599H252.277ZM262.861 610H261.336V609C260.411 609.65 258.986 610.15 257.511 610.15C255.036 610.15 253.686 608.975 253.686 606.975C253.686 604.725 255.436 603.65 258.136 603.65C259.261 603.65 260.586 603.925 261.286 604.275V602.875C261.286 601.025 260.236 600.275 258.211 600.275C256.811 600.275 255.511 600.675 254.711 601.175L254.636 599.7C255.536 599.175 256.886 598.85 258.361 598.85C261.211 598.85 262.861 600.025 262.861 602.725V610ZM261.286 607.9V605.375C260.586 605.025 259.436 604.775 258.386 604.775C256.511 604.775 255.311 605.4 255.311 606.95C255.311 608.4 256.386 608.975 257.886 608.975C259.161 608.975 260.561 608.45 261.286 607.9ZM279.917 604.825H271.767C271.917 607.2 273.667 608.725 276.242 608.725C277.617 608.725 279.092 608.3 279.992 607.575L280.067 609.075C279.217 609.725 277.592 610.15 276.167 610.15C272.517 610.15 270.092 607.95 270.092 604.375C270.092 601.075 272.317 598.85 275.317 598.85C278.067 598.85 280.017 600.7 280.017 603.5C280.017 603.9 279.967 604.425 279.917 604.825ZM275.317 600.1C273.342 600.1 271.892 601.525 271.717 603.775H278.442C278.467 603.65 278.467 603.475 278.467 603.3C278.467 601.45 277.217 600.1 275.317 600.1ZM291.99 610H290.415V603.1C290.415 601.175 289.465 600.3 287.715 600.3C286.54 600.3 285.24 600.825 284.115 601.625V610H282.515V599.05L284.115 598.95V600.3C285.465 599.3 286.815 598.85 288.115 598.85C290.54 598.85 291.99 600.05 291.99 602.75V610ZM300.813 599L300.688 600.4H297.237V606.7C297.237 608.125 297.988 608.725 299.188 608.725C299.863 608.725 300.488 608.475 300.912 608.175L300.988 609.575C300.513 609.95 299.738 610.15 298.913 610.15C296.788 610.15 295.638 609.05 295.638 606.9V600.4H294.038V599H295.638V596.525L297.237 596.1V599H300.813ZM309.021 599L308.971 600.525C308.696 600.425 308.246 600.35 307.896 600.35C306.696 600.35 305.546 601.025 304.696 602.025V610H303.096V599.05L304.696 598.95V600.6C305.596 599.525 306.846 598.85 308.121 598.85C308.446 598.85 308.821 598.9 309.021 599ZM320.406 599L316.806 608.3C315.231 612.475 313.581 614.15 311.231 614.775L310.531 613.525C312.381 612.95 313.431 611.85 314.356 610L309.756 599.05L311.456 598.95L314.356 605.9C314.706 606.775 315.056 607.725 315.231 608.275H315.331C315.481 607.725 315.781 606.775 316.106 605.875L318.756 599H320.406ZM319.054 613.375C320.054 611.675 320.429 610.15 320.429 608.65C320.429 608.25 320.404 607.75 320.279 607.275H321.854C321.954 607.6 321.979 608.075 321.979 608.45C321.979 610.15 321.404 611.8 320.329 613.375H319.054ZM339.203 594.15V610H337.603V609.1C336.653 609.8 335.528 610.15 334.303 610.15C331.403 610.15 329.028 608.1 329.028 604.575C329.028 601.225 331.403 598.85 334.778 598.85C335.803 598.85 336.828 599.025 337.603 599.4V594.275L339.203 594.15ZM337.603 600.8C336.928 600.475 335.878 600.25 334.953 600.25C332.578 600.25 330.678 601.85 330.678 604.55C330.678 607.225 332.353 608.75 334.603 608.75C335.728 608.75 336.728 608.425 337.603 607.75V600.8ZM352.83 604.5C352.83 607.825 350.355 610.15 347.13 610.15C343.93 610.15 341.43 607.825 341.43 604.5C341.43 601.175 343.93 598.85 347.13 598.85C350.355 598.85 352.83 601.175 352.83 604.5ZM351.18 604.5C351.18 602 349.355 600.275 347.13 600.275C344.855 600.275 343.08 602 343.08 604.5C343.08 607 344.905 608.725 347.13 608.725C349.43 608.725 351.18 607 351.18 604.5ZM363.349 599.825L362.949 601.3C362.249 600.725 361.024 600.325 359.974 600.325C357.599 600.325 355.824 602 355.824 604.5C355.824 607 357.574 608.675 360.124 608.675C361.399 608.675 362.674 608.25 363.549 607.525L363.624 609.05C362.774 609.725 361.399 610.15 359.949 610.15C356.724 610.15 354.174 608 354.174 604.5C354.174 601.175 356.699 598.85 359.874 598.85C361.349 598.85 362.574 599.225 363.349 599.825ZM375.117 598.95V610H373.542V608.725C372.192 609.7 370.842 610.15 369.592 610.15C367.217 610.15 365.742 608.95 365.742 606.25V599.05L367.342 598.95V605.875C367.342 607.825 368.292 608.7 369.992 608.7C371.142 608.7 372.417 608.2 373.542 607.4V599.05L375.117 598.95ZM394.917 610H393.317V603.1C393.317 602.625 393.242 602.225 393.117 601.9C392.792 600.775 391.967 600.3 390.742 600.3C390.567 600.3 390.417 600.325 390.242 600.325C389.292 600.45 388.242 600.9 387.217 601.625C387.317 602 387.367 602.45 387.367 602.9V610H385.767V603.1C385.767 602.625 385.717 602.225 385.567 601.9C385.267 600.775 384.442 600.3 383.217 600.3C382.142 600.3 380.942 600.825 379.842 601.625V610H378.242V599.05L379.842 598.95V600.3C381.067 599.375 382.242 598.925 383.267 598.9C383.842 598.85 384.367 598.925 384.842 599.05C385.767 599.25 386.467 599.725 386.892 600.55C388.392 599.325 389.817 598.85 391.117 598.85C393.442 598.85 394.917 600.05 394.917 602.75V610ZM406.968 604.825H398.818C398.968 607.2 400.718 608.725 403.293 608.725C404.668 608.725 406.143 608.3 407.043 607.575L407.118 609.075C406.268 609.725 404.643 610.15 403.218 610.15C399.568 610.15 397.143 607.95 397.143 604.375C397.143 601.075 399.368 598.85 402.368 598.85C405.118 598.85 407.068 600.7 407.068 603.5C407.068 603.9 407.018 604.425 406.968 604.825ZM402.368 600.1C400.393 600.1 398.943 601.525 398.768 603.775H405.493C405.518 603.65 405.518 603.475 405.518 603.3C405.518 601.45 404.268 600.1 402.368 600.1ZM419.041 610H417.466V603.1C417.466 601.175 416.516 600.3 414.766 600.3C413.591 600.3 412.291 600.825 411.166 601.625V610H409.566V599.05L411.166 598.95V600.3C412.516 599.3 413.866 598.85 415.166 598.85C417.591 598.85 419.041 600.05 419.041 602.75V610ZM427.863 599L427.738 600.4H424.288V606.7C424.288 608.125 425.038 608.725 426.238 608.725C426.913 608.725 427.538 608.475 427.963 608.175L428.038 609.575C427.563 609.95 426.788 610.15 425.963 610.15C423.838 610.15 422.688 609.05 422.688 606.9V600.4H421.088V599H422.688V596.525L424.288 596.1V599H427.863ZM445.327 604.425C445.327 607.75 442.927 610.15 439.627 610.15C438.477 610.15 437.552 610 436.752 609.65V614.625H435.152V599.05L436.752 598.95V599.925C437.677 599.2 438.802 598.85 440.077 598.85C443.002 598.85 445.327 600.875 445.327 604.425ZM443.677 604.45C443.677 601.775 442.002 600.25 439.727 600.25C438.627 600.25 437.577 600.575 436.752 601.25V608.225C437.452 608.55 438.402 608.75 439.402 608.75C441.777 608.75 443.677 607.15 443.677 604.45ZM453.479 599L453.429 600.525C453.154 600.425 452.704 600.35 452.354 600.35C451.154 600.35 450.004 601.025 449.154 602.025V610H447.554V599.05L449.154 598.95V600.6C450.054 599.525 451.304 598.85 452.579 598.85C452.904 598.85 453.279 598.9 453.479 599ZM465.721 604.5C465.721 607.825 463.246 610.15 460.021 610.15C456.821 610.15 454.321 607.825 454.321 604.5C454.321 601.175 456.821 598.85 460.021 598.85C463.246 598.85 465.721 601.175 465.721 604.5ZM464.071 604.5C464.071 602 462.246 600.275 460.021 600.275C457.746 600.275 455.971 602 455.971 604.5C455.971 607 457.796 608.725 460.021 608.725C462.321 608.725 464.071 607 464.071 604.5ZM476.24 599.825L475.84 601.3C475.14 600.725 473.915 600.325 472.865 600.325C470.49 600.325 468.715 602 468.715 604.5C468.715 607 470.465 608.675 473.015 608.675C474.29 608.675 475.565 608.25 476.44 607.525L476.515 609.05C475.665 609.725 474.29 610.15 472.84 610.15C469.615 610.15 467.065 608 467.065 604.5C467.065 601.175 469.59 598.85 472.765 598.85C474.24 598.85 475.465 599.225 476.24 599.825ZM487.681 604.825H479.531C479.681 607.2 481.431 608.725 484.006 608.725C485.381 608.725 486.856 608.3 487.756 607.575L487.831 609.075C486.981 609.725 485.356 610.15 483.931 610.15C480.281 610.15 477.856 607.95 477.856 604.375C477.856 601.075 480.081 598.85 483.081 598.85C485.831 598.85 487.781 600.7 487.781 603.5C487.781 603.9 487.731 604.425 487.681 604.825ZM483.081 600.1C481.106 600.1 479.656 601.525 479.481 603.775H486.206C486.231 603.65 486.231 603.475 486.231 603.3C486.231 601.45 484.981 600.1 483.081 600.1ZM496.979 599.3L496.754 600.725C496.054 600.425 495.104 600.2 493.979 600.2C492.379 600.2 491.529 600.875 491.529 601.85C491.529 604.1 497.479 603.4 497.479 606.95C497.479 608.7 496.254 610.15 493.204 610.15C491.904 610.15 490.529 609.85 489.704 609.375L489.854 607.95C490.704 608.425 492.029 608.8 493.204 608.8C495.004 608.8 495.829 608.175 495.829 607.025C495.829 604.75 489.879 605.425 489.879 601.925C489.879 600.325 491.279 598.85 494.004 598.85C495.304 598.85 496.254 599 496.979 599.3ZM506.549 599.3L506.324 600.725C505.624 600.425 504.674 600.2 503.549 600.2C501.949 600.2 501.099 600.875 501.099 601.85C501.099 604.1 507.049 603.4 507.049 606.95C507.049 608.7 505.824 610.15 502.774 610.15C501.474 610.15 500.099 609.85 499.274 609.375L499.424 607.95C500.274 608.425 501.599 608.8 502.774 608.8C504.574 608.8 505.399 608.175 505.399 607.025C505.399 604.75 499.449 605.425 499.449 601.925C499.449 600.325 500.849 598.85 503.574 598.85C504.874 598.85 505.824 599 506.549 599.3ZM510.415 594.4C510.99 594.4 511.44 594.85 511.44 595.425C511.44 596.025 510.99 596.475 510.415 596.475C509.815 596.475 509.34 596.025 509.34 595.425C509.34 594.85 509.815 594.4 510.415 594.4ZM511.19 598.95V610H509.59V599.05L511.19 598.95ZM523.777 610H522.202V603.1C522.202 601.175 521.252 600.3 519.502 600.3C518.327 600.3 517.027 600.825 515.902 601.625V610H514.302V599.05L515.902 598.95V600.3C517.252 599.3 518.602 598.85 519.902 598.85C522.327 598.85 523.777 600.05 523.777 602.75V610ZM536.025 598.75L535.975 600.15H533.7C534.45 600.75 534.925 601.65 534.925 602.65C534.925 604.725 533.4 606.25 530.975 606.425L529.125 608.4C529.625 608.3 530.9 608.225 531.475 608.225C534.625 608.225 536.25 609.25 536.25 611.375C536.25 613.35 534.625 614.775 530.825 614.775C528.825 614.775 526.7 614.325 525.55 613.625L525.7 612.15C526.825 612.85 528.9 613.425 530.875 613.425C533.8 613.425 534.7 612.5 534.7 611.375C534.7 610.05 533.65 609.55 531.2 609.55C530.075 609.55 528.55 609.675 527.7 609.85V608.575L529.8 606.4C527.525 606.175 526.15 604.6 526.15 602.65C526.15 600.475 527.85 598.85 530.525 598.85C531.1 598.85 531.65 598.925 532.1 599.075L536.025 598.75ZM533.4 602.65C533.4 601.15 532.3 600.05 530.525 600.05C528.775 600.05 527.675 601.1 527.675 602.65C527.675 604.15 528.775 605.225 530.525 605.225C532.3 605.225 533.4 604.175 533.4 602.65ZM536.632 613.375C537.632 611.675 538.007 610.15 538.007 608.65C538.007 608.25 537.982 607.75 537.857 607.275H539.432C539.532 607.6 539.557 608.075 539.557 608.45C539.557 610.15 538.982 611.8 537.907 613.375H536.632ZM113.476 625L113.426 626.525C113.151 626.425 112.701 626.35 112.351 626.35C111.151 626.35 110.001 627.025 109.151 628.025V636H107.551V625.05L109.151 624.95V626.6C110.051 625.525 111.301 624.85 112.576 624.85C112.901 624.85 113.276 624.9 113.476 625ZM124.241 630.825H116.091C116.241 633.2 117.991 634.725 120.566 634.725C121.941 634.725 123.416 634.3 124.316 633.575L124.391 635.075C123.541 635.725 121.916 636.15 120.491 636.15C116.841 636.15 114.416 633.95 114.416 630.375C114.416 627.075 116.641 624.85 119.641 624.85C122.391 624.85 124.341 626.7 124.341 629.5C124.341 629.9 124.291 630.425 124.241 630.825ZM119.641 626.1C117.666 626.1 116.216 627.525 116.041 629.775H122.766C122.791 629.65 122.791 629.475 122.791 629.3C122.791 627.45 121.541 626.1 119.641 626.1ZM137.014 630.425C137.014 633.75 134.614 636.15 131.314 636.15C130.164 636.15 129.239 636 128.439 635.65V640.625H126.839V625.05L128.439 624.95V625.925C129.364 625.2 130.489 624.85 131.764 624.85C134.689 624.85 137.014 626.875 137.014 630.425ZM135.364 630.45C135.364 627.775 133.689 626.25 131.414 626.25C130.314 626.25 129.264 626.575 128.439 627.25V634.225C129.139 634.55 130.089 634.75 131.089 634.75C133.464 634.75 135.364 633.15 135.364 630.45ZM149.766 630.5C149.766 633.825 147.291 636.15 144.066 636.15C140.866 636.15 138.366 633.825 138.366 630.5C138.366 627.175 140.866 624.85 144.066 624.85C147.291 624.85 149.766 627.175 149.766 630.5ZM148.116 630.5C148.116 628 146.291 626.275 144.066 626.275C141.791 626.275 140.016 628 140.016 630.5C140.016 633 141.841 634.725 144.066 634.725C146.366 634.725 148.116 633 148.116 630.5ZM157.91 625L157.86 626.525C157.585 626.425 157.135 626.35 156.785 626.35C155.585 626.35 154.435 627.025 153.585 628.025V636H151.985V625.05L153.585 624.95V626.6C154.485 625.525 155.735 624.85 157.01 624.85C157.335 624.85 157.71 624.9 157.91 625ZM165.595 625L165.47 626.4H162.02V632.7C162.02 634.125 162.77 634.725 163.97 634.725C164.645 634.725 165.27 634.475 165.695 634.175L165.77 635.575C165.295 635.95 164.52 636.15 163.695 636.15C161.57 636.15 160.42 635.05 160.42 632.9V626.4H158.82V625H160.42V622.525L162.02 622.1V625H165.595ZM168.704 620.4C169.279 620.4 169.729 620.85 169.729 621.425C169.729 622.025 169.279 622.475 168.704 622.475C168.104 622.475 167.629 622.025 167.629 621.425C167.629 620.85 168.104 620.4 168.704 620.4ZM169.479 624.95V636H167.879V625.05L169.479 624.95ZM182.066 636H180.491V629.1C180.491 627.175 179.541 626.3 177.791 626.3C176.616 626.3 175.316 626.825 174.191 627.625V636H172.591V625.05L174.191 624.95V626.3C175.541 625.3 176.891 624.85 178.191 624.85C180.616 624.85 182.066 626.05 182.066 628.75V636ZM194.313 624.75L194.263 626.15H191.988C192.738 626.75 193.213 627.65 193.213 628.65C193.213 630.725 191.688 632.25 189.263 632.425L187.413 634.4C187.913 634.3 189.188 634.225 189.763 634.225C192.913 634.225 194.538 635.25 194.538 637.375C194.538 639.35 192.913 640.775 189.113 640.775C187.113 640.775 184.988 640.325 183.838 639.625L183.988 638.15C185.113 638.85 187.188 639.425 189.163 639.425C192.088 639.425 192.988 638.5 192.988 637.375C192.988 636.05 191.938 635.55 189.488 635.55C188.363 635.55 186.838 635.675 185.988 635.85V634.575L188.088 632.4C185.813 632.175 184.438 630.6 184.438 628.65C184.438 626.475 186.138 624.85 188.813 624.85C189.388 624.85 189.938 624.925 190.388 625.075L194.313 624.75ZM191.688 628.65C191.688 627.15 190.588 626.05 188.813 626.05C187.063 626.05 185.963 627.1 185.963 628.65C185.963 630.15 187.063 631.225 188.813 631.225C190.588 631.225 191.688 630.175 191.688 628.65ZM196.996 633.975C197.596 633.975 198.071 634.45 198.071 635.05C198.071 635.675 197.596 636.15 196.996 636.15C196.371 636.15 195.921 635.675 195.921 635.075C195.921 634.45 196.396 633.975 196.996 633.975ZM216.769 634.975C215.494 635.775 214.069 636.125 212.169 636.125C207.794 636.125 205.219 633.125 205.219 629.575C205.219 624.65 208.644 621.025 213.719 621.025C215.594 621.025 217.269 621.45 218.344 622.175L217.969 623.175C217.044 622.475 215.244 622.025 213.719 622.025C209.219 622.025 206.344 625.2 206.344 629.525C206.344 632.8 208.769 635.125 212.244 635.125C213.994 635.125 215.669 634.65 216.919 633.8L216.769 634.975ZM222.953 620.15L220.203 636H219.153L221.878 620.25L222.953 620.15ZM226.672 620.575C227.097 620.575 227.372 620.875 227.372 621.275C227.372 621.775 226.997 622.175 226.497 622.175C226.072 622.175 225.772 621.85 225.772 621.45C225.772 620.95 226.172 620.575 226.672 620.575ZM226.522 624.95L224.597 636H223.547L225.447 625.05L226.522 624.95ZM237.742 630.4L228.967 630.9C228.917 633.55 230.642 635.175 233.167 635.175C234.842 635.175 236.217 634.65 237.242 633.9L237.117 634.95C236.167 635.675 234.767 636.125 233.067 636.125C229.842 636.125 227.867 634 227.867 631.075C227.867 627.325 230.417 624.875 233.492 624.875C236.067 624.875 237.892 626.475 237.892 629.05C237.892 629.45 237.842 629.975 237.742 630.4ZM233.467 625.75C231.217 625.75 229.367 627.4 229.017 630.1L236.792 629.65C236.817 629.5 236.842 629.225 236.842 629C236.842 626.975 235.442 625.75 233.467 625.75ZM248.616 636H247.566L248.741 629.25C248.816 628.85 248.866 628.325 248.866 628.025C248.866 626.55 248.091 625.85 246.441 625.85C245.041 625.85 243.541 626.45 241.941 627.625L240.491 636H239.441L241.341 625.05L242.416 624.95L242.141 626.575C243.666 625.425 245.166 624.875 246.666 624.875C248.766 624.875 249.941 625.85 249.941 627.8C249.941 628.1 249.891 628.65 249.816 629.1L248.616 636ZM254.64 622.45L255.74 622.125L255.24 625H258.99L258.715 625.925H255.09L253.865 632.975C253.59 634.525 254.19 635.175 255.465 635.175C256.19 635.175 256.915 634.925 257.44 634.575L257.315 635.55C256.865 635.9 256.09 636.125 255.315 636.125C253.665 636.125 252.715 635.35 252.715 633.875C252.715 633.625 252.74 633.4 252.79 633.125L254.04 625.925H252.415L252.59 625H254.19L254.64 622.45ZM274.485 630.4L265.71 630.9C265.66 633.55 267.385 635.175 269.91 635.175C271.585 635.175 272.96 634.65 273.985 633.9L273.86 634.95C272.91 635.675 271.51 636.125 269.81 636.125C266.585 636.125 264.61 634 264.61 631.075C264.61 627.325 267.16 624.875 270.235 624.875C272.81 624.875 274.635 626.475 274.635 629.05C274.635 629.45 274.585 629.975 274.485 630.4ZM270.21 625.75C267.96 625.75 266.11 627.4 265.76 630.1L273.535 629.65C273.56 629.5 273.585 629.225 273.585 629C273.585 626.975 272.185 625.75 270.21 625.75ZM286.709 625L281.659 630.4L285.009 636H283.784L280.859 631.075L276.234 636H274.984L280.334 630.275L277.184 625.05L278.359 624.925L281.109 629.6L285.459 625H286.709ZM297.944 625L296.044 636H295.094L295.244 634.775C294.194 635.575 292.919 636.125 291.519 636.125C288.944 636.125 287.144 634.575 287.144 631.475C287.144 627.625 289.519 624.875 292.894 624.875C294.269 624.875 295.669 625.35 296.719 626.2L296.994 625H297.944ZM296.544 627.15C295.719 626.4 294.269 625.8 292.969 625.8C290.294 625.8 288.219 627.95 288.219 631.425C288.219 634.05 289.719 635.2 291.719 635.2C293.069 635.2 294.394 634.525 295.419 633.7L296.544 627.15ZM315.926 636H314.901L316.051 629.25C316.126 628.85 316.176 628.325 316.176 628.025C316.176 626.55 315.401 625.85 313.826 625.85C312.726 625.85 311.076 626.45 309.501 627.625C309.526 628.05 309.451 628.725 309.376 629.175L308.201 636H307.151L308.326 629.25C308.401 628.85 308.426 628.325 308.426 628.025C308.426 626.55 307.626 625.85 306.126 625.85C305.001 625.85 303.501 626.45 301.926 627.625L300.476 636H299.426L301.326 625.05L302.401 624.95L302.101 626.575C303.651 625.425 305.126 624.875 306.376 624.875C308.026 624.875 309.051 625.625 309.376 626.775C311.376 625.325 312.826 624.875 314.026 624.875C316.076 624.875 317.251 625.85 317.251 627.825C317.251 628.125 317.201 628.65 317.126 629.1L315.926 636ZM330.299 629.525C330.299 633.375 327.924 636.125 324.549 636.125C322.999 636.125 321.599 635.65 320.574 634.8L319.549 640.625H318.499L321.199 625.05L322.274 624.95L322.024 626.225C323.074 625.425 324.374 624.875 325.824 624.875C328.499 624.875 330.299 626.425 330.299 629.525ZM329.224 629.575C329.224 626.95 327.724 625.8 325.624 625.8C324.224 625.8 322.874 626.475 321.849 627.3L320.724 633.85C321.549 634.6 322.999 635.2 324.474 635.2C327.124 635.2 329.224 633.05 329.224 629.575ZM335.428 620.15L332.678 636H331.628L334.353 620.25L335.428 620.15ZM345.823 630.4L337.048 630.9C336.998 633.55 338.723 635.175 341.248 635.175C342.923 635.175 344.298 634.65 345.323 633.9L345.198 634.95C344.248 635.675 342.848 636.125 341.148 636.125C337.923 636.125 335.948 634 335.948 631.075C335.948 627.325 338.498 624.875 341.573 624.875C344.148 624.875 345.973 626.475 345.973 629.05C345.973 629.45 345.923 629.975 345.823 630.4ZM341.548 625.75C339.298 625.75 337.448 627.4 337.098 630.1L344.873 629.65C344.898 629.5 344.923 629.225 344.923 629C344.923 626.975 343.523 625.75 341.548 625.75ZM349.618 624.875C350.043 624.875 350.343 625.2 350.343 625.6C350.343 626.125 349.968 626.5 349.443 626.5C349.018 626.5 348.718 626.175 348.718 625.775C348.718 625.25 349.118 624.875 349.618 624.875ZM347.918 634.5C348.343 634.5 348.643 634.825 348.643 635.225C348.643 635.75 348.243 636.125 347.743 636.125C347.318 636.125 347.018 635.8 347.018 635.4C347.018 634.875 347.418 634.5 347.918 634.5ZM368.038 625.4C368.038 629.15 364.988 630.45 361.463 630.45H358.388L357.438 636H356.363L358.938 621.15H363.088C366.188 621.15 368.038 622.65 368.038 625.4ZM366.913 625.425C366.913 622.975 365.138 622.1 362.788 622.1H359.838L358.563 629.5H361.463C364.213 629.5 366.913 628.7 366.913 625.425ZM376.261 625.025L376.086 626.05C375.811 625.925 375.511 625.85 375.111 625.85C373.786 625.85 372.361 626.725 371.261 627.925L369.861 636H368.811L370.711 625.05L371.786 624.95L371.461 626.75C372.861 625.35 373.961 624.875 375.311 624.875C375.736 624.875 376.086 624.925 376.261 625.025ZM376.426 631.075C376.426 627.375 379.301 624.875 382.676 624.875C385.726 624.875 387.826 627.025 387.826 629.925C387.826 633.625 384.951 636.125 381.576 636.125C378.526 636.125 376.426 633.975 376.426 631.075ZM377.526 631.05C377.526 633.65 379.276 635.175 381.626 635.175C384.451 635.175 386.726 633.125 386.726 629.95C386.726 627.35 384.951 625.825 382.626 625.825C379.801 625.825 377.526 627.875 377.526 631.05ZM398.598 625.8L398.248 626.8C397.523 626.275 396.373 625.85 395.173 625.85C392.348 625.85 390.173 627.85 390.173 631.05C390.173 633.625 391.823 635.15 394.173 635.15C395.498 635.15 396.973 634.625 397.873 633.875L397.848 634.95C396.973 635.65 395.523 636.125 394.098 636.125C391.048 636.125 389.073 633.975 389.073 631.075C389.073 627.375 391.798 624.875 395.173 624.875C396.598 624.875 397.773 625.225 398.598 625.8ZM409.421 630.4L400.646 630.9C400.596 633.55 402.321 635.175 404.846 635.175C406.521 635.175 407.896 634.65 408.921 633.9L408.796 634.95C407.846 635.675 406.446 636.125 404.746 636.125C401.521 636.125 399.546 634 399.546 631.075C399.546 627.325 402.096 624.875 405.171 624.875C407.746 624.875 409.571 626.475 409.571 629.05C409.571 629.45 409.521 629.975 409.421 630.4ZM405.146 625.75C402.896 625.75 401.046 627.4 400.696 630.1L408.471 629.65C408.496 629.5 408.521 629.225 408.521 629C408.521 626.975 407.121 625.75 405.146 625.75ZM419.02 625.25L418.82 626.25C418.17 626 417.195 625.8 416.245 625.8C414.07 625.8 413.07 626.725 413.07 627.975C413.07 630.25 418.37 629.875 418.37 632.95C418.37 634.6 417.17 636.125 413.845 636.125C412.67 636.125 411.37 635.875 410.645 635.475L410.82 634.45C411.595 634.875 412.82 635.2 413.87 635.2C416.27 635.2 417.27 634.35 417.27 632.975C417.27 630.725 411.97 631.1 411.97 628.025C411.97 626.475 413.195 624.875 416.27 624.875C417.345 624.875 418.32 625 419.02 625.25ZM428.322 625.25L428.122 626.25C427.472 626 426.497 625.8 425.547 625.8C423.372 625.8 422.372 626.725 422.372 627.975C422.372 630.25 427.672 629.875 427.672 632.95C427.672 634.6 426.472 636.125 423.147 636.125C421.972 636.125 420.672 635.875 419.947 635.475L420.122 634.45C420.897 634.875 422.122 635.2 423.172 635.2C425.572 635.2 426.572 634.35 426.572 632.975C426.572 630.725 421.272 631.1 421.272 628.025C421.272 626.475 422.497 624.875 425.572 624.875C426.647 624.875 427.622 625 428.322 625.25ZM439.524 630.4L430.749 630.9C430.699 633.55 432.424 635.175 434.949 635.175C436.624 635.175 437.999 634.65 439.024 633.9L438.899 634.95C437.949 635.675 436.549 636.125 434.849 636.125C431.624 636.125 429.649 634 429.649 631.075C429.649 627.325 432.199 624.875 435.274 624.875C437.849 624.875 439.674 626.475 439.674 629.05C439.674 629.45 439.624 629.975 439.524 630.4ZM435.249 625.75C432.999 625.75 431.149 627.4 430.799 630.1L438.574 629.65C438.599 629.5 438.624 629.225 438.624 629C438.624 626.975 437.224 625.75 435.249 625.75ZM449.123 625.25L448.923 626.25C448.273 626 447.298 625.8 446.348 625.8C444.173 625.8 443.173 626.725 443.173 627.975C443.173 630.25 448.473 629.875 448.473 632.95C448.473 634.6 447.273 636.125 443.948 636.125C442.773 636.125 441.473 635.875 440.748 635.475L440.923 634.45C441.698 634.875 442.923 635.2 443.973 635.2C446.373 635.2 447.373 634.35 447.373 632.975C447.373 630.725 442.073 631.1 442.073 628.025C442.073 626.475 443.298 624.875 446.373 624.875C447.448 624.875 448.423 625 449.123 625.25ZM458.655 620.575C459.08 620.575 459.355 620.875 459.355 621.275C459.355 621.775 458.98 622.175 458.48 622.175C458.055 622.175 457.755 621.85 457.755 621.45C457.755 620.95 458.155 620.575 458.655 620.575ZM458.505 624.95L456.58 636H455.53L457.43 625.05L458.505 624.95ZM469.099 636H468.049L469.224 629.25C469.299 628.85 469.349 628.325 469.349 628.025C469.349 626.55 468.574 625.85 466.924 625.85C465.524 625.85 464.024 626.45 462.424 627.625L460.974 636H459.924L461.824 625.05L462.899 624.95L462.624 626.575C464.149 625.425 465.649 624.875 467.149 624.875C469.249 624.875 470.424 625.85 470.424 627.8C470.424 628.1 470.374 628.65 470.299 629.1L469.099 636ZM483.324 625L476.874 636H475.674L473.099 625.05L474.124 624.95L475.949 632.7C476.124 633.45 476.324 634.325 476.399 634.9H476.499C476.749 634.325 477.199 633.45 477.624 632.7L482.149 625H483.324ZM483.384 631.075C483.384 627.375 486.259 624.875 489.634 624.875C492.684 624.875 494.784 627.025 494.784 629.925C494.784 633.625 491.909 636.125 488.534 636.125C485.484 636.125 483.384 633.975 483.384 631.075ZM484.484 631.05C484.484 633.65 486.234 635.175 488.584 635.175C491.409 635.175 493.684 633.125 493.684 629.95C493.684 627.35 491.909 625.825 489.584 625.825C486.759 625.825 484.484 627.875 484.484 631.05ZM499.231 620.575C499.656 620.575 499.931 620.875 499.931 621.275C499.931 621.775 499.556 622.175 499.056 622.175C498.631 622.175 498.331 621.85 498.331 621.45C498.331 620.95 498.731 620.575 499.231 620.575ZM499.081 624.95L497.156 636H496.106L498.006 625.05L499.081 624.95ZM509.95 625.8L509.6 626.8C508.875 626.275 507.725 625.85 506.525 625.85C503.7 625.85 501.525 627.85 501.525 631.05C501.525 633.625 503.175 635.15 505.525 635.15C506.85 635.15 508.325 634.625 509.225 633.875L509.2 634.95C508.325 635.65 506.875 636.125 505.45 636.125C502.4 636.125 500.425 633.975 500.425 631.075C500.425 627.375 503.15 624.875 506.525 624.875C507.95 624.875 509.125 625.225 509.95 625.8ZM520.774 630.4L511.999 630.9C511.949 633.55 513.674 635.175 516.199 635.175C517.874 635.175 519.249 634.65 520.274 633.9L520.149 634.95C519.199 635.675 517.799 636.125 516.099 636.125C512.874 636.125 510.899 634 510.899 631.075C510.899 627.325 513.449 624.875 516.524 624.875C519.099 624.875 520.924 626.475 520.924 629.05C520.924 629.45 520.874 629.975 520.774 630.4ZM516.499 625.75C514.249 625.75 512.399 627.4 512.049 630.1L519.824 629.65C519.849 629.5 519.874 629.225 519.874 629C519.874 626.975 518.474 625.75 516.499 625.75ZM530.373 625.25L530.173 626.25C529.523 626 528.548 625.8 527.598 625.8C525.423 625.8 524.423 626.725 524.423 627.975C524.423 630.25 529.723 629.875 529.723 632.95C529.723 634.6 528.523 636.125 525.198 636.125C524.023 636.125 522.723 635.875 521.998 635.475L522.173 634.45C522.948 634.875 524.173 635.2 525.223 635.2C527.623 635.2 528.623 634.35 528.623 632.975C528.623 630.725 523.323 631.1 523.323 628.025C523.323 626.475 524.548 624.875 527.623 624.875C528.698 624.875 529.673 625 530.373 625.25ZM539.905 620.575C540.33 620.575 540.605 620.875 540.605 621.275C540.605 621.775 540.23 622.175 539.73 622.175C539.305 622.175 539.005 621.85 539.005 621.45C539.005 620.95 539.405 620.575 539.905 620.575ZM539.755 624.95L537.83 636H536.78L538.68 625.05L539.755 624.95ZM550.349 636H549.299L550.474 629.25C550.549 628.85 550.599 628.325 550.599 628.025C550.599 626.55 549.824 625.85 548.174 625.85C546.774 625.85 545.274 626.45 543.674 627.625L542.224 636H541.174L543.074 625.05L544.149 624.95L543.874 626.575C545.399 625.425 546.899 624.875 548.399 624.875C550.499 624.875 551.674 625.85 551.674 627.8C551.674 628.1 551.624 628.65 551.549 629.1L550.349 636ZM171.15 649.375L171 650.35L164.6 655.85C168.1 655.9 169.75 657.4 169.75 659.775C169.75 662.6 167.2 664.35 163.625 664.35C161.95 664.35 160.525 664.125 159.425 663.55L159.65 662.5C160.7 663.1 162 663.375 163.65 663.375C166.4 663.375 168.625 662.175 168.625 659.775C168.625 657.75 167.25 656.675 163.95 656.675H163.125L163.275 655.825L169.7 650.325H161.9L162.15 649.375H171.15ZM182.94 653.9C182.94 654.55 182.865 655.25 182.74 656C182.015 660.075 180.065 662.125 177.015 662.125C174.19 662.125 172.665 660.5 172.665 657.475C172.665 656.825 172.74 656.1 172.89 655.325C173.615 651.275 175.565 649.25 178.59 649.25C181.415 649.25 182.94 650.875 182.94 653.9ZM181.84 653.9C181.84 651.475 180.74 650.175 178.565 650.175C176.015 650.175 174.59 651.925 173.965 655.5C173.815 656.225 173.765 656.875 173.765 657.475C173.765 659.9 174.865 661.2 177.04 661.2C179.59 661.2 181.015 659.45 181.64 655.875C181.765 655.175 181.84 654.5 181.84 653.9ZM197.402 651.25L197.202 652.25C196.552 652 195.577 651.8 194.627 651.8C192.452 651.8 191.452 652.725 191.452 653.975C191.452 656.25 196.752 655.875 196.752 658.95C196.752 660.6 195.552 662.125 192.227 662.125C191.052 662.125 189.752 661.875 189.027 661.475L189.202 660.45C189.977 660.875 191.202 661.2 192.252 661.2C194.652 661.2 195.652 660.35 195.652 658.975C195.652 656.725 190.352 657.1 190.352 654.025C190.352 652.475 191.577 650.875 194.652 650.875C195.727 650.875 196.702 651 197.402 651.25ZM208.604 656.4L199.829 656.9C199.779 659.55 201.504 661.175 204.029 661.175C205.704 661.175 207.079 660.65 208.104 659.9L207.979 660.95C207.029 661.675 205.629 662.125 203.929 662.125C200.704 662.125 198.729 660 198.729 657.075C198.729 653.325 201.279 650.875 204.354 650.875C206.929 650.875 208.754 652.475 208.754 655.05C208.754 655.45 208.704 655.975 208.604 656.4ZM204.329 651.75C202.079 651.75 200.229 653.4 199.879 656.1L207.654 655.65C207.679 655.5 207.704 655.225 207.704 655C207.704 652.975 206.304 651.75 204.329 651.75ZM219.753 651.8L219.403 652.8C218.678 652.275 217.528 651.85 216.328 651.85C213.503 651.85 211.328 653.85 211.328 657.05C211.328 659.625 212.978 661.15 215.328 661.15C216.653 661.15 218.128 660.625 219.028 659.875L219.003 660.95C218.128 661.65 216.678 662.125 215.253 662.125C212.203 662.125 210.228 659.975 210.228 657.075C210.228 653.375 212.953 650.875 216.328 650.875C217.753 650.875 218.928 651.225 219.753 651.8ZM220.701 657.075C220.701 653.375 223.576 650.875 226.951 650.875C230.001 650.875 232.101 653.025 232.101 655.925C232.101 659.625 229.226 662.125 225.851 662.125C222.801 662.125 220.701 659.975 220.701 657.075ZM221.801 657.05C221.801 659.65 223.551 661.175 225.901 661.175C228.726 661.175 231.001 659.125 231.001 655.95C231.001 653.35 229.226 651.825 226.901 651.825C224.076 651.825 221.801 653.875 221.801 657.05ZM242.598 662H241.548L242.723 655.25C242.798 654.85 242.848 654.325 242.848 654.025C242.848 652.55 242.073 651.85 240.423 651.85C239.023 651.85 237.523 652.45 235.923 653.625L234.473 662H233.423L235.323 651.05L236.398 650.95L236.123 652.575C237.648 651.425 239.148 650.875 240.648 650.875C242.748 650.875 243.923 651.85 243.923 653.8C243.923 654.1 243.873 654.65 243.798 655.1L242.598 662ZM257.697 646.15L254.947 662H253.997L254.147 660.75C253.097 661.575 251.797 662.125 250.347 662.125C247.672 662.125 245.872 660.575 245.872 657.475C245.872 653.625 248.247 650.875 251.622 650.875C253.147 650.875 254.572 651.35 255.597 652.2L256.647 646.25L257.697 646.15ZM255.422 653.15C254.622 652.4 253.172 651.8 251.672 651.8C249.022 651.8 246.947 653.95 246.947 657.425C246.947 660.05 248.447 661.2 250.547 661.2C251.947 661.2 253.297 660.55 254.297 659.7L255.422 653.15ZM266.225 651.25L266.025 652.25C265.375 652 264.4 651.8 263.45 651.8C261.275 651.8 260.275 652.725 260.275 653.975C260.275 656.25 265.575 655.875 265.575 658.95C265.575 660.6 264.375 662.125 261.05 662.125C259.875 662.125 258.575 661.875 257.85 661.475L258.025 660.45C258.8 660.875 260.025 661.2 261.075 661.2C263.475 661.2 264.475 660.35 264.475 658.975C264.475 656.725 259.175 657.1 259.175 654.025C259.175 652.475 260.4 650.875 263.475 650.875C264.55 650.875 265.525 651 266.225 651.25ZM283.507 651L277.057 662H275.857L273.282 651.05L274.307 650.95L276.132 658.7C276.307 659.45 276.507 660.325 276.582 660.9H276.682C276.932 660.325 277.382 659.45 277.807 658.7L282.332 651H283.507ZM291.542 651.25L291.342 652.25C290.692 652 289.717 651.8 288.767 651.8C286.592 651.8 285.592 652.725 285.592 653.975C285.592 656.25 290.892 655.875 290.892 658.95C290.892 660.6 289.692 662.125 286.367 662.125C285.192 662.125 283.892 661.875 283.167 661.475L283.342 660.45C284.117 660.875 285.342 661.2 286.392 661.2C288.792 661.2 289.792 660.35 289.792 658.975C289.792 656.725 284.492 657.1 284.492 654.025C284.492 652.475 285.717 650.875 288.792 650.875C289.867 650.875 290.842 651 291.542 651.25ZM308.699 649.375L308.549 650.35L302.149 655.85C305.649 655.9 307.299 657.4 307.299 659.775C307.299 662.6 304.749 664.35 301.174 664.35C299.499 664.35 298.074 664.125 296.974 663.55L297.199 662.5C298.249 663.1 299.549 663.375 301.199 663.375C303.949 663.375 306.174 662.175 306.174 659.775C306.174 657.75 304.799 656.675 301.499 656.675H300.674L300.824 655.825L307.249 650.325H299.449L299.699 649.375H308.699ZM320.489 653.9C320.489 654.55 320.414 655.25 320.289 656C319.564 660.075 317.614 662.125 314.564 662.125C311.739 662.125 310.214 660.5 310.214 657.475C310.214 656.825 310.289 656.1 310.439 655.325C311.164 651.275 313.114 649.25 316.139 649.25C318.964 649.25 320.489 650.875 320.489 653.9ZM319.389 653.9C319.389 651.475 318.289 650.175 316.114 650.175C313.564 650.175 312.139 651.925 311.514 655.5C311.364 656.225 311.314 656.875 311.314 657.475C311.314 659.9 312.414 661.2 314.589 661.2C317.139 661.2 318.564 659.45 319.189 655.875C319.314 655.175 319.389 654.5 319.389 653.9ZM343.551 662H342.526L343.676 655.25C343.751 654.85 343.801 654.325 343.801 654.025C343.801 652.55 343.026 651.85 341.451 651.85C340.351 651.85 338.701 652.45 337.126 653.625C337.151 654.05 337.076 654.725 337.001 655.175L335.826 662H334.776L335.951 655.25C336.026 654.85 336.051 654.325 336.051 654.025C336.051 652.55 335.251 651.85 333.751 651.85C332.626 651.85 331.126 652.45 329.551 653.625L328.101 662H327.051L328.951 651.05L330.026 650.95L329.726 652.575C331.276 651.425 332.751 650.875 334.001 650.875C335.651 650.875 336.676 651.625 337.001 652.775C339.001 651.325 340.451 650.875 341.651 650.875C343.701 650.875 344.876 651.85 344.876 653.825C344.876 654.125 344.826 654.65 344.751 655.1L343.551 662ZM350.049 646.575C350.474 646.575 350.749 646.875 350.749 647.275C350.749 647.775 350.374 648.175 349.874 648.175C349.449 648.175 349.149 647.85 349.149 647.45C349.149 646.95 349.549 646.575 350.049 646.575ZM349.899 650.95L347.974 662H346.924L348.824 651.05L349.899 650.95ZM360.493 662H359.443L360.618 655.25C360.693 654.85 360.743 654.325 360.743 654.025C360.743 652.55 359.968 651.85 358.318 651.85C356.918 651.85 355.418 652.45 353.818 653.625L352.368 662H351.318L353.218 651.05L354.293 650.95L354.018 652.575C355.543 651.425 357.043 650.875 358.543 650.875C360.643 650.875 361.818 651.85 361.818 653.8C361.818 654.1 361.768 654.65 361.693 655.1L360.493 662ZM374.868 650.95L372.918 662H371.918L372.168 660.4C370.643 661.575 369.168 662.125 367.718 662.125C365.618 662.125 364.443 661.15 364.443 659.2C364.443 658.9 364.493 658.35 364.568 657.9L365.743 651.05L366.818 650.95L365.643 657.75C365.568 658.15 365.543 658.675 365.543 658.975C365.543 660.45 366.318 661.15 367.943 661.15C369.268 661.15 370.743 660.55 372.343 659.375L373.793 651.05L374.868 650.95ZM378.944 648.45L380.044 648.125L379.544 651H383.294L383.019 651.925H379.394L378.169 658.975C377.894 660.525 378.494 661.175 379.769 661.175C380.494 661.175 381.219 660.925 381.744 660.575L381.619 661.55C381.169 661.9 380.394 662.125 379.619 662.125C377.969 662.125 377.019 661.35 377.019 659.875C377.019 659.625 377.044 659.4 377.094 659.125L378.344 651.925H376.719L376.894 651H378.494L378.944 648.45ZM393.784 656.4L385.009 656.9C384.959 659.55 386.684 661.175 389.209 661.175C390.884 661.175 392.259 660.65 393.284 659.9L393.159 660.95C392.209 661.675 390.809 662.125 389.109 662.125C385.884 662.125 383.909 660 383.909 657.075C383.909 653.325 386.459 650.875 389.534 650.875C392.109 650.875 393.934 652.475 393.934 655.05C393.934 655.45 393.884 655.975 393.784 656.4ZM389.509 651.75C387.259 651.75 385.409 653.4 385.059 656.1L392.834 655.65C392.859 655.5 392.884 655.225 392.884 655C392.884 652.975 391.484 651.75 389.509 651.75ZM403.383 651.25L403.183 652.25C402.533 652 401.558 651.8 400.608 651.8C398.433 651.8 397.433 652.725 397.433 653.975C397.433 656.25 402.733 655.875 402.733 658.95C402.733 660.6 401.533 662.125 398.208 662.125C397.033 662.125 395.733 661.875 395.008 661.475L395.183 660.45C395.958 660.875 397.183 661.2 398.233 661.2C400.633 661.2 401.633 660.35 401.633 658.975C401.633 656.725 396.333 657.1 396.333 654.025C396.333 652.475 397.558 650.875 400.633 650.875C401.708 650.875 402.683 651 403.383 651.25ZM426.29 662H425.265L426.415 655.25C426.49 654.85 426.54 654.325 426.54 654.025C426.54 652.55 425.765 651.85 424.19 651.85C423.09 651.85 421.44 652.45 419.865 653.625C419.89 654.05 419.815 654.725 419.74 655.175L418.565 662H417.515L418.69 655.25C418.765 654.85 418.79 654.325 418.79 654.025C418.79 652.55 417.99 651.85 416.49 651.85C415.365 651.85 413.865 652.45 412.29 653.625L410.84 662H409.79L411.69 651.05L412.765 650.95L412.465 652.575C414.015 651.425 415.49 650.875 416.74 650.875C418.39 650.875 419.415 651.625 419.74 652.775C421.74 651.325 423.19 650.875 424.39 650.875C426.44 650.875 427.615 651.85 427.615 653.825C427.615 654.125 427.565 654.65 427.49 655.1L426.29 662ZM440.388 651L438.488 662H437.538L437.688 660.775C436.638 661.575 435.363 662.125 433.963 662.125C431.388 662.125 429.588 660.575 429.588 657.475C429.588 653.625 431.963 650.875 435.338 650.875C436.713 650.875 438.113 651.35 439.163 652.2L439.438 651H440.388ZM438.988 653.15C438.163 652.4 436.713 651.8 435.413 651.8C432.738 651.8 430.663 653.95 430.663 657.425C430.663 660.05 432.163 661.2 434.163 661.2C435.513 661.2 436.838 660.525 437.863 659.7L438.988 653.15ZM451.045 662H449.995L451.17 655.25C451.245 654.85 451.295 654.325 451.295 654.025C451.295 652.55 450.52 651.85 448.87 651.85C447.47 651.85 445.97 652.45 444.37 653.625L442.92 662H441.87L443.77 651.05L444.845 650.95L444.57 652.575C446.095 651.425 447.595 650.875 449.095 650.875C451.195 650.875 452.37 651.85 452.37 653.8C452.37 654.1 452.32 654.65 452.245 655.1L451.045 662ZM465.419 650.95L463.469 662H462.469L462.719 660.4C461.194 661.575 459.719 662.125 458.269 662.125C456.169 662.125 454.994 661.15 454.994 659.2C454.994 658.9 455.044 658.35 455.119 657.9L456.294 651.05L457.369 650.95L456.194 657.75C456.119 658.15 456.094 658.675 456.094 658.975C456.094 660.45 456.869 661.15 458.494 661.15C459.819 661.15 461.294 660.55 462.894 659.375L464.344 651.05L465.419 650.95ZM477.546 651L475.646 662H474.696L474.846 660.775C473.796 661.575 472.521 662.125 471.121 662.125C468.546 662.125 466.746 660.575 466.746 657.475C466.746 653.625 469.121 650.875 472.496 650.875C473.871 650.875 475.271 651.35 476.321 652.2L476.596 651H477.546ZM476.146 653.15C475.321 652.4 473.871 651.8 472.571 651.8C469.896 651.8 467.821 653.95 467.821 657.425C467.821 660.05 469.321 661.2 471.321 661.2C472.671 661.2 473.996 660.525 475.021 659.7L476.146 653.15ZM482.828 646.15L480.078 662H479.028L481.753 646.25L482.828 646.15ZM487.223 646.15L484.473 662H483.423L486.148 646.25L487.223 646.15ZM498.667 651L492.842 661.05C490.742 664.675 489.242 666.075 486.867 666.75L486.442 665.875C488.492 665.225 489.667 664.175 491.167 661.975L488.417 651.05L489.467 650.95L491.392 658.65C491.567 659.4 491.817 660.4 491.867 660.8H491.967C492.217 660.3 492.667 659.4 493.092 658.65L497.492 651H498.667ZM497.296 660.5C497.721 660.5 498.021 660.825 498.021 661.225C498.021 661.75 497.621 662.125 497.121 662.125C496.696 662.125 496.396 661.8 496.396 661.4C496.396 660.875 496.796 660.5 497.296 660.5Z" fill="white"/>
<path d="M355.07 236.928C354.699 236.559 354.232 236.304 353.722 236.19C353.212 236.077 352.68 236.111 352.188 236.288L291.746 258.268C291.223 258.458 290.77 258.803 290.447 259.256C290.124 259.71 289.946 260.25 289.938 260.807C289.929 261.364 290.089 261.91 290.398 262.373C290.707 262.837 291.149 263.195 291.666 263.402L318.045 273.952L328.595 300.331C328.798 300.842 329.15 301.28 329.606 301.589C330.061 301.898 330.598 302.062 331.148 302.062H331.193C331.749 302.053 332.289 301.875 332.743 301.552C333.196 301.229 333.54 300.777 333.731 300.254L355.709 239.809C355.888 239.318 355.923 238.786 355.81 238.275C355.696 237.765 355.44 237.297 355.07 236.928Z" fill="url(#paint1_linear_204_1437)"/>
<path d="M424.543 271.824C425.768 270.6 426.739 269.146 427.402 267.547C428.065 265.947 428.406 264.232 428.406 262.5C428.406 260.768 428.065 259.054 427.402 257.454C426.739 255.854 425.768 254.4 424.543 253.176L386.386 215.02L405.511 196.144C408.332 196.843 411.305 196.591 413.968 195.429C416.631 194.266 418.836 192.257 420.241 189.713C421.646 187.169 422.172 184.232 421.737 181.359C421.303 178.486 419.932 175.836 417.838 173.821C415.744 171.806 413.044 170.538 410.156 170.215C407.268 169.891 404.354 170.53 401.866 172.031C399.378 173.533 397.455 175.813 396.395 178.519C395.336 181.225 395.199 184.205 396.006 186.997L377.06 205.694L338.824 167.457C337.6 166.232 336.146 165.261 334.546 164.598C332.947 163.935 331.232 163.594 329.5 163.594C327.768 163.594 326.053 163.935 324.454 164.598C322.854 165.261 321.4 166.232 320.176 167.457L282.02 205.613L263.146 186.485C263.844 183.664 263.592 180.691 262.429 178.028C261.265 175.365 259.255 173.16 256.711 171.755C254.166 170.351 251.229 169.825 248.356 170.261C245.482 170.696 242.832 172.067 240.818 174.162C238.803 176.257 237.536 178.958 237.213 181.846C236.89 184.734 237.53 187.649 239.032 190.137C240.534 192.624 242.816 194.547 245.523 195.606C248.229 196.665 251.21 196.801 254.002 195.993L272.695 214.94L234.457 253.176C233.232 254.4 232.261 255.854 231.598 257.454C230.935 259.054 230.594 260.768 230.594 262.5C230.594 264.232 230.935 265.947 231.598 267.547C232.261 269.146 233.232 270.6 234.457 271.824L272.694 310.06L254.002 329.007C251.216 328.205 248.244 328.345 245.545 329.403C242.847 330.462 240.573 332.382 239.076 334.864C237.58 337.346 236.944 340.253 237.267 343.134C237.59 346.015 238.854 348.708 240.864 350.797C242.873 352.886 245.516 354.254 248.382 354.689C251.248 355.123 254.177 354.601 256.716 353.201C259.254 351.802 261.26 349.605 262.423 346.949C263.586 344.294 263.84 341.329 263.147 338.515L282.022 319.387L320.177 357.543C321.401 358.768 322.855 359.739 324.455 360.402C326.055 361.065 327.77 361.406 329.501 361.406C331.233 361.406 332.948 361.065 334.548 360.402C336.148 359.739 337.601 358.768 338.826 357.543L377.061 319.307L396.007 338.003C395.205 340.789 395.345 343.762 396.404 346.461C397.463 349.16 399.383 351.434 401.866 352.93C404.349 354.427 407.257 355.063 410.138 354.739C413.019 354.416 415.713 353.151 417.802 351.14C419.891 349.13 421.259 346.487 421.693 343.62C422.127 340.754 421.604 337.824 420.204 335.285C418.804 332.746 416.605 330.74 413.949 329.578C411.293 328.416 408.328 328.162 405.513 328.856L386.387 309.98L424.543 271.824ZM329.5 348.219L243.781 262.5L329.5 176.781L415.219 262.5L329.5 348.219Z" fill="url(#paint2_linear_204_1437)"/>
<defs>
<radialGradient id="paint0_radial_204_1437" cx="0" cy="0" r="1" gradientTransform="matrix(144 423.85 -380.023 193.746 330 399.35)" gradientUnits="userSpaceOnUse">
<stop stop-color="#00277C" stop-opacity="0.8"/>
<stop offset="1" stop-color="#000F30"/>
</radialGradient>
<linearGradient id="paint1_linear_204_1437" x1="322.906" y1="236.125" x2="322.906" y2="302.062" gradientUnits="userSpaceOnUse">
<stop stop-color="white"/>
<stop offset="1" stop-color="#989898"/>
</linearGradient>
<linearGradient id="paint2_linear_204_1437" x1="329.5" y1="163.594" x2="329.5" y2="361.406" gradientUnits="userSpaceOnUse">
<stop stop-color="white"/>
<stop offset="1" stop-color="#989898"/>
</linearGradient>
</defs>
</svg>
