<svg width="659" height="735" viewBox="0 0 659 735" fill="none" xmlns="http://www.w3.org/2000/svg">
<rect width="659" height="735" rx="30" fill="url(#paint0_radial_204_1427)"/>
<path d="M339.302 476H333.062L329.282 466.1H315.122L311.342 476H305.402L319.022 440.36H325.682L339.302 476ZM327.722 461.36L323.522 450.5C322.982 449.06 322.622 447.86 322.322 446.54H322.082C321.782 447.86 321.422 449.06 320.882 450.5L316.622 461.36H327.722ZM349.498 440.36V476H343.678V440.36H349.498ZM168.759 503.86L167.619 509.02C165.639 507.88 161.799 507.1 158.799 507.1C154.119 507.1 151.539 508.84 151.539 511.84C151.539 518.98 170.259 515.5 170.259 527.8C170.259 534.34 165.519 538.42 156.399 538.42C152.079 538.42 147.879 537.46 145.419 536.14L146.019 530.68C148.359 532.06 152.619 533.26 156.579 533.26C161.859 533.26 164.319 531.52 164.319 528.34C164.319 520.96 145.539 524.62 145.539 512.32C145.539 506.2 150.399 501.94 158.679 501.94C162.279 501.94 166.299 502.6 168.759 503.86ZM196.566 538H191.226V535.78C189.126 537.28 186.066 538.42 182.646 538.42C176.766 538.42 173.526 535.54 173.526 530.68C173.526 525.34 177.666 522.64 184.086 522.64C186.606 522.64 189.546 523.18 191.106 523.9V521.44C191.106 517.66 188.826 516.1 184.326 516.1C181.146 516.1 177.906 517 175.986 518.2L175.746 513.16C178.086 511.9 181.446 511.18 185.046 511.18C192.426 511.18 196.566 514.18 196.566 521.08V538ZM191.106 532.48V527.5C189.606 526.72 187.326 526.3 185.286 526.3C181.446 526.3 179.166 527.56 179.166 530.62C179.166 533.44 181.206 534.58 184.386 534.58C186.846 534.58 189.606 533.62 191.106 532.48ZM208.858 499.96V538H203.218V500.26L208.858 499.96ZM237.844 526.12H219.484C220.084 530.68 223.684 533.5 229.264 533.5C232.264 533.5 235.744 532.54 237.844 531.04L238.084 536.02C236.044 537.52 232.084 538.42 228.904 538.42C219.364 538.42 213.604 533.08 213.604 524.56C213.604 516.52 219.124 511.18 226.504 511.18C233.224 511.18 238.084 515.56 238.084 522.52C238.084 523.54 238.024 524.98 237.844 526.12ZM226.504 515.32C222.544 515.32 219.724 518.2 219.304 522.7H232.744C232.804 522.46 232.804 522.04 232.804 521.74C232.804 517.96 230.284 515.32 226.504 515.32ZM260.513 512.32L259.673 517.12C257.993 516.34 255.533 515.8 252.953 515.8C249.893 515.8 248.273 517 248.273 518.8C248.273 523.06 261.713 521.68 261.713 530.38C261.713 534.76 258.593 538.42 250.973 538.42C247.673 538.42 244.133 537.64 242.153 536.44L242.573 531.58C244.553 532.84 247.913 533.8 250.913 533.8C254.333 533.8 255.893 532.72 255.893 530.62C255.893 526.3 242.513 527.68 242.513 519.04C242.513 514.78 246.233 511.18 253.013 511.18C256.133 511.18 258.713 511.6 260.513 512.32ZM310.181 538H303.941L300.161 528.1H286.001L282.221 538H276.281L289.901 502.36H296.561L310.181 538ZM298.601 523.36L294.401 512.5C293.861 511.06 293.501 509.86 293.201 508.54H292.961C292.661 509.86 292.301 511.06 291.761 512.5L287.501 523.36H298.601ZM331.177 512.32L330.337 517.12C328.657 516.34 326.197 515.8 323.617 515.8C320.557 515.8 318.937 517 318.937 518.8C318.937 523.06 332.377 521.68 332.377 530.38C332.377 534.76 329.257 538.42 321.637 538.42C318.337 538.42 314.797 537.64 312.817 536.44L313.237 531.58C315.217 532.84 318.577 533.8 321.577 533.8C324.997 533.8 326.557 532.72 326.557 530.62C326.557 526.3 313.177 527.68 313.177 519.04C313.177 514.78 316.897 511.18 323.677 511.18C326.797 511.18 329.377 511.6 331.177 512.32ZM354.38 512.32L353.54 517.12C351.86 516.34 349.4 515.8 346.82 515.8C343.76 515.8 342.14 517 342.14 518.8C342.14 523.06 355.58 521.68 355.58 530.38C355.58 534.76 352.46 538.42 344.84 538.42C341.54 538.42 338 537.64 336.02 536.44L336.44 531.58C338.42 532.84 341.78 533.8 344.78 533.8C348.2 533.8 349.76 532.72 349.76 530.62C349.76 526.3 336.38 527.68 336.38 519.04C336.38 514.78 340.1 511.18 346.88 511.18C350 511.18 352.58 511.6 354.38 512.32ZM363.657 500.08C365.517 500.08 366.897 501.46 366.897 503.26C366.897 505.12 365.517 506.56 363.657 506.56C361.737 506.56 360.297 505.12 360.297 503.26C360.297 501.46 361.737 500.08 363.657 500.08ZM366.417 511.48V538H360.777V511.72L366.417 511.48ZM390.123 512.32L389.283 517.12C387.603 516.34 385.143 515.8 382.563 515.8C379.503 515.8 377.883 517 377.883 518.8C377.883 523.06 391.323 521.68 391.323 530.38C391.323 534.76 388.203 538.42 380.583 538.42C377.283 538.42 373.743 537.64 371.763 536.44L372.183 531.58C374.163 532.84 377.523 533.8 380.523 533.8C383.943 533.8 385.503 532.72 385.503 530.62C385.503 526.3 372.123 527.68 372.123 519.04C372.123 514.78 375.843 511.18 382.623 511.18C385.743 511.18 388.323 511.6 390.123 512.32ZM411.519 511.6L411.099 516.46H403.419V529.24C403.419 532.24 405.039 533.5 407.679 533.5C409.179 533.5 410.559 532.96 411.519 532.24L411.819 537.04C410.559 537.94 408.699 538.42 406.479 538.42C400.659 538.42 397.839 535.42 397.839 529.9V516.46H394.119V511.6H397.839V505.84L403.419 504.58V511.6H411.519ZM437.621 538H432.281V535.78C430.181 537.28 427.121 538.42 423.701 538.42C417.821 538.42 414.581 535.54 414.581 530.68C414.581 525.34 418.721 522.64 425.141 522.64C427.661 522.64 430.601 523.18 432.161 523.9V521.44C432.161 517.66 429.881 516.1 425.381 516.1C422.201 516.1 418.961 517 417.041 518.2L416.801 513.16C419.141 511.9 422.501 511.18 426.101 511.18C433.481 511.18 437.621 514.18 437.621 521.08V538ZM432.161 532.48V527.5C430.661 526.72 428.381 526.3 426.341 526.3C422.501 526.3 420.221 527.56 420.221 530.62C420.221 533.44 422.261 534.58 425.441 534.58C427.901 534.58 430.661 533.62 432.161 532.48ZM468.093 538H462.453V521.8C462.453 517.9 460.473 516.16 456.993 516.16C454.653 516.16 452.073 517.18 449.913 518.62V538H444.273V511.72L449.913 511.48V514.3C452.793 512.14 455.793 511.18 458.853 511.18C464.493 511.18 468.093 514.06 468.093 520.6V538ZM489.683 511.6L489.263 516.46H481.583V529.24C481.583 532.24 483.203 533.5 485.843 533.5C487.343 533.5 488.723 532.96 489.683 532.24L489.983 537.04C488.723 537.94 486.863 538.42 484.643 538.42C478.823 538.42 476.003 535.42 476.003 529.9V516.46H472.283V511.6H476.003V505.84L481.583 504.58V511.6H489.683ZM511.705 512.32L510.865 517.12C509.185 516.34 506.725 515.8 504.145 515.8C501.085 515.8 499.465 517 499.465 518.8C499.465 523.06 512.905 521.68 512.905 530.38C512.905 534.76 509.785 538.42 502.165 538.42C498.865 538.42 495.325 537.64 493.345 536.44L493.765 531.58C495.745 532.84 499.105 533.8 502.105 533.8C505.525 533.8 507.085 532.72 507.085 530.62C507.085 526.3 493.705 527.68 493.705 519.04C493.705 514.78 497.425 511.18 504.205 511.18C507.325 511.18 509.905 511.6 511.705 512.32Z" fill="white"/>
<path d="M143.966 582C148.391 582 151.541 585.2 151.541 589.575C151.541 593.55 148.916 596.4 145.541 596.825C146.716 597.975 148.441 599.025 150.441 599.775L149.091 601C146.966 600.125 144.591 598.5 143.466 597.125C139.416 596.925 136.391 593.925 136.391 589.575C136.391 585.225 139.516 582 143.966 582ZM143.966 595.65C147.416 595.65 149.816 593.05 149.816 589.575C149.816 586.15 147.416 583.5 143.966 583.5C140.491 583.5 138.116 586.1 138.116 589.575C138.116 593 140.491 595.65 143.966 595.65ZM163.264 585.95V597H161.689V595.725C160.339 596.7 158.989 597.15 157.739 597.15C155.364 597.15 153.889 595.95 153.889 593.25V586.05L155.489 585.95V592.875C155.489 594.825 156.439 595.7 158.139 595.7C159.289 595.7 160.564 595.2 161.689 594.4V586.05L163.264 585.95ZM174.689 597H173.164V596C172.239 596.65 170.814 597.15 169.339 597.15C166.864 597.15 165.514 595.975 165.514 593.975C165.514 591.725 167.264 590.65 169.964 590.65C171.089 590.65 172.414 590.925 173.114 591.275V589.875C173.114 588.025 172.064 587.275 170.039 587.275C168.639 587.275 167.339 587.675 166.539 588.175L166.464 586.7C167.364 586.175 168.714 585.85 170.189 585.85C173.039 585.85 174.689 587.025 174.689 589.725V597ZM173.114 594.9V592.375C172.414 592.025 171.264 591.775 170.214 591.775C168.339 591.775 167.139 592.4 167.139 593.95C167.139 595.4 168.214 595.975 169.714 595.975C170.989 595.975 172.389 595.45 173.114 594.9ZM179.391 581.15V597H177.791V581.275L179.391 581.15ZM183.328 581.4C183.903 581.4 184.353 581.85 184.353 582.425C184.353 583.025 183.903 583.475 183.328 583.475C182.728 583.475 182.253 583.025 182.253 582.425C182.253 581.85 182.728 581.4 183.328 581.4ZM184.103 585.95V597H182.503V586.05L184.103 585.95ZM192.64 581.275L192.565 582.7C192.315 582.625 191.94 582.6 191.615 582.6C190.265 582.6 189.34 583.25 189.34 585.225V586H192.34L192.215 587.4H189.34V597H187.765V587.4H186.165V586H187.765V585.175C187.765 582.45 189.265 581.15 191.49 581.15C191.865 581.15 192.34 581.2 192.64 581.275ZM203.719 586L200.119 595.3C198.544 599.475 196.894 601.15 194.544 601.775L193.844 600.525C195.694 599.95 196.744 598.85 197.669 597L193.069 586.05L194.769 585.95L197.669 592.9C198.019 593.775 198.369 594.725 198.544 595.275H198.644C198.794 594.725 199.094 593.775 199.419 592.875L202.069 586H203.719ZM212.228 581.15V597H210.628V581.275L212.228 581.15ZM224.29 591.825H216.14C216.29 594.2 218.04 595.725 220.615 595.725C221.99 595.725 223.465 595.3 224.365 594.575L224.44 596.075C223.59 596.725 221.965 597.15 220.54 597.15C216.89 597.15 214.465 594.95 214.465 591.375C214.465 588.075 216.69 585.85 219.69 585.85C222.44 585.85 224.39 587.7 224.39 590.5C224.39 590.9 224.34 591.425 224.29 591.825ZM219.69 587.1C217.715 587.1 216.265 588.525 216.09 590.775H222.815C222.84 590.65 222.84 590.475 222.84 590.3C222.84 588.45 221.59 587.1 219.69 587.1ZM235.187 597H233.662V596C232.737 596.65 231.312 597.15 229.837 597.15C227.362 597.15 226.012 595.975 226.012 593.975C226.012 591.725 227.762 590.65 230.462 590.65C231.587 590.65 232.912 590.925 233.612 591.275V589.875C233.612 588.025 232.562 587.275 230.537 587.275C229.137 587.275 227.837 587.675 227.037 588.175L226.962 586.7C227.862 586.175 229.212 585.85 230.687 585.85C233.537 585.85 235.187 587.025 235.187 589.725V597ZM233.612 594.9V592.375C232.912 592.025 231.762 591.775 230.712 591.775C228.837 591.775 227.637 592.4 227.637 593.95C227.637 595.4 228.712 595.975 230.212 595.975C231.487 595.975 232.887 595.45 233.612 594.9ZM247.589 581.15V597H245.989V596.1C245.039 596.8 243.914 597.15 242.689 597.15C239.789 597.15 237.414 595.1 237.414 591.575C237.414 588.225 239.789 585.85 243.164 585.85C244.189 585.85 245.214 586.025 245.989 586.4V581.275L247.589 581.15ZM245.989 587.8C245.314 587.475 244.264 587.25 243.339 587.25C240.964 587.25 239.064 588.85 239.064 591.55C239.064 594.225 240.739 595.75 242.989 595.75C244.114 595.75 245.114 595.425 245.989 594.75V587.8ZM257.391 586.3L257.166 587.725C256.466 587.425 255.516 587.2 254.391 587.2C252.791 587.2 251.941 587.875 251.941 588.85C251.941 591.1 257.891 590.4 257.891 593.95C257.891 595.7 256.666 597.15 253.616 597.15C252.316 597.15 250.941 596.85 250.116 596.375L250.266 594.95C251.116 595.425 252.441 595.8 253.616 595.8C255.416 595.8 256.241 595.175 256.241 594.025C256.241 591.75 250.291 592.425 250.291 588.925C250.291 587.325 251.691 585.85 254.416 585.85C255.716 585.85 256.666 586 257.391 586.3ZM258.764 600.375C259.764 598.675 260.139 597.15 260.139 595.65C260.139 595.25 260.114 594.75 259.989 594.275H261.564C261.664 594.6 261.689 595.075 261.689 595.45C261.689 597.15 261.114 598.8 260.039 600.375H258.764ZM275.037 581.275L274.962 582.7C274.712 582.625 274.337 582.6 274.012 582.6C272.662 582.6 271.737 583.25 271.737 585.225V586H274.737L274.612 587.4H271.737V597H270.162V587.4H268.562V586H270.162V585.175C270.162 582.45 271.662 581.15 273.887 581.15C274.262 581.15 274.737 581.2 275.037 581.275ZM286.973 591.5C286.973 594.825 284.498 597.15 281.273 597.15C278.073 597.15 275.573 594.825 275.573 591.5C275.573 588.175 278.073 585.85 281.273 585.85C284.498 585.85 286.973 588.175 286.973 591.5ZM285.323 591.5C285.323 589 283.498 587.275 281.273 587.275C278.998 587.275 277.223 589 277.223 591.5C277.223 594 279.048 595.725 281.273 595.725C283.573 595.725 285.323 594 285.323 591.5ZM290.792 581.15V597H289.192V581.275L290.792 581.15ZM295.504 581.15V597H293.904V581.275L295.504 581.15ZM309.141 591.5C309.141 594.825 306.666 597.15 303.441 597.15C300.241 597.15 297.741 594.825 297.741 591.5C297.741 588.175 300.241 585.85 303.441 585.85C306.666 585.85 309.141 588.175 309.141 591.5ZM307.491 591.5C307.491 589 305.666 587.275 303.441 587.275C301.166 587.275 299.391 589 299.391 591.5C299.391 594 301.216 595.725 303.441 595.725C305.741 595.725 307.491 594 307.491 591.5ZM327.186 586L323.486 597H321.811L319.586 590.9C319.236 589.85 318.961 589.075 318.811 588.425H318.686C318.536 589.075 318.261 589.85 317.911 590.9L315.686 597H314.011L310.311 586.05L311.961 585.95L314.311 593.05C314.536 593.775 314.761 594.625 314.911 595.25H315.011C315.136 594.625 315.411 593.775 315.661 593.05L317.936 586.75H319.611L321.886 593.05C322.136 593.775 322.411 594.625 322.536 595.25H322.661C322.786 594.625 323.011 593.775 323.236 593.05L325.561 586H327.186ZM343.635 585.95V597H342.06V595.725C340.71 596.7 339.36 597.15 338.11 597.15C335.735 597.15 334.26 595.95 334.26 593.25V586.05L335.86 585.95V592.875C335.86 594.825 336.81 595.7 338.51 595.7C339.66 595.7 340.935 595.2 342.06 594.4V586.05L343.635 585.95ZM356.935 591.425C356.935 594.75 354.535 597.15 351.235 597.15C350.085 597.15 349.16 597 348.36 596.65V601.625H346.76V586.05L348.36 585.95V586.925C349.285 586.2 350.41 585.85 351.685 585.85C354.61 585.85 356.935 587.875 356.935 591.425ZM355.285 591.45C355.285 588.775 353.61 587.25 351.335 587.25C350.235 587.25 349.185 587.575 348.36 588.25V595.225C349.06 595.55 350.01 595.75 351.01 595.75C353.385 595.75 355.285 594.15 355.285 591.45ZM357.03 600.375C358.03 598.675 358.405 597.15 358.405 595.65C358.405 595.25 358.38 594.75 358.255 594.275H359.83C359.93 594.6 359.955 595.075 359.955 595.45C359.955 597.15 359.38 598.8 358.305 600.375H357.03ZM374.579 586.3L374.354 587.725C373.654 587.425 372.704 587.2 371.579 587.2C369.979 587.2 369.129 587.875 369.129 588.85C369.129 591.1 375.079 590.4 375.079 593.95C375.079 595.7 373.854 597.15 370.804 597.15C369.504 597.15 368.129 596.85 367.304 596.375L367.454 594.95C368.304 595.425 369.629 595.8 370.804 595.8C372.604 595.8 373.429 595.175 373.429 594.025C373.429 591.75 367.479 592.425 367.479 588.925C367.479 587.325 368.879 585.85 371.604 585.85C372.904 585.85 373.854 586 374.579 586.3ZM385.92 586.825L385.52 588.3C384.82 587.725 383.595 587.325 382.545 587.325C380.17 587.325 378.395 589 378.395 591.5C378.395 594 380.145 595.675 382.695 595.675C383.97 595.675 385.245 595.25 386.12 594.525L386.195 596.05C385.345 596.725 383.97 597.15 382.52 597.15C379.295 597.15 376.745 595 376.745 591.5C376.745 588.175 379.27 585.85 382.445 585.85C383.92 585.85 385.145 586.225 385.92 586.825ZM397.911 597H396.336V590.1C396.336 588.175 395.361 587.3 393.611 587.3C392.436 587.3 391.136 587.825 390.011 588.625V597H388.411V581.275L390.011 581.15V587.3C391.361 586.3 392.736 585.85 394.036 585.85C396.461 585.85 397.911 587.05 397.911 589.75V597ZM409.983 591.825H401.833C401.983 594.2 403.733 595.725 406.308 595.725C407.683 595.725 409.158 595.3 410.058 594.575L410.133 596.075C409.283 596.725 407.658 597.15 406.233 597.15C402.583 597.15 400.158 594.95 400.158 591.375C400.158 588.075 402.383 585.85 405.383 585.85C408.133 585.85 410.083 587.7 410.083 590.5C410.083 590.9 410.033 591.425 409.983 591.825ZM405.383 587.1C403.408 587.1 401.958 588.525 401.783 590.775H408.508C408.533 590.65 408.533 590.475 408.533 590.3C408.533 588.45 407.283 587.1 405.383 587.1ZM421.881 581.15V597H420.281V596.1C419.331 596.8 418.206 597.15 416.981 597.15C414.081 597.15 411.706 595.1 411.706 591.575C411.706 588.225 414.081 585.85 417.456 585.85C418.481 585.85 419.506 586.025 420.281 586.4V581.275L421.881 581.15ZM420.281 587.8C419.606 587.475 418.556 587.25 417.631 587.25C415.256 587.25 413.356 588.85 413.356 591.55C413.356 594.225 415.031 595.75 417.281 595.75C418.406 595.75 419.406 595.425 420.281 594.75V587.8ZM434.358 585.95V597H432.783V595.725C431.433 596.7 430.083 597.15 428.833 597.15C426.458 597.15 424.983 595.95 424.983 593.25V586.05L426.583 585.95V592.875C426.583 594.825 427.533 595.7 429.233 595.7C430.383 595.7 431.658 595.2 432.783 594.4V586.05L434.358 585.95ZM439.083 581.15V597H437.483V581.275L439.083 581.15ZM451.145 591.825H442.995C443.145 594.2 444.895 595.725 447.47 595.725C448.845 595.725 450.32 595.3 451.22 594.575L451.295 596.075C450.445 596.725 448.82 597.15 447.395 597.15C443.745 597.15 441.32 594.95 441.32 591.375C441.32 588.075 443.545 585.85 446.545 585.85C449.295 585.85 451.245 587.7 451.245 590.5C451.245 590.9 451.195 591.425 451.145 591.825ZM446.545 587.1C444.57 587.1 443.12 588.525 442.945 590.775H449.67C449.695 590.65 449.695 590.475 449.695 590.3C449.695 588.45 448.445 587.1 446.545 587.1ZM468.048 581.15V597H466.448V596.1C465.498 596.8 464.373 597.15 463.148 597.15C460.248 597.15 457.873 595.1 457.873 591.575C457.873 588.225 460.248 585.85 463.623 585.85C464.648 585.85 465.673 586.025 466.448 586.4V581.275L468.048 581.15ZM466.448 587.8C465.773 587.475 464.723 587.25 463.798 587.25C461.423 587.25 459.523 588.85 459.523 591.55C459.523 594.225 461.198 595.75 463.448 595.75C464.573 595.75 465.573 595.425 466.448 594.75V587.8ZM480.1 591.825H471.95C472.1 594.2 473.85 595.725 476.425 595.725C477.8 595.725 479.275 595.3 480.175 594.575L480.25 596.075C479.4 596.725 477.775 597.15 476.35 597.15C472.7 597.15 470.275 594.95 470.275 591.375C470.275 588.075 472.5 585.85 475.5 585.85C478.25 585.85 480.2 587.7 480.2 590.5C480.2 590.9 480.15 591.425 480.1 591.825ZM475.5 587.1C473.525 587.1 472.075 588.525 471.9 590.775H478.625C478.65 590.65 478.65 590.475 478.65 590.3C478.65 588.45 477.4 587.1 475.5 587.1ZM499.373 597H497.773V590.1C497.773 589.625 497.698 589.225 497.573 588.9C497.248 587.775 496.423 587.3 495.198 587.3C495.023 587.3 494.873 587.325 494.698 587.325C493.748 587.45 492.698 587.9 491.673 588.625C491.773 589 491.823 589.45 491.823 589.9V597H490.223V590.1C490.223 589.625 490.173 589.225 490.023 588.9C489.723 587.775 488.898 587.3 487.673 587.3C486.598 587.3 485.398 587.825 484.298 588.625V597H482.698V586.05L484.298 585.95V587.3C485.523 586.375 486.698 585.925 487.723 585.9C488.298 585.85 488.823 585.925 489.298 586.05C490.223 586.25 490.923 586.725 491.348 587.55C492.848 586.325 494.273 585.85 495.573 585.85C497.898 585.85 499.373 587.05 499.373 589.75V597ZM512.998 591.5C512.998 594.825 510.523 597.15 507.298 597.15C504.098 597.15 501.598 594.825 501.598 591.5C501.598 588.175 504.098 585.85 507.298 585.85C510.523 585.85 512.998 588.175 512.998 591.5ZM511.348 591.5C511.348 589 509.523 587.275 507.298 587.275C505.023 587.275 503.248 589 503.248 591.5C503.248 594 505.073 595.725 507.298 595.725C509.598 595.725 511.348 594 511.348 591.5ZM521.917 586.3L521.692 587.725C520.992 587.425 520.042 587.2 518.917 587.2C517.317 587.2 516.467 587.875 516.467 588.85C516.467 591.1 522.417 590.4 522.417 593.95C522.417 595.7 521.192 597.15 518.142 597.15C516.842 597.15 515.467 596.85 514.642 596.375L514.792 594.95C515.642 595.425 516.967 595.8 518.142 595.8C519.942 595.8 520.767 595.175 520.767 594.025C520.767 591.75 514.817 592.425 514.817 588.925C514.817 587.325 516.217 585.85 518.942 585.85C520.242 585.85 521.192 586 521.917 586.3ZM143.317 623H141.792V622C140.867 622.65 139.442 623.15 137.967 623.15C135.492 623.15 134.142 621.975 134.142 619.975C134.142 617.725 135.892 616.65 138.592 616.65C139.717 616.65 141.042 616.925 141.742 617.275V615.875C141.742 614.025 140.692 613.275 138.667 613.275C137.267 613.275 135.967 613.675 135.167 614.175L135.092 612.7C135.992 612.175 137.342 611.85 138.817 611.85C141.667 611.85 143.317 613.025 143.317 615.725V623ZM141.742 620.9V618.375C141.042 618.025 139.892 617.775 138.842 617.775C136.967 617.775 135.767 618.4 135.767 619.95C135.767 621.4 136.842 621.975 138.342 621.975C139.617 621.975 141.017 621.45 141.742 620.9ZM155.794 611.95V623H154.219V621.725C152.869 622.7 151.519 623.15 150.269 623.15C147.894 623.15 146.419 621.95 146.419 619.25V612.05L148.019 611.95V618.875C148.019 620.825 148.969 621.7 150.669 621.7C151.819 621.7 153.094 621.2 154.219 620.4V612.05L155.794 611.95ZM164.619 612L164.494 613.4H161.044V619.7C161.044 621.125 161.794 621.725 162.994 621.725C163.669 621.725 164.294 621.475 164.719 621.175L164.794 622.575C164.319 622.95 163.544 623.15 162.719 623.15C160.594 623.15 159.444 622.05 159.444 619.9V613.4H157.844V612H159.444V609.525L161.044 609.1V612H164.619ZM177.427 617.5C177.427 620.825 174.952 623.15 171.727 623.15C168.527 623.15 166.027 620.825 166.027 617.5C166.027 614.175 168.527 611.85 171.727 611.85C174.952 611.85 177.427 614.175 177.427 617.5ZM175.777 617.5C175.777 615 173.952 613.275 171.727 613.275C169.452 613.275 167.677 615 167.677 617.5C167.677 620 169.502 621.725 171.727 621.725C174.027 621.725 175.777 620 175.777 617.5ZM196.321 623H194.721V616.1C194.721 615.625 194.646 615.225 194.521 614.9C194.196 613.775 193.371 613.3 192.146 613.3C191.971 613.3 191.821 613.325 191.646 613.325C190.696 613.45 189.646 613.9 188.621 614.625C188.721 615 188.771 615.45 188.771 615.9V623H187.171V616.1C187.171 615.625 187.121 615.225 186.971 614.9C186.671 613.775 185.846 613.3 184.621 613.3C183.546 613.3 182.346 613.825 181.246 614.625V623H179.646V612.05L181.246 611.95V613.3C182.471 612.375 183.646 611.925 184.671 611.9C185.246 611.85 185.771 611.925 186.246 612.05C187.171 612.25 187.871 612.725 188.296 613.55C189.796 612.325 191.221 611.85 192.521 611.85C194.846 611.85 196.321 613.05 196.321 615.75V623ZM207.722 623H206.197V622C205.272 622.65 203.847 623.15 202.372 623.15C199.897 623.15 198.547 621.975 198.547 619.975C198.547 617.725 200.297 616.65 202.997 616.65C204.122 616.65 205.447 616.925 206.147 617.275V615.875C206.147 614.025 205.097 613.275 203.072 613.275C201.672 613.275 200.372 613.675 199.572 614.175L199.497 612.7C200.397 612.175 201.747 611.85 203.222 611.85C206.072 611.85 207.722 613.025 207.722 615.725V623ZM206.147 620.9V618.375C205.447 618.025 204.297 617.775 203.247 617.775C201.372 617.775 200.172 618.4 200.172 619.95C200.172 621.4 201.247 621.975 202.747 621.975C204.022 621.975 205.422 621.45 206.147 620.9ZM216.523 612L216.398 613.4H212.948V619.7C212.948 621.125 213.698 621.725 214.898 621.725C215.573 621.725 216.198 621.475 216.623 621.175L216.698 622.575C216.223 622.95 215.448 623.15 214.623 623.15C212.498 623.15 211.348 622.05 211.348 619.9V613.4H209.748V612H211.348V609.525L212.948 609.1V612H216.523ZM219.631 607.4C220.206 607.4 220.656 607.85 220.656 608.425C220.656 609.025 220.206 609.475 219.631 609.475C219.031 609.475 218.556 609.025 218.556 608.425C218.556 607.85 219.031 607.4 219.631 607.4ZM220.406 611.95V623H218.806V612.05L220.406 611.95ZM231.818 612.825L231.418 614.3C230.718 613.725 229.493 613.325 228.443 613.325C226.068 613.325 224.293 615 224.293 617.5C224.293 620 226.043 621.675 228.593 621.675C229.868 621.675 231.143 621.25 232.018 620.525L232.093 622.05C231.243 622.725 229.868 623.15 228.418 623.15C225.193 623.15 222.643 621 222.643 617.5C222.643 614.175 225.168 611.85 228.343 611.85C229.818 611.85 231.043 612.225 231.818 612.825ZM242.609 623H241.084V622C240.159 622.65 238.734 623.15 237.259 623.15C234.784 623.15 233.434 621.975 233.434 619.975C233.434 617.725 235.184 616.65 237.884 616.65C239.009 616.65 240.334 616.925 241.034 617.275V615.875C241.034 614.025 239.984 613.275 237.959 613.275C236.559 613.275 235.259 613.675 234.459 614.175L234.384 612.7C235.284 612.175 236.634 611.85 238.109 611.85C240.959 611.85 242.609 613.025 242.609 615.725V623ZM241.034 620.9V618.375C240.334 618.025 239.184 617.775 238.134 617.775C236.259 617.775 235.059 618.4 235.059 619.95C235.059 621.4 236.134 621.975 237.634 621.975C238.909 621.975 240.309 621.45 241.034 620.9ZM247.311 607.15V623H245.711V607.275L247.311 607.15ZM252.023 607.15V623H250.423V607.275L252.023 607.15ZM264.534 612L260.934 621.3C259.359 625.475 257.709 627.15 255.359 627.775L254.659 626.525C256.509 625.95 257.559 624.85 258.484 623L253.884 612.05L255.584 611.95L258.484 618.9C258.834 619.775 259.184 620.725 259.359 621.275H259.459C259.609 620.725 259.909 619.775 260.234 618.875L262.884 612H264.534ZM265.258 620.975C265.858 620.975 266.333 621.45 266.333 622.05C266.333 622.675 265.858 623.15 265.258 623.15C264.633 623.15 264.183 622.675 264.183 622.075C264.183 621.45 264.658 620.975 265.258 620.975ZM285.031 621.975C283.756 622.775 282.331 623.125 280.431 623.125C276.056 623.125 273.481 620.125 273.481 616.575C273.481 611.65 276.906 608.025 281.981 608.025C283.856 608.025 285.531 608.45 286.606 609.175L286.231 610.175C285.306 609.475 283.506 609.025 281.981 609.025C277.481 609.025 274.606 612.2 274.606 616.525C274.606 619.8 277.031 622.125 280.506 622.125C282.256 622.125 283.931 621.65 285.181 620.8L285.031 621.975ZM291.214 607.15L288.464 623H287.414L290.139 607.25L291.214 607.15ZM294.934 607.575C295.359 607.575 295.634 607.875 295.634 608.275C295.634 608.775 295.259 609.175 294.759 609.175C294.334 609.175 294.034 608.85 294.034 608.45C294.034 607.95 294.434 607.575 294.934 607.575ZM294.784 611.95L292.859 623H291.809L293.709 612.05L294.784 611.95ZM306.003 617.4L297.228 617.9C297.178 620.55 298.903 622.175 301.428 622.175C303.103 622.175 304.478 621.65 305.503 620.9L305.378 621.95C304.428 622.675 303.028 623.125 301.328 623.125C298.103 623.125 296.128 621 296.128 618.075C296.128 614.325 298.678 611.875 301.753 611.875C304.328 611.875 306.153 613.475 306.153 616.05C306.153 616.45 306.103 616.975 306.003 617.4ZM301.728 612.75C299.478 612.75 297.628 614.4 297.278 617.1L305.053 616.65C305.078 616.5 305.103 616.225 305.103 616C305.103 613.975 303.703 612.75 301.728 612.75ZM316.877 623H315.827L317.002 616.25C317.077 615.85 317.127 615.325 317.127 615.025C317.127 613.55 316.352 612.85 314.702 612.85C313.302 612.85 311.802 613.45 310.202 614.625L308.752 623H307.702L309.602 612.05L310.677 611.95L310.402 613.575C311.927 612.425 313.427 611.875 314.927 611.875C317.027 611.875 318.202 612.85 318.202 614.8C318.202 615.1 318.152 615.65 318.077 616.1L316.877 623ZM322.902 609.45L324.002 609.125L323.502 612H327.252L326.977 612.925H323.352L322.127 619.975C321.852 621.525 322.452 622.175 323.727 622.175C324.452 622.175 325.177 621.925 325.702 621.575L325.577 622.55C325.127 622.9 324.352 623.125 323.577 623.125C321.927 623.125 320.977 622.35 320.977 620.875C320.977 620.625 321.002 620.4 321.052 620.125L322.302 612.925H320.677L320.852 612H322.452L322.902 609.45ZM342.747 617.4L333.972 617.9C333.922 620.55 335.647 622.175 338.172 622.175C339.847 622.175 341.222 621.65 342.247 620.9L342.122 621.95C341.172 622.675 339.772 623.125 338.072 623.125C334.847 623.125 332.872 621 332.872 618.075C332.872 614.325 335.422 611.875 338.497 611.875C341.072 611.875 342.897 613.475 342.897 616.05C342.897 616.45 342.847 616.975 342.747 617.4ZM338.472 612.75C336.222 612.75 334.372 614.4 334.022 617.1L341.797 616.65C341.822 616.5 341.847 616.225 341.847 616C341.847 613.975 340.447 612.75 338.472 612.75ZM354.971 612L349.921 617.4L353.271 623H352.046L349.121 618.075L344.496 623H343.246L348.596 617.275L345.446 612.05L346.621 611.925L349.371 616.6L353.721 612H354.971ZM366.206 612L364.306 623H363.356L363.506 621.775C362.456 622.575 361.181 623.125 359.781 623.125C357.206 623.125 355.406 621.575 355.406 618.475C355.406 614.625 357.781 611.875 361.156 611.875C362.531 611.875 363.931 612.35 364.981 613.2L365.256 612H366.206ZM364.806 614.15C363.981 613.4 362.531 612.8 361.231 612.8C358.556 612.8 356.481 614.95 356.481 618.425C356.481 621.05 357.981 622.2 359.981 622.2C361.331 622.2 362.656 621.525 363.681 620.7L364.806 614.15ZM384.188 623H383.163L384.313 616.25C384.388 615.85 384.438 615.325 384.438 615.025C384.438 613.55 383.663 612.85 382.088 612.85C380.988 612.85 379.338 613.45 377.763 614.625C377.788 615.05 377.713 615.725 377.638 616.175L376.463 623H375.413L376.588 616.25C376.663 615.85 376.688 615.325 376.688 615.025C376.688 613.55 375.888 612.85 374.388 612.85C373.263 612.85 371.763 613.45 370.188 614.625L368.738 623H367.688L369.588 612.05L370.663 611.95L370.363 613.575C371.913 612.425 373.388 611.875 374.638 611.875C376.288 611.875 377.313 612.625 377.638 613.775C379.638 612.325 381.088 611.875 382.288 611.875C384.338 611.875 385.513 612.85 385.513 614.825C385.513 615.125 385.463 615.65 385.388 616.1L384.188 623ZM398.561 616.525C398.561 620.375 396.186 623.125 392.811 623.125C391.261 623.125 389.861 622.65 388.836 621.8L387.811 627.625H386.761L389.461 612.05L390.536 611.95L390.286 613.225C391.336 612.425 392.636 611.875 394.086 611.875C396.761 611.875 398.561 613.425 398.561 616.525ZM397.486 616.575C397.486 613.95 395.986 612.8 393.886 612.8C392.486 612.8 391.136 613.475 390.111 614.3L388.986 620.85C389.811 621.6 391.261 622.2 392.736 622.2C395.386 622.2 397.486 620.05 397.486 616.575ZM403.69 607.15L400.94 623H399.89L402.615 607.25L403.69 607.15ZM414.084 617.4L405.309 617.9C405.259 620.55 406.984 622.175 409.509 622.175C411.184 622.175 412.559 621.65 413.584 620.9L413.459 621.95C412.509 622.675 411.109 623.125 409.409 623.125C406.184 623.125 404.209 621 404.209 618.075C404.209 614.325 406.759 611.875 409.834 611.875C412.409 611.875 414.234 613.475 414.234 616.05C414.234 616.45 414.184 616.975 414.084 617.4ZM409.809 612.75C407.559 612.75 405.709 614.4 405.359 617.1L413.134 616.65C413.159 616.5 413.184 616.225 413.184 616C413.184 613.975 411.784 612.75 409.809 612.75ZM417.88 611.875C418.305 611.875 418.605 612.2 418.605 612.6C418.605 613.125 418.23 613.5 417.705 613.5C417.28 613.5 416.98 613.175 416.98 612.775C416.98 612.25 417.38 611.875 417.88 611.875ZM416.18 621.5C416.605 621.5 416.905 621.825 416.905 622.225C416.905 622.75 416.505 623.125 416.005 623.125C415.58 623.125 415.28 622.8 415.28 622.4C415.28 621.875 415.68 621.5 416.18 621.5ZM436.475 611.675C436.475 613.775 435.05 615.125 433.225 615.425C434.85 615.775 435.9 617.075 435.9 618.75C435.9 621.625 433.775 623 430.025 623H424.625L427.2 608.15H432.125C435.125 608.15 436.475 609.575 436.475 611.675ZM435.375 611.775C435.375 610.125 434.325 609.1 431.775 609.1H428.1L427.075 615.05H430.975C433.85 615.05 435.375 613.8 435.375 611.775ZM434.775 618.725C434.775 617.125 433.8 615.925 430.975 615.925H426.9L425.85 622.05H429.85C432.9 622.05 434.775 621.225 434.775 618.725ZM437.559 618.075C437.559 614.375 440.434 611.875 443.809 611.875C446.859 611.875 448.959 614.025 448.959 616.925C448.959 620.625 446.084 623.125 442.709 623.125C439.659 623.125 437.559 620.975 437.559 618.075ZM438.659 618.05C438.659 620.65 440.409 622.175 442.759 622.175C445.584 622.175 447.859 620.125 447.859 616.95C447.859 614.35 446.084 612.825 443.759 612.825C440.934 612.825 438.659 614.875 438.659 618.05ZM450.206 618.075C450.206 614.375 453.081 611.875 456.456 611.875C459.506 611.875 461.606 614.025 461.606 616.925C461.606 620.625 458.731 623.125 455.356 623.125C452.306 623.125 450.206 620.975 450.206 618.075ZM451.306 618.05C451.306 620.65 453.056 622.175 455.406 622.175C458.231 622.175 460.506 620.125 460.506 616.95C460.506 614.35 458.731 612.825 456.406 612.825C453.581 612.825 451.306 614.875 451.306 618.05ZM473.627 612.025L467.727 617.025L472.152 623H470.902L466.927 617.725L464.527 619.75L463.977 623H462.927L465.652 607.25L466.727 607.15L464.752 618.5H464.827C465.302 618.025 465.877 617.475 466.502 616.9L472.277 611.975L473.627 612.025ZM482.009 612.25L481.809 613.25C481.159 613 480.184 612.8 479.234 612.8C477.059 612.8 476.059 613.725 476.059 614.975C476.059 617.25 481.359 616.875 481.359 619.95C481.359 621.6 480.159 623.125 476.834 623.125C475.659 623.125 474.359 622.875 473.634 622.475L473.809 621.45C474.584 621.875 475.809 622.2 476.859 622.2C479.259 622.2 480.259 621.35 480.259 619.975C480.259 617.725 474.959 618.1 474.959 615.025C474.959 613.475 476.184 611.875 479.259 611.875C480.334 611.875 481.309 612 482.009 612.25ZM498.79 619.35C498.79 621.7 496.79 623.125 493.565 623.125C490.215 623.125 488.79 621.7 488.79 619.775C488.79 617.825 490.39 616.525 493.515 615.375C491.99 614.525 490.615 613.525 490.615 611.65C490.615 609.4 492.64 608.025 495.465 608.025C498.115 608.025 499.79 609.2 499.79 611.25C499.79 612.925 498.34 614.25 495.715 615.4C497.315 616.3 498.79 617.325 498.79 619.35ZM491.74 611.65C491.74 613.275 493.215 614.1 494.84 614.95C497.215 613.9 498.69 612.9 498.69 611.375C498.69 609.85 497.565 608.975 495.44 608.975C493.19 608.975 491.74 609.925 491.74 611.65ZM489.915 619.65C489.915 621.2 491.065 622.175 493.59 622.175C496.165 622.175 497.69 621.175 497.69 619.375C497.69 617.575 496.065 616.725 494.39 615.85C491.44 616.95 489.915 617.925 489.915 619.65ZM511.688 614.9C511.688 615.55 511.613 616.25 511.488 617C510.763 621.075 508.813 623.125 505.763 623.125C502.938 623.125 501.413 621.5 501.413 618.475C501.413 617.825 501.488 617.1 501.638 616.325C502.363 612.275 504.313 610.25 507.338 610.25C510.163 610.25 511.688 611.875 511.688 614.9ZM510.588 614.9C510.588 612.475 509.488 611.175 507.313 611.175C504.763 611.175 503.338 612.925 502.713 616.5C502.563 617.225 502.513 617.875 502.513 618.475C502.513 620.9 503.613 622.2 505.788 622.2C508.338 622.2 509.763 620.45 510.388 616.875C510.513 616.175 510.588 615.5 510.588 614.9ZM524.244 616.175L524.069 617.125H519.594L518.719 622.025H517.694L518.544 617.125H514.069L514.244 616.175H518.719L519.594 611.275H520.619L519.769 616.175H524.244ZM166.82 638L164.12 653.625H163.095L164.095 647.775C163.07 648.575 161.77 649.125 160.32 649.125C157.645 649.125 155.845 647.575 155.845 644.475C155.845 640.625 158.22 637.875 161.595 637.875C163.145 637.875 164.545 638.375 165.595 639.2L165.845 638H166.82ZM165.395 640.15C164.595 639.4 163.145 638.8 161.645 638.8C158.995 638.8 156.92 640.95 156.92 644.425C156.92 647.05 158.42 648.2 160.52 648.2C161.92 648.2 163.27 647.55 164.27 646.7L165.395 640.15ZM179.323 637.95L177.373 649H176.373L176.623 647.4C175.098 648.575 173.623 649.125 172.173 649.125C170.073 649.125 168.898 648.15 168.898 646.2C168.898 645.9 168.948 645.35 169.023 644.9L170.198 638.05L171.273 637.95L170.098 644.75C170.023 645.15 169.998 645.675 169.998 645.975C169.998 647.45 170.773 648.15 172.398 648.15C173.723 648.15 175.198 647.55 176.798 646.375L178.248 638.05L179.323 637.95ZM191.45 638L189.55 649H188.6L188.75 647.775C187.7 648.575 186.425 649.125 185.025 649.125C182.45 649.125 180.65 647.575 180.65 644.475C180.65 640.625 183.025 637.875 186.4 637.875C187.775 637.875 189.175 638.35 190.225 639.2L190.5 638H191.45ZM190.05 640.15C189.225 639.4 187.775 638.8 186.475 638.8C183.8 638.8 181.725 640.95 181.725 644.425C181.725 647.05 183.225 648.2 185.225 648.2C186.575 648.2 187.9 647.525 188.925 646.7L190.05 640.15ZM196.732 633.15L193.982 649H192.932L195.657 633.25L196.732 633.15ZM200.451 633.575C200.876 633.575 201.151 633.875 201.151 634.275C201.151 634.775 200.776 635.175 200.276 635.175C199.851 635.175 199.551 634.85 199.551 634.45C199.551 633.95 199.951 633.575 200.451 633.575ZM200.301 637.95L198.376 649H197.326L199.226 638.05L200.301 637.95ZM210.621 637.95L208.696 649H207.646L209.371 638.925H204.646L202.896 649H201.846L203.596 638.925H201.971L202.146 638H203.746L203.921 636.95C204.421 634.15 206.021 633.15 207.946 633.15C208.321 633.15 208.746 633.175 209.021 633.25L208.796 634.225C208.546 634.15 208.221 634.125 207.896 634.125C206.521 634.125 205.346 634.75 204.946 637.075L204.796 638H210.071L210.621 637.95ZM210.746 633.575C211.171 633.575 211.471 633.875 211.471 634.275C211.471 634.775 211.071 635.175 210.571 635.175C210.146 635.175 209.846 634.85 209.846 634.45C209.846 633.95 210.246 633.575 210.746 633.575ZM221.848 643.4L213.073 643.9C213.023 646.55 214.748 648.175 217.273 648.175C218.948 648.175 220.323 647.65 221.348 646.9L221.223 647.95C220.273 648.675 218.873 649.125 217.173 649.125C213.948 649.125 211.973 647 211.973 644.075C211.973 640.325 214.523 637.875 217.598 637.875C220.173 637.875 221.998 639.475 221.998 642.05C221.998 642.45 221.948 642.975 221.848 643.4ZM217.573 638.75C215.323 638.75 213.473 640.4 213.123 643.1L220.898 642.65C220.923 642.5 220.948 642.225 220.948 642C220.948 639.975 219.548 638.75 217.573 638.75ZM235.297 633.15L232.547 649H231.597L231.747 647.75C230.697 648.575 229.397 649.125 227.947 649.125C225.272 649.125 223.472 647.575 223.472 644.475C223.472 640.625 225.847 637.875 229.222 637.875C230.747 637.875 232.172 638.35 233.197 639.2L234.247 633.25L235.297 633.15ZM233.022 640.15C232.222 639.4 230.772 638.8 229.272 638.8C226.622 638.8 224.547 640.95 224.547 644.425C224.547 647.05 226.047 648.2 228.147 648.2C229.547 648.2 230.897 647.55 231.897 646.7L233.022 640.15ZM248.83 638.25L248.63 639.25C247.98 639 247.005 638.8 246.055 638.8C243.88 638.8 242.88 639.725 242.88 640.975C242.88 643.25 248.18 642.875 248.18 645.95C248.18 647.6 246.98 649.125 243.655 649.125C242.48 649.125 241.18 648.875 240.455 648.475L240.63 647.45C241.405 647.875 242.63 648.2 243.68 648.2C246.08 648.2 247.08 647.35 247.08 645.975C247.08 643.725 241.78 644.1 241.78 641.025C241.78 639.475 243.005 637.875 246.08 637.875C247.155 637.875 248.13 638 248.83 638.25ZM260.957 638L259.057 649H258.107L258.257 647.775C257.207 648.575 255.932 649.125 254.532 649.125C251.957 649.125 250.157 647.575 250.157 644.475C250.157 640.625 252.532 637.875 255.907 637.875C257.282 637.875 258.682 638.35 259.732 639.2L260.007 638H260.957ZM259.557 640.15C258.732 639.4 257.282 638.8 255.982 638.8C253.307 638.8 251.232 640.95 251.232 644.425C251.232 647.05 252.732 648.2 254.732 648.2C256.082 648.2 257.407 647.525 258.432 646.7L259.557 640.15ZM266.239 633.15L263.489 649H262.439L265.164 633.25L266.239 633.15ZM276.633 643.4L267.858 643.9C267.808 646.55 269.533 648.175 272.058 648.175C273.733 648.175 275.108 647.65 276.133 646.9L276.008 647.95C275.058 648.675 273.658 649.125 271.958 649.125C268.733 649.125 266.758 647 266.758 644.075C266.758 640.325 269.308 637.875 272.383 637.875C274.958 637.875 276.783 639.475 276.783 642.05C276.783 642.45 276.733 642.975 276.633 643.4ZM272.358 638.75C270.108 638.75 268.258 640.4 267.908 643.1L275.683 642.65C275.708 642.5 275.733 642.225 275.733 642C275.733 639.975 274.333 638.75 272.358 638.75ZM286.232 638.25L286.032 639.25C285.382 639 284.407 638.8 283.457 638.8C281.282 638.8 280.282 639.725 280.282 640.975C280.282 643.25 285.582 642.875 285.582 645.95C285.582 647.6 284.382 649.125 281.057 649.125C279.882 649.125 278.582 648.875 277.857 648.475L278.032 647.45C278.807 647.875 280.032 648.2 281.082 648.2C283.482 648.2 284.482 647.35 284.482 645.975C284.482 643.725 279.182 644.1 279.182 641.025C279.182 639.475 280.407 637.875 283.482 637.875C284.557 637.875 285.532 638 286.232 638.25ZM302.089 638.8L301.739 639.8C301.014 639.275 299.864 638.85 298.664 638.85C295.839 638.85 293.664 640.85 293.664 644.05C293.664 646.625 295.314 648.15 297.664 648.15C298.989 648.15 300.464 647.625 301.364 646.875L301.339 647.95C300.464 648.65 299.014 649.125 297.589 649.125C294.539 649.125 292.564 646.975 292.564 644.075C292.564 640.375 295.289 637.875 298.664 637.875C300.089 637.875 301.264 638.225 302.089 638.8ZM313.838 638L311.938 649H310.988L311.138 647.775C310.088 648.575 308.813 649.125 307.413 649.125C304.838 649.125 303.038 647.575 303.038 644.475C303.038 640.625 305.413 637.875 308.788 637.875C310.163 637.875 311.563 638.35 312.613 639.2L312.888 638H313.838ZM312.438 640.15C311.613 639.4 310.163 638.8 308.863 638.8C306.188 638.8 304.113 640.95 304.113 644.425C304.113 647.05 305.613 648.2 307.613 648.2C308.963 648.2 310.288 647.525 311.313 646.7L312.438 640.15ZM319.12 633.15L316.37 649H315.32L318.045 633.25L319.12 633.15ZM323.514 633.15L320.764 649H319.714L322.439 633.25L323.514 633.15ZM332.009 638.25L331.809 639.25C331.159 639 330.184 638.8 329.234 638.8C327.059 638.8 326.059 639.725 326.059 640.975C326.059 643.25 331.359 642.875 331.359 645.95C331.359 647.6 330.159 649.125 326.834 649.125C325.659 649.125 324.359 648.875 323.634 648.475L323.809 647.45C324.584 647.875 325.809 648.2 326.859 648.2C329.259 648.2 330.259 647.35 330.259 645.975C330.259 643.725 324.959 644.1 324.959 641.025C324.959 639.475 326.184 637.875 329.259 637.875C330.334 637.875 331.309 638 332.009 638.25ZM354.915 649H353.89L355.04 642.25C355.115 641.85 355.165 641.325 355.165 641.025C355.165 639.55 354.39 638.85 352.815 638.85C351.715 638.85 350.065 639.45 348.49 640.625C348.515 641.05 348.44 641.725 348.365 642.175L347.19 649H346.14L347.315 642.25C347.39 641.85 347.415 641.325 347.415 641.025C347.415 639.55 346.615 638.85 345.115 638.85C343.99 638.85 342.49 639.45 340.915 640.625L339.465 649H338.415L340.315 638.05L341.39 637.95L341.09 639.575C342.64 638.425 344.115 637.875 345.365 637.875C347.015 637.875 348.04 638.625 348.365 639.775C350.365 638.325 351.815 637.875 353.015 637.875C355.065 637.875 356.24 638.85 356.24 640.825C356.24 641.125 356.19 641.65 356.115 642.1L354.915 649ZM358.213 644.075C358.213 640.375 361.088 637.875 364.463 637.875C367.513 637.875 369.613 640.025 369.613 642.925C369.613 646.625 366.738 649.125 363.363 649.125C360.313 649.125 358.213 646.975 358.213 644.075ZM359.313 644.05C359.313 646.65 361.063 648.175 363.413 648.175C366.238 648.175 368.513 646.125 368.513 642.95C368.513 640.35 366.738 638.825 364.413 638.825C361.588 638.825 359.313 640.875 359.313 644.05ZM380.11 649H379.06L380.235 642.25C380.31 641.85 380.36 641.325 380.36 641.025C380.36 639.55 379.585 638.85 377.935 638.85C376.535 638.85 375.035 639.45 373.435 640.625L371.985 649H370.935L372.835 638.05L373.91 637.95L373.635 639.575C375.16 638.425 376.66 637.875 378.16 637.875C380.26 637.875 381.435 638.85 381.435 640.8C381.435 641.1 381.385 641.65 381.31 642.1L380.11 649ZM386.134 635.45L387.234 635.125L386.734 638H390.484L390.209 638.925H386.584L385.359 645.975C385.084 647.525 385.684 648.175 386.959 648.175C387.684 648.175 388.409 647.925 388.934 647.575L388.809 648.55C388.359 648.9 387.584 649.125 386.809 649.125C385.159 649.125 384.209 648.35 384.209 646.875C384.209 646.625 384.234 646.4 384.284 646.125L385.534 638.925H383.909L384.084 638H385.684L386.134 635.45ZM400.474 649H399.424L400.674 642.025C400.724 641.675 400.749 641.325 400.749 641.05C400.749 639.55 399.874 638.85 398.249 638.85C396.849 638.85 395.274 639.45 393.674 640.6L392.224 649H391.174L393.899 633.25L394.974 633.15L393.874 639.575C395.399 638.425 396.949 637.875 398.474 637.875C400.624 637.875 401.824 638.925 401.824 640.825C401.824 641.125 401.799 641.45 401.749 641.8L400.474 649ZM407.621 633.15L404.871 649H403.821L406.546 633.25L407.621 633.15ZM419.065 638L413.24 648.05C411.14 651.675 409.64 653.075 407.265 653.75L406.84 652.875C408.89 652.225 410.065 651.175 411.565 648.975L408.815 638.05L409.865 637.95L411.79 645.65C411.965 646.4 412.215 647.4 412.265 647.8H412.365C412.615 647.3 413.065 646.4 413.49 645.65L417.89 638H419.065ZM441.581 638L435.781 649H434.706L433.381 642.1C433.206 641.2 433.056 640.325 433.031 639.925H432.906C432.756 640.325 432.281 641.2 431.806 642.1L428.081 649H426.981L425.056 638.05L426.106 637.95L427.381 645.7C427.506 646.425 427.631 647.225 427.681 647.8H427.806C428.031 647.225 428.406 646.425 428.806 645.7L432.606 638.725H433.681L435.006 645.7C435.131 646.425 435.256 647.225 435.331 647.8H435.431C435.681 647.225 436.031 646.45 436.406 645.7L440.406 638H441.581ZM445.056 633.575C445.481 633.575 445.756 633.875 445.756 634.275C445.756 634.775 445.381 635.175 444.881 635.175C444.456 635.175 444.156 634.85 444.156 634.45C444.156 633.95 444.556 633.575 445.056 633.575ZM444.906 637.95L442.981 649H441.931L443.831 638.05L444.906 637.95ZM449 635.45L450.1 635.125L449.6 638H453.35L453.075 638.925H449.45L448.225 645.975C447.95 647.525 448.55 648.175 449.825 648.175C450.55 648.175 451.275 647.925 451.8 647.575L451.675 648.55C451.225 648.9 450.45 649.125 449.675 649.125C448.025 649.125 447.075 648.35 447.075 646.875C447.075 646.625 447.1 646.4 447.15 646.125L448.4 638.925H446.775L446.95 638H448.55L449 635.45ZM463.34 649H462.29L463.54 642.025C463.59 641.675 463.615 641.325 463.615 641.05C463.615 639.55 462.74 638.85 461.115 638.85C459.715 638.85 458.14 639.45 456.54 640.6L455.09 649H454.04L456.765 633.25L457.84 633.15L456.74 639.575C458.265 638.425 459.815 637.875 461.34 637.875C463.49 637.875 464.69 638.925 464.69 640.825C464.69 641.125 464.665 641.45 464.615 641.8L463.34 649ZM466.612 644.075C466.612 640.375 469.487 637.875 472.862 637.875C475.912 637.875 478.012 640.025 478.012 642.925C478.012 646.625 475.137 649.125 471.762 649.125C468.712 649.125 466.612 646.975 466.612 644.075ZM467.712 644.05C467.712 646.65 469.462 648.175 471.812 648.175C474.637 648.175 476.912 646.125 476.912 642.95C476.912 640.35 475.137 638.825 472.812 638.825C469.987 638.825 467.712 640.875 467.712 644.05ZM490.358 637.95L488.408 649H487.408L487.658 647.4C486.133 648.575 484.658 649.125 483.208 649.125C481.108 649.125 479.933 648.15 479.933 646.2C479.933 645.9 479.983 645.35 480.058 644.9L481.233 638.05L482.308 637.95L481.133 644.75C481.058 645.15 481.033 645.675 481.033 645.975C481.033 647.45 481.808 648.15 483.433 648.15C484.758 648.15 486.233 647.55 487.833 646.375L489.283 638.05L490.358 637.95ZM494.435 635.45L495.535 635.125L495.035 638H498.785L498.51 638.925H494.885L493.66 645.975C493.385 647.525 493.985 648.175 495.26 648.175C495.985 648.175 496.71 647.925 497.235 647.575L497.11 648.55C496.66 648.9 495.885 649.125 495.11 649.125C493.46 649.125 492.51 648.35 492.51 646.875C492.51 646.625 492.535 646.4 492.585 646.125L493.835 638.925H492.21L492.385 638H493.985L494.435 635.45ZM275.682 675H274.632L275.882 668.025C275.932 667.675 275.957 667.325 275.957 667.05C275.957 665.55 275.082 664.85 273.457 664.85C272.057 664.85 270.482 665.45 268.882 666.6L267.432 675H266.382L269.107 659.25L270.182 659.15L269.082 665.575C270.607 664.425 272.157 663.875 273.682 663.875C275.832 663.875 277.032 664.925 277.032 666.825C277.032 667.125 277.007 667.45 276.957 667.8L275.682 675ZM290.053 663.95L288.103 675H287.103L287.353 673.4C285.828 674.575 284.353 675.125 282.903 675.125C280.803 675.125 279.628 674.15 279.628 672.2C279.628 671.9 279.678 671.35 279.753 670.9L280.928 664.05L282.003 663.95L280.828 670.75C280.753 671.15 280.728 671.675 280.728 671.975C280.728 673.45 281.503 674.15 283.128 674.15C284.453 674.15 285.928 673.55 287.528 672.375L288.978 664.05L290.053 663.95ZM307.955 675H306.93L308.08 668.25C308.155 667.85 308.205 667.325 308.205 667.025C308.205 665.55 307.43 664.85 305.855 664.85C304.755 664.85 303.105 665.45 301.53 666.625C301.555 667.05 301.48 667.725 301.405 668.175L300.23 675H299.18L300.355 668.25C300.43 667.85 300.455 667.325 300.455 667.025C300.455 665.55 299.655 664.85 298.155 664.85C297.03 664.85 295.53 665.45 293.955 666.625L292.505 675H291.455L293.355 664.05L294.43 663.95L294.13 665.575C295.68 664.425 297.155 663.875 298.405 663.875C300.055 663.875 301.08 664.625 301.405 665.775C303.405 664.325 304.855 663.875 306.055 663.875C308.105 663.875 309.28 664.85 309.28 666.825C309.28 667.125 309.23 667.65 309.155 668.1L307.955 675ZM322.053 664L320.153 675H319.203L319.353 673.775C318.303 674.575 317.028 675.125 315.628 675.125C313.053 675.125 311.253 673.575 311.253 670.475C311.253 666.625 313.628 663.875 317.003 663.875C318.378 663.875 319.778 664.35 320.828 665.2L321.103 664H322.053ZM320.653 666.15C319.828 665.4 318.378 664.8 317.078 664.8C314.403 664.8 312.328 666.95 312.328 670.425C312.328 673.05 313.828 674.2 315.828 674.2C317.178 674.2 318.503 673.525 319.528 672.7L320.653 666.15ZM332.71 675H331.66L332.835 668.25C332.91 667.85 332.96 667.325 332.96 667.025C332.96 665.55 332.185 664.85 330.535 664.85C329.135 664.85 327.635 665.45 326.035 666.625L324.585 675H323.535L325.435 664.05L326.51 663.95L326.235 665.575C327.76 664.425 329.26 663.875 330.76 663.875C332.86 663.875 334.035 664.85 334.035 666.8C334.035 667.1 333.985 667.65 333.91 668.1L332.71 675ZM344.189 659.575C344.614 659.575 344.889 659.875 344.889 660.275C344.889 660.775 344.514 661.175 344.014 661.175C343.589 661.175 343.289 660.85 343.289 660.45C343.289 659.95 343.689 659.575 344.189 659.575ZM344.039 663.95L342.114 675H341.064L342.964 664.05L344.039 663.95ZM354.634 675H353.584L354.759 668.25C354.834 667.85 354.884 667.325 354.884 667.025C354.884 665.55 354.109 664.85 352.459 664.85C351.059 664.85 349.559 665.45 347.959 666.625L346.509 675H345.459L347.359 664.05L348.434 663.95L348.159 665.575C349.684 664.425 351.184 663.875 352.684 663.875C354.784 663.875 355.959 664.85 355.959 666.8C355.959 667.1 355.909 667.65 355.834 668.1L354.634 675ZM368.983 668.525C368.983 672.375 366.608 675.125 363.233 675.125C361.683 675.125 360.283 674.65 359.258 673.8L358.233 679.625H357.183L359.883 664.05L360.958 663.95L360.708 665.225C361.758 664.425 363.058 663.875 364.508 663.875C367.183 663.875 368.983 665.425 368.983 668.525ZM367.908 668.575C367.908 665.95 366.408 664.8 364.308 664.8C362.908 664.8 361.558 665.475 360.533 666.3L359.408 672.85C360.233 673.6 361.683 674.2 363.158 674.2C365.808 674.2 367.908 672.05 367.908 668.575ZM381.337 663.95L379.387 675H378.387L378.637 673.4C377.112 674.575 375.637 675.125 374.187 675.125C372.087 675.125 370.912 674.15 370.912 672.2C370.912 671.9 370.962 671.35 371.037 670.9L372.212 664.05L373.287 663.95L372.112 670.75C372.037 671.15 372.012 671.675 372.012 671.975C372.012 673.45 372.787 674.15 374.412 674.15C375.737 674.15 377.212 673.55 378.812 672.375L380.262 664.05L381.337 663.95ZM385.414 661.45L386.514 661.125L386.014 664H389.764L389.489 664.925H385.864L384.639 671.975C384.364 673.525 384.964 674.175 386.239 674.175C386.964 674.175 387.689 673.925 388.214 673.575L388.089 674.55C387.639 674.9 386.864 675.125 386.089 675.125C384.439 675.125 383.489 674.35 383.489 672.875C383.489 672.625 383.514 672.4 383.564 672.125L384.814 664.925H383.189L383.364 664H384.964L385.414 661.45ZM391.314 673.5C391.739 673.5 392.039 673.825 392.039 674.225C392.039 674.75 391.639 675.125 391.139 675.125C390.714 675.125 390.414 674.8 390.414 674.4C390.414 673.875 390.814 673.5 391.314 673.5Z" fill="white"/>
<path d="M415.25 296.125H429.625V353.625H415.25V296.125ZM386.5 267.375H400.875V353.625H386.5V267.375ZM357.75 324.875H372.125V353.625H357.75V324.875ZM278.688 253C268.737 253 259.009 255.951 250.735 261.479C242.462 267.008 236.013 274.865 232.205 284.059C228.397 293.252 227.4 303.368 229.342 313.128C231.283 322.888 236.075 331.852 243.111 338.889C250.148 345.925 259.112 350.717 268.872 352.658C278.632 354.6 288.748 353.603 297.941 349.795C307.135 345.987 314.992 339.538 320.521 331.265C326.049 322.991 329 313.263 329 303.312C328.985 289.973 323.68 277.185 314.247 267.753C304.815 258.32 292.027 253.015 278.688 253ZM313.898 296.125H285.875V268.102C292.773 269.524 299.104 272.936 304.084 277.916C309.064 282.896 312.476 289.227 313.898 296.125ZM278.688 339.25C269.782 339.249 261.194 335.942 254.589 329.97C247.983 323.997 243.83 315.785 242.935 306.925C242.04 298.064 244.466 289.187 249.744 282.014C255.022 274.841 262.775 269.883 271.5 268.102V296.125C271.5 299.937 273.015 303.594 275.71 306.29C278.406 308.985 282.063 310.5 285.875 310.5H313.898C312.232 318.611 307.819 325.899 301.405 331.136C294.991 336.373 286.968 339.239 278.688 339.25ZM375.972 224.25L404.722 181.125H429.625V166.75H397.028L368.278 209.875H343.375V152.375H329V238.625C329 242.437 330.515 246.094 333.21 248.79C335.906 251.485 339.563 253 343.375 253H429.625V238.625H343.375V224.25H375.972Z" fill="url(#paint1_linear_204_1427)"/>
<path d="M293.062 195.5C297.032 195.5 300.25 192.282 300.25 188.312C300.25 184.343 297.032 181.125 293.062 181.125C289.093 181.125 285.875 184.343 285.875 188.312C285.875 192.282 289.093 195.5 293.062 195.5Z" fill="url(#paint2_linear_204_1427)"/>
<path d="M278.688 224.25C282.657 224.25 285.875 221.032 285.875 217.062C285.875 213.093 282.657 209.875 278.688 209.875C274.718 209.875 271.5 213.093 271.5 217.062C271.5 221.032 274.718 224.25 278.688 224.25Z" fill="url(#paint3_linear_204_1427)"/>
<path d="M264.312 181.125C268.282 181.125 271.5 177.907 271.5 173.938C271.5 169.968 268.282 166.75 264.312 166.75C260.343 166.75 257.125 169.968 257.125 173.938C257.125 177.907 260.343 181.125 264.312 181.125Z" fill="url(#paint4_linear_204_1427)"/>
<path d="M249.938 209.875C253.907 209.875 257.125 206.657 257.125 202.688C257.125 198.718 253.907 195.5 249.938 195.5C245.968 195.5 242.75 198.718 242.75 202.688C242.75 206.657 245.968 209.875 249.938 209.875Z" fill="url(#paint5_linear_204_1427)"/>
<path d="M235.562 238.625C239.532 238.625 242.75 235.407 242.75 231.438C242.75 227.468 239.532 224.25 235.562 224.25C231.593 224.25 228.375 227.468 228.375 231.438C228.375 235.407 231.593 238.625 235.562 238.625Z" fill="url(#paint6_linear_204_1427)"/>
<defs>
<radialGradient id="paint0_radial_204_1427" cx="0" cy="0" r="1" gradientTransform="matrix(144 423.85 -380.023 193.746 330 399.35)" gradientUnits="userSpaceOnUse">
<stop stop-color="#00277C" stop-opacity="0.8"/>
<stop offset="1" stop-color="#000F30"/>
</radialGradient>
<linearGradient id="paint1_linear_204_1427" x1="329" y1="152.375" x2="329" y2="353.625" gradientUnits="userSpaceOnUse">
<stop stop-color="white"/>
<stop offset="1" stop-color="#989898"/>
</linearGradient>
<linearGradient id="paint2_linear_204_1427" x1="293.062" y1="181.125" x2="293.062" y2="195.5" gradientUnits="userSpaceOnUse">
<stop stop-color="white"/>
<stop offset="1" stop-color="#989898"/>
</linearGradient>
<linearGradient id="paint3_linear_204_1427" x1="278.688" y1="209.875" x2="278.688" y2="224.25" gradientUnits="userSpaceOnUse">
<stop stop-color="white"/>
<stop offset="1" stop-color="#989898"/>
</linearGradient>
<linearGradient id="paint4_linear_204_1427" x1="264.312" y1="166.75" x2="264.312" y2="181.125" gradientUnits="userSpaceOnUse">
<stop stop-color="white"/>
<stop offset="1" stop-color="#989898"/>
</linearGradient>
<linearGradient id="paint5_linear_204_1427" x1="249.938" y1="195.5" x2="249.938" y2="209.875" gradientUnits="userSpaceOnUse">
<stop stop-color="white"/>
<stop offset="1" stop-color="#989898"/>
</linearGradient>
<linearGradient id="paint6_linear_204_1427" x1="235.562" y1="224.25" x2="235.562" y2="238.625" gradientUnits="userSpaceOnUse">
<stop stop-color="white"/>
<stop offset="1" stop-color="#989898"/>
</linearGradient>
</defs>
</svg>
