<svg width="59" height="58" viewBox="0 0 59 58" fill="none" xmlns="http://www.w3.org/2000/svg">
<g clip-path="url(#clip0_204_220)">
<path d="M46.4167 7.25H12.5833C9.925 7.25 7.75 9.425 7.75 12.0833V45.9167C7.75 48.575 9.925 50.75 12.5833 50.75H46.4167C49.075 50.75 51.25 48.575 51.25 45.9167V12.0833C51.25 9.425 49.075 7.25 46.4167 7.25ZM22.25 41.0833H17.4167V29H22.25V41.0833ZM31.9167 41.0833H27.0833V33.8333H31.9167V41.0833ZM31.9167 29H27.0833V24.1667H31.9167V29ZM41.5833 41.0833H36.75V16.9167H41.5833V41.0833Z" fill="url(#paint0_linear_204_220)"/>
</g>
<defs>
<linearGradient id="paint0_linear_204_220" x1="29.5" y1="7.25" x2="29.5" y2="50.75" gradientUnits="userSpaceOnUse">
<stop stop-color="#004AE9"/>
<stop offset="1" stop-color="#989898"/>
</linearGradient>
<clipPath id="clip0_204_220">
<rect width="58" height="58" fill="white" transform="translate(0.5)"/>
</clipPath>
</defs>
</svg>
