<svg width="55" height="55" viewBox="0 0 55 55" fill="none" xmlns="http://www.w3.org/2000/svg">
<g clip-path="url(#clip0_204_184)">
<path d="M45.8333 16.0417H36.6666V11.4583C36.6666 10.1979 36.1625 9.05208 35.3146 8.22708C34.4896 7.37917 33.3437 6.875 32.0833 6.875H22.9166C20.3958 6.875 18.3333 8.9375 18.3333 11.4583V16.0417H9.16665C6.64581 16.0417 4.58331 18.1042 4.58331 20.625V45.8333C4.58331 48.3542 6.64581 50.4167 9.16665 50.4167H45.8333C48.3542 50.4167 50.4167 48.3542 50.4167 45.8333V20.625C50.4167 18.1042 48.3542 16.0417 45.8333 16.0417ZM22.9166 11.4583H32.0833V16.0417H22.9166V11.4583ZM24.0625 41.25C23.4208 40.6083 23.4208 39.6 24.0625 38.9583L29.7916 33.2292L24.0625 27.5C23.4208 26.8583 23.4208 25.85 24.0625 25.2083C24.7041 24.5667 25.7125 24.5667 26.3541 25.2083L33.5729 32.4271C34.0312 32.8854 34.0312 33.5958 33.5729 34.0542L26.3541 41.25C25.7125 41.8917 24.7041 41.8917 24.0625 41.25Z" fill="url(#paint0_linear_204_184)"/>
</g>
<defs>
<linearGradient id="paint0_linear_204_184" x1="27.5" y1="6.875" x2="27.5" y2="50.4167" gradientUnits="userSpaceOnUse">
<stop stop-color="#004AE9"/>
<stop offset="1" stop-color="#989898"/>
</linearGradient>
<clipPath id="clip0_204_184">
<rect width="55" height="55" fill="white"/>
</clipPath>
</defs>
</svg>
