<svg width="62" height="61" viewBox="0 0 62 61" fill="none" xmlns="http://www.w3.org/2000/svg">
<g clip-path="url(#clip0_204_210)">
<path d="M36.5154 34.8464L40.0737 28.6956C40.3025 28.3143 40.2008 27.8314 39.8704 27.5518L36.1087 24.6035C36.185 24.0443 36.2358 23.4597 36.2358 22.8752C36.2358 22.2906 36.185 21.706 36.1087 21.1214L39.8704 18.1731C40.2008 17.8935 40.3025 17.4106 40.0737 17.0293L36.5154 10.8785C36.2867 10.4972 35.8292 10.3447 35.4225 10.4972L31 12.2764C30.085 11.5647 29.0937 10.9802 28.0008 10.5227L27.34 5.82058C27.2637 5.41391 26.8825 5.0835 26.4504 5.0835H19.3337C18.9017 5.0835 18.5204 5.41391 18.4442 5.846L17.7833 10.5481C16.7158 11.0056 15.6992 11.5902 14.7842 12.3018L10.3617 10.5227C9.95499 10.3702 9.49749 10.5227 9.26874 10.9039L5.7104 17.0547C5.48165 17.436 5.58332 17.9189 5.91374 18.1985L9.6754 21.1468C9.59915 21.706 9.54832 22.2906 9.54832 22.8752C9.54832 23.4597 9.59915 24.0443 9.6754 24.6289L5.91374 27.5772C5.58332 27.8568 5.48165 28.3397 5.7104 28.721L9.26874 34.8718C9.49749 35.2531 9.95499 35.4056 10.3617 35.2531L14.7842 33.4739C15.6992 34.1856 16.6904 34.7702 17.7833 35.2277L18.4442 39.9297C18.5204 40.3364 18.9017 40.6668 19.3337 40.6668H26.4504C26.8825 40.6668 27.2637 40.3364 27.34 39.9043L28.0008 35.2022C29.0683 34.7447 30.085 34.1602 31 33.4485L35.4225 35.2277C35.8292 35.3802 36.2867 35.2277 36.5154 34.8464ZM22.8921 27.9585C20.0962 27.9585 17.8087 25.671 17.8087 22.8752C17.8087 20.0793 20.0962 17.7918 22.8921 17.7918C25.6879 17.7918 27.9754 20.0793 27.9754 22.8752C27.9754 25.671 25.6879 27.9585 22.8921 27.9585Z" fill="url(#paint0_linear_204_210)"/>
<path d="M56.2133 47.4532L53.7733 45.5724C53.8241 45.2166 53.875 44.8353 53.875 44.4541C53.875 44.0728 53.8496 43.6916 53.7733 43.3357L56.1879 41.4549C56.3912 41.277 56.4675 40.972 56.315 40.7178L54.0275 36.7782C53.9004 36.5241 53.5954 36.4478 53.3158 36.5241L50.4946 37.6678C49.91 37.2103 49.2746 36.8291 48.5629 36.5495L48.1308 33.5503C48.1054 33.2453 47.8512 33.042 47.5971 33.042H43.0475C42.7679 33.042 42.5137 33.2453 42.4883 33.5249L42.0562 36.5241C41.37 36.8291 40.7091 37.1849 40.1246 37.6424L37.3033 36.4987C37.0491 36.397 36.7441 36.4987 36.5916 36.7528L34.3041 40.6924C34.1771 40.9466 34.2025 41.2516 34.4312 41.4295L36.8458 43.3103C36.795 43.6662 36.7696 44.0474 36.7696 44.4287C36.7696 44.8099 36.795 45.1912 36.8458 45.547L34.4312 47.4278C34.2279 47.6057 34.1516 47.9107 34.3041 48.1649L36.5916 52.1045C36.7187 52.3587 37.0237 52.4349 37.3033 52.3587L40.1246 51.2149C40.7091 51.6724 41.3446 52.0537 42.0562 52.3332L42.4883 55.3324C42.5391 55.612 42.7679 55.8153 43.0475 55.8153H47.5971C47.8766 55.8153 48.1308 55.612 48.1562 55.3324L48.5883 52.3332C49.2746 52.0282 49.9354 51.6724 50.4946 51.2149L53.3412 52.3587C53.5954 52.4603 53.9004 52.3587 54.0529 52.1045L56.3404 48.1649C56.4929 47.9362 56.4166 47.6312 56.2133 47.4532ZM45.3096 47.8599C43.4287 47.8599 41.8783 46.3349 41.8783 44.4287C41.8783 42.5224 43.4033 40.9974 45.3096 40.9974C47.2158 40.9974 48.7408 42.5224 48.7408 44.4287C48.7408 46.3349 47.1904 47.8599 45.3096 47.8599Z" fill="url(#paint1_linear_204_210)"/>
</g>
<defs>
<linearGradient id="paint0_linear_204_210" x1="22.8921" y1="5.0835" x2="22.8921" y2="40.6668" gradientUnits="userSpaceOnUse">
<stop stop-color="#004AE9"/>
<stop offset="1" stop-color="#989898"/>
</linearGradient>
<linearGradient id="paint1_linear_204_210" x1="45.3223" y1="33.042" x2="45.3223" y2="55.8153" gradientUnits="userSpaceOnUse">
<stop stop-color="#004AE9"/>
<stop offset="1" stop-color="#989898"/>
</linearGradient>
<clipPath id="clip0_204_210">
<rect width="61" height="61" fill="white" transform="translate(0.5)"/>
</clipPath>
</defs>
</svg>
