<svg width="51" height="50" viewBox="0 0 51 50" fill="none" xmlns="http://www.w3.org/2000/svg">
<g clip-path="url(#clip0_204_204)">
<path d="M40.0625 23.9583C40.7708 23.9583 41.4583 24.0208 42.1458 24.1042L42.1667 0L0.5 41.6667H24.5833C24.5 40.9792 24.4375 40.2917 24.4375 39.5833C24.4375 30.9583 31.4375 23.9583 40.0625 23.9583ZM47.7917 40.6042C47.8333 40.2708 47.875 39.9375 47.875 39.5833C47.875 39.2292 47.8542 38.8958 47.7917 38.5625L50 36.8333C50.1875 36.6667 50.25 36.3958 50.125 36.1667L48.0417 32.5625C47.9167 32.3333 47.6458 32.25 47.3958 32.3333L44.8125 33.375C44.2708 32.9583 43.6875 32.6042 43.0417 32.3542L42.6458 29.6042C42.625 29.3542 42.3958 29.1667 42.1458 29.1667H37.9792C37.7292 29.1667 37.5 29.3542 37.4583 29.6042L37.0625 32.3542C36.4375 32.625 35.8333 32.9583 35.2917 33.375L32.7083 32.3333C32.4792 32.25 32.2083 32.3333 32.0625 32.5625L29.9792 36.1667C29.8542 36.3958 29.8958 36.6667 30.1042 36.8333L32.3125 38.5625C32.2708 38.8958 32.25 39.2292 32.25 39.5833C32.25 39.9375 32.2708 40.2708 32.3125 40.6042L30.1042 42.3333C29.9167 42.5 29.8542 42.7708 29.9792 43L32.0625 46.6042C32.1875 46.8333 32.4583 46.9167 32.7083 46.8333L35.2917 45.7917C35.8333 46.2083 36.4167 46.5625 37.0625 46.8125L37.4583 49.5625C37.5 49.8125 37.7083 50 37.9792 50H42.1458C42.3958 50 42.625 49.8125 42.6667 49.5625L43.0625 46.8125C43.6875 46.5417 44.2917 46.2083 44.8125 45.7917L47.4167 46.8333C47.6458 46.9167 47.9167 46.8333 48.0625 46.6042L50.1458 43C50.2708 42.7708 50.2083 42.5 50.0208 42.3333L47.7917 40.6042ZM40.0625 42.7083C38.3333 42.7083 36.9375 41.3125 36.9375 39.5833C36.9375 37.8542 38.3333 36.4583 40.0625 36.4583C41.7917 36.4583 43.1875 37.8542 43.1875 39.5833C43.1875 41.3125 41.7917 42.7083 40.0625 42.7083Z" fill="url(#paint0_linear_204_204)"/>
</g>
<defs>
<linearGradient id="paint0_linear_204_204" x1="25.3554" y1="0" x2="25.3554" y2="50" gradientUnits="userSpaceOnUse">
<stop stop-color="#004AE9"/>
<stop offset="1" stop-color="#989898"/>
</linearGradient>
<clipPath id="clip0_204_204">
<rect width="50" height="50" fill="white" transform="translate(0.5)"/>
</clipPath>
</defs>
</svg>
