<svg width="148" height="379" viewBox="0 0 148 379" fill="none" xmlns="http://www.w3.org/2000/svg">
<path d="M147 0V149.499C147 159.721 147 164.832 144.733 169.179C142.466 173.526 138.275 176.451 129.892 182.301L18.1078 260.315C9.72519 266.165 5.5339 269.09 3.26695 273.437C1 277.783 1 282.895 1 293.117V379" stroke="white" stroke-opacity="0.1" stroke-width="1.5"/>
<path d="M147 0V149.499C147 159.721 147 164.832 144.733 169.179C142.466 173.526 138.275 176.451 129.892 182.301L18.1078 260.315C9.72519 266.165 5.5339 269.09 3.26695 273.437C1 277.783 1 282.895 1 293.117V379" stroke="url(#paint0_radial_2012_1989)" stroke-width="1.5"/>
<g style="mix-blend-mode:plus-lighter" filter="url(#filter0_f_2012_1989)">
<path d="M25 256L101.5 202" stroke="url(#paint1_radial_2012_1989)" stroke-opacity="0.7" stroke-width="2"/>
</g>
<defs>
<filter id="filter0_f_2012_1989" x="15.4233" y="192.183" width="95.6533" height="73.6339" filterUnits="userSpaceOnUse" color-interpolation-filters="sRGB">
<feFlood flood-opacity="0" result="BackgroundImageFix"/>
<feBlend mode="normal" in="SourceGraphic" in2="BackgroundImageFix" result="shape"/>
<feGaussianBlur stdDeviation="4.5" result="effect1_foregroundBlur_2012_1989"/>
</filter>
<radialGradient id="paint0_radial_2012_1989" cx="0" cy="0" r="1" gradientTransform="matrix(72.1134 45.2859 -30.5645 40.488 74.2955 223.734)" gradientUnits="userSpaceOnUse">
<stop offset="0.00162628" stop-color="white"/>
<stop offset="1" stop-color="white" stop-opacity="0"/>
</radialGradient>
<radialGradient id="paint1_radial_2012_1989" cx="0" cy="0" r="1" gradientUnits="userSpaceOnUse" gradientTransform="translate(63.4049 233.878) rotate(53.1262) scale(40.155 42.0295)">
<stop offset="0.00162628" stop-color="white"/>
<stop offset="1" stop-color="white" stop-opacity="0"/>
</radialGradient>
</defs>
</svg>
