<svg width="64" height="64" viewBox="0 0 64 64" fill="none" xmlns="http://www.w3.org/2000/svg">
<g clip-path="url(#clip0_204_165)">
<path d="M29.3334 37.3335H24C24 24.0802 34.7467 13.3335 48 13.3335V18.6668C37.68 18.6668 29.3334 27.0135 29.3334 37.3335ZM48 29.3335V24.0002C40.64 24.0002 34.6667 29.9735 34.6667 37.3335H40C40 32.9068 43.5734 29.3335 48 29.3335ZM18.6667 10.6668C18.6667 7.70683 16.2934 5.3335 13.3334 5.3335C10.3734 5.3335 8.00004 7.70683 8.00004 10.6668C8.00004 13.6268 10.3734 16.0002 13.3334 16.0002C16.2934 16.0002 18.6667 13.6268 18.6667 10.6668ZM30.5334 12.0002H25.2C24.56 15.7868 21.3067 18.6668 17.3334 18.6668H9.33337C7.12004 18.6668 5.33337 20.4535 5.33337 22.6668V29.3335H21.3334V23.3068C26.2934 21.7335 30 17.3602 30.5334 12.0002ZM50.6667 45.3335C53.6267 45.3335 56 42.9602 56 40.0002C56 37.0402 53.6267 34.6668 50.6667 34.6668C47.7067 34.6668 45.3334 37.0402 45.3334 40.0002C45.3334 42.9602 47.7067 45.3335 50.6667 45.3335ZM54.6667 48.0002H46.6667C42.6934 48.0002 39.44 45.1202 38.8 41.3335H33.4667C34 46.6935 37.7067 51.0668 42.6667 52.6402V58.6668H58.6667V52.0002C58.6667 49.7868 56.88 48.0002 54.6667 48.0002Z" fill="url(#paint0_linear_204_165)"/>
</g>
<defs>
<linearGradient id="paint0_linear_204_165" x1="32" y1="5.3335" x2="32" y2="58.6668" gradientUnits="userSpaceOnUse">
<stop stop-color="#004AE9"/>
<stop offset="1" stop-color="#989898"/>
</linearGradient>
<clipPath id="clip0_204_165">
<rect width="64" height="64" fill="white"/>
</clipPath>
</defs>
</svg>
