<svg width="66" height="66" viewBox="0 0 66 66" fill="none" xmlns="http://www.w3.org/2000/svg">
<g clip-path="url(#clip0_204_177)">
<path d="M33 35.0625C37.4825 35.0625 41.4425 36.135 44.66 37.5375C47.63 38.8575 49.5 41.8275 49.5 45.045V49.5H16.5V45.0725C16.5 41.8275 18.37 38.8575 21.34 37.565C24.5575 36.135 28.5175 35.0625 33 35.0625ZM11 35.75C14.025 35.75 16.5 33.275 16.5 30.25C16.5 27.225 14.025 24.75 11 24.75C7.975 24.75 5.5 27.225 5.5 30.25C5.5 33.275 7.975 35.75 11 35.75ZM14.1075 38.775C13.09 38.61 12.0725 38.5 11 38.5C8.2775 38.5 5.6925 39.0775 3.355 40.095C1.32 40.975 0 42.955 0 45.1825V49.5H12.375V45.0725C12.375 42.79 13.0075 40.645 14.1075 38.775ZM55 35.75C58.025 35.75 60.5 33.275 60.5 30.25C60.5 27.225 58.025 24.75 55 24.75C51.975 24.75 49.5 27.225 49.5 30.25C49.5 33.275 51.975 35.75 55 35.75ZM66 45.1825C66 42.955 64.68 40.975 62.645 40.095C60.3075 39.0775 57.7225 38.5 55 38.5C53.9275 38.5 52.91 38.61 51.8925 38.775C52.9925 40.645 53.625 42.79 53.625 45.0725V49.5H66V45.1825ZM33 16.5C37.565 16.5 41.25 20.185 41.25 24.75C41.25 29.315 37.565 33 33 33C28.435 33 24.75 29.315 24.75 24.75C24.75 20.185 28.435 16.5 33 16.5Z" fill="url(#paint0_linear_204_177)"/>
</g>
<defs>
<linearGradient id="paint0_linear_204_177" x1="33" y1="16.5" x2="33" y2="49.5" gradientUnits="userSpaceOnUse">
<stop stop-color="#004AE9"/>
<stop offset="1" stop-color="#989898"/>
</linearGradient>
<clipPath id="clip0_204_177">
<rect width="66" height="66" fill="white"/>
</clipPath>
</defs>
</svg>
