<svg width="96" height="96" viewBox="0 0 96 96" fill="none" xmlns="http://www.w3.org/2000/svg">
<g clip-path="url(#clip0_204_443)">
<path d="M67.4 27.4L73.16 33.16L53.64 52.68L40.48 39.52C38.92 37.96 36.4 37.96 34.84 39.52L10.84 63.56C9.28004 65.12 9.28004 67.64 10.84 69.2C12.4 70.76 14.92 70.76 16.48 69.2L37.64 48L50.8 61.16C52.36 62.72 54.88 62.72 56.44 61.16L78.8 38.84L84.56 44.6C85.8 45.84 87.96 44.96 87.96 43.2V26C88 24.88 87.12 24 86 24H68.84C67.04 24 66.16 26.16 67.4 27.4Z" fill="url(#paint0_linear_204_443)"/>
</g>
<defs>
<linearGradient id="paint0_linear_204_443" x1="48.8157" y1="24" x2="48.8157" y2="70.37" gradientUnits="userSpaceOnUse">
<stop stop-color="#004AE9"/>
<stop offset="1" stop-color="#989898"/>
</linearGradient>
<clipPath id="clip0_204_443">
<rect width="96" height="96" fill="white"/>
</clipPath>
</defs>
</svg>
