<svg width="230" height="230" viewBox="0 0 230 230" fill="none" xmlns="http://www.w3.org/2000/svg">
<path d="M201.25 158.125H215.625V215.625H201.25V158.125ZM172.5 129.375H186.875V215.625H172.5V129.375ZM143.75 186.875H158.125V215.625H143.75V186.875ZM64.6875 115C54.7366 115 45.0092 117.951 36.7354 123.479C28.4615 129.008 22.0129 136.865 18.2048 146.059C14.3968 155.252 13.4004 165.368 15.3418 175.128C17.2831 184.888 22.0749 193.852 29.1112 200.889C36.1475 207.925 45.1124 212.717 54.872 214.658C64.6317 216.6 74.7479 215.603 83.9413 211.795C93.1347 207.987 100.992 201.538 106.521 193.265C112.049 184.991 115 175.263 115 165.312C114.985 151.973 109.68 139.185 100.247 129.753C90.8152 120.32 78.0267 115.015 64.6875 115ZM99.8984 158.125H71.875V130.102C78.7733 131.524 85.1038 134.936 90.0841 139.916C95.0645 144.896 98.4764 151.227 99.8984 158.125ZM64.6875 201.25C55.7821 201.249 47.1942 197.942 40.5885 191.97C33.9828 185.997 29.8299 177.785 28.9348 168.925C28.0397 160.064 30.4662 151.187 35.744 144.014C41.0217 136.841 48.7747 131.883 57.5 130.102V158.125C57.5 161.937 59.0145 165.594 61.7104 168.29C64.4062 170.985 68.0625 172.5 71.875 172.5H99.8984C98.2316 180.611 93.8193 187.899 87.4053 193.136C80.9914 198.373 72.968 201.239 64.6875 201.25ZM161.972 86.25L190.722 43.125H215.625V28.75H183.028L154.278 71.875H129.375V14.375H115V100.625C115 104.437 116.515 108.094 119.21 110.79C121.906 113.485 125.563 115 129.375 115H215.625V100.625H129.375V86.25H161.972Z" fill="url(#paint0_linear_204_1430)"/>
<path d="M79.0625 57.5C83.032 57.5 86.25 54.282 86.25 50.3125C86.25 46.343 83.032 43.125 79.0625 43.125C75.093 43.125 71.875 46.343 71.875 50.3125C71.875 54.282 75.093 57.5 79.0625 57.5Z" fill="url(#paint1_linear_204_1430)"/>
<path d="M64.6875 86.25C68.657 86.25 71.875 83.032 71.875 79.0625C71.875 75.093 68.657 71.875 64.6875 71.875C60.718 71.875 57.5 75.093 57.5 79.0625C57.5 83.032 60.718 86.25 64.6875 86.25Z" fill="url(#paint2_linear_204_1430)"/>
<path d="M50.3125 43.125C54.282 43.125 57.5 39.907 57.5 35.9375C57.5 31.968 54.282 28.75 50.3125 28.75C46.343 28.75 43.125 31.968 43.125 35.9375C43.125 39.907 46.343 43.125 50.3125 43.125Z" fill="url(#paint3_linear_204_1430)"/>
<path d="M35.9375 71.875C39.907 71.875 43.125 68.657 43.125 64.6875C43.125 60.718 39.907 57.5 35.9375 57.5C31.968 57.5 28.75 60.718 28.75 64.6875C28.75 68.657 31.968 71.875 35.9375 71.875Z" fill="url(#paint4_linear_204_1430)"/>
<path d="M21.5625 100.625C25.532 100.625 28.75 97.407 28.75 93.4375C28.75 89.468 25.532 86.25 21.5625 86.25C17.593 86.25 14.375 89.468 14.375 93.4375C14.375 97.407 17.593 100.625 21.5625 100.625Z" fill="url(#paint5_linear_204_1430)"/>
<defs>
<linearGradient id="paint0_linear_204_1430" x1="115" y1="14.375" x2="115" y2="215.625" gradientUnits="userSpaceOnUse">
<stop stop-color="#999999"/>
<stop offset="1" stop-color="#004AE9"/>
</linearGradient>
<linearGradient id="paint1_linear_204_1430" x1="79.0625" y1="43.125" x2="79.0625" y2="57.5" gradientUnits="userSpaceOnUse">
<stop stop-color="#999999"/>
<stop offset="1" stop-color="#004AE9"/>
</linearGradient>
<linearGradient id="paint2_linear_204_1430" x1="64.6875" y1="71.875" x2="64.6875" y2="86.25" gradientUnits="userSpaceOnUse">
<stop stop-color="#999999"/>
<stop offset="1" stop-color="#004AE9"/>
</linearGradient>
<linearGradient id="paint3_linear_204_1430" x1="50.3125" y1="28.75" x2="50.3125" y2="43.125" gradientUnits="userSpaceOnUse">
<stop stop-color="#999999"/>
<stop offset="1" stop-color="#004AE9"/>
</linearGradient>
<linearGradient id="paint4_linear_204_1430" x1="35.9375" y1="57.5" x2="35.9375" y2="71.875" gradientUnits="userSpaceOnUse">
<stop stop-color="#999999"/>
<stop offset="1" stop-color="#004AE9"/>
</linearGradient>
<linearGradient id="paint5_linear_204_1430" x1="21.5625" y1="86.25" x2="21.5625" y2="100.625" gradientUnits="userSpaceOnUse">
<stop stop-color="#999999"/>
<stop offset="1" stop-color="#004AE9"/>
</linearGradient>
</defs>
</svg>
