<svg width="240" height="240" viewBox="0 0 240 240" fill="none" xmlns="http://www.w3.org/2000/svg">
<path d="M120 202.5C93 202.5 66.75 189 51 165H90V150H30V210H45V182.25C63.75 204.75 90.75 217.5 120 217.5V202.5ZM232.5 172.5V157.5H216.75C216 153 213.75 148.5 211.5 144L222.75 132.75L212.25 122.25L201 133.5C197.25 131.25 192.75 129 187.5 128.25V112.5H172.5V128.25C168 129 163.5 131.25 159 133.5L147.75 122.25L137.25 132.75L148.5 144C146.25 147.75 144 152.25 143.25 157.5H127.5V172.5H143.25C144 177 146.25 181.5 148.5 186L137.25 197.25L147.75 207.75L159 196.5C162.75 198.75 167.25 201 172.5 201.75V217.5H187.5V201.75C192 201 196.5 198.75 201 196.5L212.25 207.75L222.75 197.25L211.5 186C213.75 182.25 216 177.75 216.75 172.5H232.5ZM180 187.5C167.25 187.5 157.5 177.75 157.5 165C157.5 152.25 167.25 142.5 180 142.5C192.75 142.5 202.5 152.25 202.5 165C202.5 177.75 192.75 187.5 180 187.5ZM150 75H189C164.25 36.75 113.25 26.25 75 51C51.75 66 37.5 92.25 37.5 120H22.5C22.5 66 66 22.5 120 22.5C149.25 22.5 176.25 35.25 195 57.75V30H210V90H150V75Z" fill="url(#paint0_linear_216_2113)"/>
<defs>
<linearGradient id="paint0_linear_216_2113" x1="127.5" y1="22.5" x2="127.5" y2="217.5" gradientUnits="userSpaceOnUse">
<stop stop-color="white"/>
<stop offset="1" stop-color="#999999"/>
</linearGradient>
</defs>
</svg>
