<svg width="211" height="211" viewBox="0 0 211 211" fill="none" xmlns="http://www.w3.org/2000/svg">
<path d="M131.07 79.9279C130.699 79.5594 130.232 79.3036 129.722 79.1902C129.212 79.0769 128.68 79.1107 128.188 79.2876L67.7461 101.268C67.2229 101.458 66.7698 101.803 66.4469 102.256C66.1239 102.71 65.9463 103.25 65.9376 103.807C65.9289 104.364 66.0894 104.91 66.398 105.373C66.7066 105.837 67.1487 106.195 67.6657 106.402L94.0447 116.952L104.595 143.331C104.798 143.842 105.15 144.28 105.606 144.589C106.061 144.898 106.598 145.062 107.148 145.062H107.193C107.749 145.053 108.289 144.875 108.743 144.552C109.196 144.229 109.54 143.777 109.731 143.254L131.709 82.8094C131.888 82.318 131.923 81.7858 131.81 81.2754C131.696 80.765 131.44 80.2975 131.07 79.9279Z" fill="url(#paint0_linear_216_2099)"/>
<path d="M200.543 114.824C201.768 113.6 202.739 112.146 203.402 110.547C204.065 108.947 204.406 107.232 204.406 105.5C204.406 103.768 204.065 102.054 203.402 100.454C202.739 98.8538 201.768 97.4002 200.543 96.1759L162.386 58.0205L181.511 39.1439C184.332 39.8429 187.305 39.5914 189.968 38.4286C192.631 37.2658 194.836 35.2566 196.241 32.7127C197.646 30.1687 198.172 27.2323 197.737 24.359C197.303 21.4856 195.932 18.8359 193.838 16.8209C191.744 14.806 189.044 13.5384 186.156 13.2148C183.268 12.8912 180.354 13.5297 177.866 15.0312C175.378 16.5327 173.455 18.8134 172.395 21.5194C171.336 24.2253 171.199 27.2053 172.006 29.9971L153.06 48.6936L114.824 10.4571C113.6 9.2324 112.146 8.26086 110.546 7.59801C108.947 6.93516 107.232 6.59399 105.5 6.59399C103.768 6.59399 102.053 6.93516 100.454 7.59801C98.8537 8.26086 97.4001 9.2324 96.1758 10.4571L58.0204 48.6132L39.1458 29.4854C39.8443 26.6642 39.5923 23.6913 38.4288 21.028C37.2654 18.3646 35.2554 16.1597 32.7109 14.7553C30.1663 13.3509 27.2294 12.8255 24.3558 13.2606C21.4822 13.6957 18.8325 15.067 16.8178 17.1618C14.803 19.2565 13.536 21.9576 13.2131 24.846C12.8902 27.7344 13.5296 30.6486 15.032 33.1366C16.5345 35.6245 18.816 37.547 21.5226 38.6059C24.2293 39.6648 27.2097 39.8008 30.0016 38.9929L48.6948 57.94L10.457 96.1759C9.23228 97.4002 8.26074 98.8538 7.59789 100.454C6.93504 102.054 6.59387 103.768 6.59387 105.5C6.59387 107.232 6.93504 108.947 7.59789 110.547C8.26074 112.146 9.23228 113.6 10.457 114.824L48.6935 153.06L30.0016 172.007C27.216 171.205 24.2437 171.345 21.5453 172.403C18.8469 173.462 16.5732 175.382 15.0765 177.864C13.5798 180.346 12.9437 183.253 13.2669 186.134C13.59 189.015 14.8543 191.708 16.8639 193.797C18.8734 195.886 21.5159 197.254 24.3818 197.689C27.2478 198.123 30.177 197.601 32.7156 196.201C35.2543 194.802 37.2604 192.605 38.4232 189.949C39.586 187.294 39.8404 184.329 39.1471 181.515L58.0217 162.387L96.1771 200.543C97.4014 201.768 98.855 202.739 100.455 203.402C102.055 204.065 103.77 204.406 105.501 204.406C107.233 204.406 108.948 204.065 110.548 203.402C112.148 202.739 113.601 201.768 114.826 200.543L153.061 162.307L172.007 181.003C171.205 183.789 171.345 186.762 172.404 189.461C173.463 192.16 175.383 194.434 177.866 195.93C180.349 197.427 183.257 198.063 186.138 197.739C189.019 197.416 191.713 196.151 193.802 194.14C195.891 192.13 197.259 189.487 197.693 186.62C198.127 183.754 197.604 180.824 196.204 178.285C194.804 175.746 192.605 173.74 189.949 172.578C187.293 171.416 184.328 171.162 181.513 171.856L162.387 152.98L200.543 114.824ZM105.5 191.219L19.7812 105.5L105.5 19.7814L191.219 105.5L105.5 191.219Z" fill="url(#paint1_linear_216_2099)"/>
<defs>
<linearGradient id="paint0_linear_216_2099" x1="98.9061" y1="79.1245" x2="98.9061" y2="145.062" gradientUnits="userSpaceOnUse">
<stop stop-color="white"/>
<stop offset="1" stop-color="#989898"/>
</linearGradient>
<linearGradient id="paint1_linear_216_2099" x1="105.5" y1="6.59399" x2="105.5" y2="204.406" gradientUnits="userSpaceOnUse">
<stop stop-color="white"/>
<stop offset="1" stop-color="#989898"/>
</linearGradient>
</defs>
</svg>
