<svg width="659" height="735" viewBox="0 0 659 735" fill="none" xmlns="http://www.w3.org/2000/svg">
<rect width="659" height="735" rx="30" fill="url(#paint0_radial_204_1421)"/>
<path d="M208.552 476H202.312L198.532 466.1H184.372L180.592 476H174.652L188.272 440.36H194.932L208.552 476ZM196.972 461.36L192.772 450.5C192.232 449.06 191.872 447.86 191.572 446.54H191.332C191.032 447.86 190.672 449.06 190.132 450.5L185.872 461.36H196.972ZM218.748 440.36V476H212.928V440.36H218.748ZM238.528 460.28V465.08H224.488V460.28H238.528ZM284.428 473.84C281.728 475.58 277.828 476.42 273.568 476.42C261.928 476.42 254.248 468.8 254.248 458.18C254.248 447.68 261.868 439.94 272.488 439.94C277.408 439.94 280.948 440.9 283.948 442.94L282.028 448.28C279.748 446.48 276.508 445.34 272.848 445.34C265.468 445.34 260.248 450.5 260.248 458.18C260.248 465.62 265.768 471.02 273.748 471.02C277.768 471.02 281.728 469.94 284.248 468.08L284.428 473.84ZM312.845 449.48V476H307.205V473.3C304.325 475.46 301.445 476.42 298.445 476.42C292.865 476.42 289.265 473.54 289.265 467V449.72L294.905 449.48V465.8C294.905 469.7 296.885 471.44 300.305 471.44C302.585 471.44 305.045 470.48 307.205 468.98V449.72L312.845 449.48ZM336.541 450.32L335.701 455.12C334.021 454.34 331.561 453.8 328.981 453.8C325.921 453.8 324.301 455 324.301 456.8C324.301 461.06 337.741 459.68 337.741 468.38C337.741 472.76 334.621 476.42 327.001 476.42C323.701 476.42 320.161 475.64 318.181 474.44L318.601 469.58C320.581 470.84 323.941 471.8 326.941 471.8C330.361 471.8 331.921 470.72 331.921 468.62C331.921 464.3 318.541 465.68 318.541 457.04C318.541 452.78 322.261 449.18 329.041 449.18C332.161 449.18 334.741 449.6 336.541 450.32ZM357.937 449.6L357.517 454.46H349.837V467.24C349.837 470.24 351.457 471.5 354.097 471.5C355.597 471.5 356.977 470.96 357.937 470.24L358.237 475.04C356.977 475.94 355.117 476.42 352.897 476.42C347.077 476.42 344.257 473.42 344.257 467.9V454.46H340.537V449.6H344.257V443.84L349.837 442.58V449.6H357.937ZM388.959 462.8C388.959 470.78 382.959 476.42 374.979 476.42C367.059 476.42 360.999 470.78 360.999 462.8C360.999 454.82 367.059 449.18 374.979 449.18C382.959 449.18 388.959 454.82 388.959 462.8ZM383.139 462.8C383.139 457.64 379.539 454.1 374.979 454.1C370.359 454.1 366.819 457.64 366.819 462.8C366.819 467.96 370.419 471.5 374.979 471.5C379.599 471.5 383.139 467.96 383.139 462.8ZM434.119 476H428.479V459.8C428.479 459.02 428.359 458.36 428.179 457.82C427.639 455.24 425.899 454.16 423.379 454.16C423.079 454.16 422.779 454.22 422.539 454.22C420.619 454.46 418.459 455.3 416.479 456.68C416.599 457.52 416.719 458.42 416.719 459.32V476H411.079V459.8C411.079 459.02 410.959 458.36 410.779 457.82C410.239 455.24 408.499 454.16 405.979 454.16C403.879 454.16 401.419 455.18 399.319 456.62V476H393.679V449.72L399.319 449.48V452.3C401.719 450.5 404.059 449.54 406.159 449.36C407.479 449.24 408.619 449.3 409.759 449.48C412.279 449.84 414.319 451.04 415.519 453.14C418.699 450.32 421.879 449.18 425.059 449.18C430.579 449.18 434.119 452.06 434.119 458.6V476ZM463.11 464.12H444.75C445.35 468.68 448.95 471.5 454.53 471.5C457.53 471.5 461.01 470.54 463.11 469.04L463.35 474.02C461.31 475.52 457.35 476.42 454.17 476.42C444.63 476.42 438.87 471.08 438.87 462.56C438.87 454.52 444.39 449.18 451.77 449.18C458.49 449.18 463.35 453.56 463.35 460.52C463.35 461.54 463.29 462.98 463.11 464.12ZM451.77 453.32C447.81 453.32 444.99 456.2 444.57 460.7H458.01C458.07 460.46 458.07 460.04 458.07 459.74C458.07 455.96 455.55 453.32 451.77 453.32ZM484.099 449.48L483.919 454.88C483.319 454.64 482.119 454.4 481.219 454.4C478.639 454.4 476.179 455.66 474.319 457.58V476H468.679V449.72L474.319 449.48V453.02C476.539 450.5 479.299 449.18 482.119 449.18C482.839 449.18 483.679 449.3 484.099 449.48ZM181.681 503.86L180.541 509.02C178.561 507.88 174.721 507.1 171.721 507.1C167.041 507.1 164.461 508.84 164.461 511.84C164.461 518.98 183.181 515.5 183.181 527.8C183.181 534.34 178.441 538.42 169.321 538.42C165.001 538.42 160.801 537.46 158.341 536.14L158.941 530.68C161.281 532.06 165.541 533.26 169.501 533.26C174.781 533.26 177.241 531.52 177.241 528.34C177.241 520.96 158.461 524.62 158.461 512.32C158.461 506.2 163.321 501.94 171.601 501.94C175.201 501.94 179.221 502.6 181.681 503.86ZM210.688 526.12H192.328C192.928 530.68 196.528 533.5 202.108 533.5C205.108 533.5 208.588 532.54 210.688 531.04L210.928 536.02C208.888 537.52 204.928 538.42 201.748 538.42C192.208 538.42 186.448 533.08 186.448 524.56C186.448 516.52 191.968 511.18 199.348 511.18C206.068 511.18 210.928 515.56 210.928 522.52C210.928 523.54 210.868 524.98 210.688 526.12ZM199.348 515.32C195.388 515.32 192.568 518.2 192.148 522.7H205.588C205.648 522.46 205.648 522.04 205.648 521.74C205.648 517.96 203.128 515.32 199.348 515.32ZM231.677 511.48L231.497 516.88C230.897 516.64 229.697 516.4 228.797 516.4C226.217 516.4 223.757 517.66 221.897 519.58V538H216.257V511.72L221.897 511.48V515.02C224.117 512.5 226.877 511.18 229.697 511.18C230.417 511.18 231.257 511.3 231.677 511.48ZM260.066 511.6L250.166 538H243.146L233.306 511.72L239.126 511.48L244.646 526.18C245.546 528.76 246.266 531.04 246.626 532.96H246.926C247.286 531.04 248.006 528.64 248.846 526.18L254.306 511.6H260.066ZM266.832 500.08C268.692 500.08 270.072 501.46 270.072 503.26C270.072 505.12 268.692 506.56 266.832 506.56C264.912 506.56 263.472 505.12 263.472 503.26C263.472 501.46 264.912 500.08 266.832 500.08ZM269.592 511.48V538H263.952V511.72L269.592 511.48ZM296.658 513.52L295.398 518.62C293.838 517.24 291.138 516.28 288.678 516.28C283.758 516.28 280.158 519.58 280.158 524.8C280.158 530.02 283.758 533.32 289.158 533.32C292.038 533.32 294.858 532.36 296.898 530.8L297.138 535.96C294.978 537.46 291.858 538.42 288.378 538.42C280.638 538.42 274.338 533.32 274.338 524.8C274.338 516.82 280.458 511.18 288.198 511.18C291.798 511.18 294.798 512.08 296.658 513.52ZM324.243 526.12H305.883C306.482 530.68 310.083 533.5 315.663 533.5C318.663 533.5 322.143 532.54 324.243 531.04L324.483 536.02C322.443 537.52 318.483 538.42 315.303 538.42C305.763 538.42 300.003 533.08 300.003 524.56C300.003 516.52 305.523 511.18 312.903 511.18C319.623 511.18 324.483 515.56 324.483 522.52C324.483 523.54 324.423 524.98 324.243 526.12ZM312.903 515.32C308.943 515.32 306.123 518.2 305.703 522.7H319.143C319.203 522.46 319.203 522.04 319.203 521.74C319.203 517.96 316.683 515.32 312.903 515.32ZM373.083 538H366.843L363.063 528.1H348.903L345.123 538H339.183L352.803 502.36H359.463L373.083 538ZM361.503 523.36L357.303 512.5C356.763 511.06 356.403 509.86 356.103 508.54H355.863C355.563 509.86 355.203 511.06 354.663 512.5L350.403 523.36H361.503ZM400.14 510.88L400.02 515.44H395.28C396.6 516.7 397.44 518.5 397.44 520.42C397.44 525.64 393.6 529.24 387.36 529.6L383.7 533.38C385.02 533.2 387.84 533.02 389.1 533.02C396.66 533.02 400.56 535.66 400.56 540.88C400.56 545.92 396.66 549.52 387.18 549.52C382.02 549.52 376.92 548.44 374.1 546.7L374.52 541.78C377.16 543.46 382.5 544.9 387.48 544.9C393.54 544.9 395.34 543.28 395.34 541C395.34 538.42 393.3 537.46 387.84 537.46C385.02 537.46 381.36 537.76 379.14 538.18V534.04L383.82 529.42C378.54 528.7 375.42 525.04 375.42 520.42C375.42 514.96 379.68 511.18 386.4 511.18C387.96 511.18 389.34 511.36 390.6 511.78L400.14 510.88ZM392.22 520.42C392.22 517.36 390 515.14 386.4 515.14C382.8 515.14 380.64 517.3 380.64 520.42C380.64 523.48 382.8 525.7 386.4 525.7C390 525.7 392.22 523.54 392.22 520.42ZM426.782 526.12H408.422C409.022 530.68 412.622 533.5 418.202 533.5C421.202 533.5 424.682 532.54 426.782 531.04L427.022 536.02C424.982 537.52 421.022 538.42 417.842 538.42C408.302 538.42 402.542 533.08 402.542 524.56C402.542 516.52 408.062 511.18 415.442 511.18C422.162 511.18 427.022 515.56 427.022 522.52C427.022 523.54 426.962 524.98 426.782 526.12ZM415.442 515.32C411.482 515.32 408.662 518.2 408.242 522.7H421.682C421.742 522.46 421.742 522.04 421.742 521.74C421.742 517.96 419.222 515.32 415.442 515.32ZM456.171 538H450.531V521.8C450.531 517.9 448.551 516.16 445.071 516.16C442.731 516.16 440.151 517.18 437.991 518.62V538H432.351V511.72L437.991 511.48V514.3C440.871 512.14 443.871 511.18 446.931 511.18C452.571 511.18 456.171 514.06 456.171 520.6V538ZM477.761 511.6L477.341 516.46H469.661V529.24C469.661 532.24 471.281 533.5 473.921 533.5C475.421 533.5 476.801 532.96 477.761 532.24L478.061 537.04C476.801 537.94 474.941 538.42 472.721 538.42C466.901 538.42 464.081 535.42 464.081 529.9V516.46H460.361V511.6H464.081V505.84L469.661 504.58V511.6H477.761ZM499.783 512.32L498.943 517.12C497.263 516.34 494.803 515.8 492.223 515.8C489.163 515.8 487.543 517 487.543 518.8C487.543 523.06 500.983 521.68 500.983 530.38C500.983 534.76 497.863 538.42 490.243 538.42C486.943 538.42 483.403 537.64 481.423 536.44L481.843 531.58C483.823 532.84 487.183 533.8 490.183 533.8C493.603 533.8 495.163 532.72 495.163 530.62C495.163 526.3 481.783 527.68 481.783 519.04C481.783 514.78 485.503 511.18 492.283 511.18C495.403 511.18 497.983 511.6 499.783 512.32Z" fill="white"/>
<path d="M166.247 579.15V594H164.597V587.25H155.922V594H154.272V579.15H155.922V585.75H164.597V579.15H166.247ZM177.827 594H176.302V593C175.377 593.65 173.952 594.15 172.477 594.15C170.002 594.15 168.652 592.975 168.652 590.975C168.652 588.725 170.402 587.65 173.102 587.65C174.227 587.65 175.552 587.925 176.252 588.275V586.875C176.252 585.025 175.202 584.275 173.177 584.275C171.777 584.275 170.477 584.675 169.677 585.175L169.602 583.7C170.502 583.175 171.852 582.85 173.327 582.85C176.177 582.85 177.827 584.025 177.827 586.725V594ZM176.252 591.9V589.375C175.552 589.025 174.402 588.775 173.352 588.775C171.477 588.775 170.277 589.4 170.277 590.95C170.277 592.4 171.352 592.975 172.852 592.975C174.127 592.975 175.527 592.45 176.252 591.9ZM190.403 594H188.828V587.1C188.828 585.175 187.878 584.3 186.128 584.3C184.953 584.3 183.653 584.825 182.528 585.625V594H180.928V583.05L182.528 582.95V584.3C183.878 583.3 185.228 582.85 186.528 582.85C188.953 582.85 190.403 584.05 190.403 586.75V594ZM202.826 578.15V594H201.226V593.1C200.276 593.8 199.151 594.15 197.926 594.15C195.026 594.15 192.651 592.1 192.651 588.575C192.651 585.225 195.026 582.85 198.401 582.85C199.426 582.85 200.451 583.025 201.226 583.4V578.275L202.826 578.15ZM201.226 584.8C200.551 584.475 199.501 584.25 198.576 584.25C196.201 584.25 194.301 585.85 194.301 588.55C194.301 591.225 195.976 592.75 198.226 592.75C199.351 592.75 200.351 592.425 201.226 591.75V584.8ZM207.528 578.15V594H205.928V578.275L207.528 578.15ZM219.59 588.825H211.44C211.59 591.2 213.34 592.725 215.915 592.725C217.29 592.725 218.765 592.3 219.665 591.575L219.74 593.075C218.89 593.725 217.265 594.15 215.84 594.15C212.19 594.15 209.765 591.95 209.765 588.375C209.765 585.075 211.99 582.85 214.99 582.85C217.74 582.85 219.69 584.7 219.69 587.5C219.69 587.9 219.64 588.425 219.59 588.825ZM214.99 584.1C213.015 584.1 211.565 585.525 211.39 587.775H218.115C218.14 587.65 218.14 587.475 218.14 587.3C218.14 585.45 216.89 584.1 214.99 584.1ZM228.018 578.4C228.593 578.4 229.043 578.85 229.043 579.425C229.043 580.025 228.593 580.475 228.018 580.475C227.418 580.475 226.943 580.025 226.943 579.425C226.943 578.85 227.418 578.4 228.018 578.4ZM228.793 582.95V594H227.193V583.05L228.793 582.95ZM241.379 594H239.804V587.1C239.804 585.175 238.854 584.3 237.104 584.3C235.929 584.3 234.629 584.825 233.504 585.625V594H231.904V583.05L233.504 582.95V584.3C234.854 583.3 236.204 582.85 237.504 582.85C239.929 582.85 241.379 584.05 241.379 586.75V594ZM253.802 583V598.625H252.202V593.1C251.227 593.825 250.127 594.15 248.877 594.15C245.952 594.15 243.627 592.125 243.627 588.6C243.627 585.225 245.977 582.85 249.252 582.85C250.327 582.85 251.402 583.05 252.202 583.525V583H253.802ZM252.202 584.8C251.527 584.475 250.477 584.25 249.552 584.25C247.177 584.25 245.277 585.85 245.277 588.55C245.277 591.225 246.952 592.75 249.227 592.75C250.327 592.75 251.377 592.425 252.202 591.75V584.8ZM266.279 582.95V594H264.704V592.725C263.354 593.7 262.004 594.15 260.754 594.15C258.379 594.15 256.904 592.95 256.904 590.25V583.05L258.504 582.95V589.875C258.504 591.825 259.454 592.7 261.154 592.7C262.304 592.7 263.579 592.2 264.704 591.4V583.05L266.279 582.95ZM270.229 578.4C270.804 578.4 271.254 578.85 271.254 579.425C271.254 580.025 270.804 580.475 270.229 580.475C269.629 580.475 269.154 580.025 269.154 579.425C269.154 578.85 269.629 578.4 270.229 578.4ZM271.004 582.95V594H269.404V583.05L271.004 582.95ZM280.041 583L279.991 584.525C279.716 584.425 279.266 584.35 278.916 584.35C277.716 584.35 276.566 585.025 275.716 586.025V594H274.116V583.05L275.716 582.95V584.6C276.616 583.525 277.866 582.85 279.141 582.85C279.466 582.85 279.841 582.9 280.041 583ZM282.852 578.4C283.427 578.4 283.877 578.85 283.877 579.425C283.877 580.025 283.427 580.475 282.852 580.475C282.252 580.475 281.777 580.025 281.777 579.425C281.777 578.85 282.252 578.4 282.852 578.4ZM283.627 582.95V594H282.027V583.05L283.627 582.95ZM295.688 588.825H287.538C287.688 591.2 289.438 592.725 292.013 592.725C293.388 592.725 294.863 592.3 295.763 591.575L295.838 593.075C294.988 593.725 293.363 594.15 291.938 594.15C288.288 594.15 285.863 591.95 285.863 588.375C285.863 585.075 288.088 582.85 291.088 582.85C293.838 582.85 295.788 584.7 295.788 587.5C295.788 587.9 295.738 588.425 295.688 588.825ZM291.088 584.1C289.113 584.1 287.663 585.525 287.488 587.775H294.213C294.238 587.65 294.238 587.475 294.238 587.3C294.238 585.45 292.988 584.1 291.088 584.1ZM304.986 583.3L304.761 584.725C304.061 584.425 303.111 584.2 301.986 584.2C300.386 584.2 299.536 584.875 299.536 585.85C299.536 588.1 305.486 587.4 305.486 590.95C305.486 592.7 304.261 594.15 301.211 594.15C299.911 594.15 298.536 593.85 297.711 593.375L297.861 591.95C298.711 592.425 300.036 592.8 301.211 592.8C303.011 592.8 303.836 592.175 303.836 591.025C303.836 588.75 297.886 589.425 297.886 585.925C297.886 584.325 299.286 582.85 302.011 582.85C303.311 582.85 304.261 583 304.986 583.3ZM306.359 597.375C307.359 595.675 307.734 594.15 307.734 592.65C307.734 592.25 307.709 591.75 307.584 591.275H309.159C309.259 591.6 309.284 592.075 309.284 592.45C309.284 594.15 308.709 595.8 307.634 597.375H306.359ZM323.132 583L323.082 584.525C322.807 584.425 322.357 584.35 322.007 584.35C320.807 584.35 319.657 585.025 318.807 586.025V594H317.207V583.05L318.807 582.95V584.6C319.707 583.525 320.957 582.85 322.232 582.85C322.557 582.85 322.932 582.9 323.132 583ZM333.896 588.825H325.746C325.896 591.2 327.646 592.725 330.221 592.725C331.596 592.725 333.071 592.3 333.971 591.575L334.046 593.075C333.196 593.725 331.571 594.15 330.146 594.15C326.496 594.15 324.071 591.95 324.071 588.375C324.071 585.075 326.296 582.85 329.296 582.85C332.046 582.85 333.996 584.7 333.996 587.5C333.996 587.9 333.946 588.425 333.896 588.825ZM329.296 584.1C327.321 584.1 325.871 585.525 325.696 587.775H332.421C332.446 587.65 332.446 587.475 332.446 587.3C332.446 585.45 331.196 584.1 329.296 584.1ZM343.194 583.3L342.969 584.725C342.269 584.425 341.319 584.2 340.194 584.2C338.594 584.2 337.744 584.875 337.744 585.85C337.744 588.1 343.694 587.4 343.694 590.95C343.694 592.7 342.469 594.15 339.419 594.15C338.119 594.15 336.744 593.85 335.919 593.375L336.069 591.95C336.919 592.425 338.244 592.8 339.419 592.8C341.219 592.8 342.044 592.175 342.044 591.025C342.044 588.75 336.094 589.425 336.094 585.925C336.094 584.325 337.494 582.85 340.219 582.85C341.519 582.85 342.469 583 343.194 583.3ZM356.761 588.5C356.761 591.825 354.286 594.15 351.061 594.15C347.861 594.15 345.361 591.825 345.361 588.5C345.361 585.175 347.861 582.85 351.061 582.85C354.286 582.85 356.761 585.175 356.761 588.5ZM355.111 588.5C355.111 586 353.286 584.275 351.061 584.275C348.786 584.275 347.011 586 347.011 588.5C347.011 591 348.836 592.725 351.061 592.725C353.361 592.725 355.111 591 355.111 588.5ZM360.58 578.15V594H358.98V578.275L360.58 578.15ZM373.117 583L368.767 594H366.842L362.492 583.05L364.167 582.95L366.967 590C367.292 590.875 367.617 591.8 367.792 592.475H367.892C368.042 591.8 368.367 590.85 368.692 590L371.467 583H373.117ZM383.921 588.825H375.771C375.921 591.2 377.671 592.725 380.246 592.725C381.621 592.725 383.096 592.3 383.996 591.575L384.071 593.075C383.221 593.725 381.596 594.15 380.171 594.15C376.521 594.15 374.096 591.95 374.096 588.375C374.096 585.075 376.321 582.85 379.321 582.85C382.071 582.85 384.021 584.7 384.021 587.5C384.021 587.9 383.971 588.425 383.921 588.825ZM379.321 584.1C377.346 584.1 375.896 585.525 375.721 587.775H382.446C382.471 587.65 382.471 587.475 382.471 587.3C382.471 585.45 381.221 584.1 379.321 584.1ZM392.349 578.4C392.924 578.4 393.374 578.85 393.374 579.425C393.374 580.025 392.924 580.475 392.349 580.475C391.749 580.475 391.274 580.025 391.274 579.425C391.274 578.85 391.749 578.4 392.349 578.4ZM393.124 582.95V594H391.524V583.05L393.124 582.95ZM402.936 583.3L402.711 584.725C402.011 584.425 401.061 584.2 399.936 584.2C398.336 584.2 397.486 584.875 397.486 585.85C397.486 588.1 403.436 587.4 403.436 590.95C403.436 592.7 402.211 594.15 399.161 594.15C397.861 594.15 396.486 593.85 395.661 593.375L395.811 591.95C396.661 592.425 397.986 592.8 399.161 592.8C400.961 592.8 401.786 592.175 401.786 591.025C401.786 588.75 395.836 589.425 395.836 585.925C395.836 584.325 397.236 582.85 399.961 582.85C401.261 582.85 402.211 583 402.936 583.3ZM412.506 583.3L412.281 584.725C411.581 584.425 410.631 584.2 409.506 584.2C407.906 584.2 407.056 584.875 407.056 585.85C407.056 588.1 413.006 587.4 413.006 590.95C413.006 592.7 411.781 594.15 408.731 594.15C407.431 594.15 406.056 593.85 405.231 593.375L405.381 591.95C406.231 592.425 407.556 592.8 408.731 592.8C410.531 592.8 411.356 592.175 411.356 591.025C411.356 588.75 405.406 589.425 405.406 585.925C405.406 584.325 406.806 582.85 409.531 582.85C410.831 582.85 411.781 583 412.506 583.3ZM424.824 582.95V594H423.249V592.725C421.899 593.7 420.549 594.15 419.299 594.15C416.924 594.15 415.449 592.95 415.449 590.25V583.05L417.049 582.95V589.875C417.049 591.825 417.999 592.7 419.699 592.7C420.849 592.7 422.124 592.2 423.249 591.4V583.05L424.824 582.95ZM436.899 588.825H428.749C428.899 591.2 430.649 592.725 433.224 592.725C434.599 592.725 436.074 592.3 436.974 591.575L437.049 593.075C436.199 593.725 434.574 594.15 433.149 594.15C429.499 594.15 427.074 591.95 427.074 588.375C427.074 585.075 429.299 582.85 432.299 582.85C435.049 582.85 436.999 584.7 436.999 587.5C436.999 587.9 436.949 588.425 436.899 588.825ZM432.299 584.1C430.324 584.1 428.874 585.525 428.699 587.775H435.424C435.449 587.65 435.449 587.475 435.449 587.3C435.449 585.45 434.199 584.1 432.299 584.1ZM446.197 583.3L445.972 584.725C445.272 584.425 444.322 584.2 443.197 584.2C441.597 584.2 440.747 584.875 440.747 585.85C440.747 588.1 446.697 587.4 446.697 590.95C446.697 592.7 445.472 594.15 442.422 594.15C441.122 594.15 439.747 593.85 438.922 593.375L439.072 591.95C439.922 592.425 441.247 592.8 442.422 592.8C444.222 592.8 445.047 592.175 445.047 591.025C445.047 588.75 439.097 589.425 439.097 585.925C439.097 584.325 440.497 582.85 443.222 582.85C444.522 582.85 445.472 583 446.197 583.3ZM447.57 597.375C448.57 595.675 448.945 594.15 448.945 592.65C448.945 592.25 448.92 591.75 448.795 591.275H450.37C450.47 591.6 450.495 592.075 450.495 592.45C450.495 594.15 449.92 595.8 448.845 597.375H447.57ZM468.593 588.4C468.593 591.775 466.168 594.15 462.618 594.15C460.943 594.15 459.418 593.775 458.418 593.25V578.275L460.018 578.15V583.9C460.993 583.175 462.118 582.85 463.343 582.85C466.293 582.85 468.593 584.875 468.593 588.4ZM466.943 588.45C466.943 585.775 465.268 584.25 462.993 584.25C461.893 584.25 460.843 584.575 460.018 585.25V592.225C460.718 592.55 461.668 592.75 462.668 592.75C465.043 592.75 466.943 591.15 466.943 588.45ZM481.346 588.5C481.346 591.825 478.871 594.15 475.646 594.15C472.446 594.15 469.946 591.825 469.946 588.5C469.946 585.175 472.446 582.85 475.646 582.85C478.871 582.85 481.346 585.175 481.346 588.5ZM479.696 588.5C479.696 586 477.871 584.275 475.646 584.275C473.371 584.275 471.596 586 471.596 588.5C471.596 591 473.421 592.725 475.646 592.725C477.946 592.725 479.696 591 479.696 588.5ZM494.09 588.5C494.09 591.825 491.615 594.15 488.39 594.15C485.19 594.15 482.69 591.825 482.69 588.5C482.69 585.175 485.19 582.85 488.39 582.85C491.615 582.85 494.09 585.175 494.09 588.5ZM492.44 588.5C492.44 586 490.615 584.275 488.39 584.275C486.115 584.275 484.34 586 484.34 588.5C484.34 591 486.165 592.725 488.39 592.725C490.69 592.725 492.44 591 492.44 588.5ZM505.609 583.05L500.884 587.925L506.059 594H504.109L499.709 589.05L497.909 590.9V594H496.309V578.275L497.909 578.15V589.25H498.009C498.384 588.725 498.934 588.025 499.559 587.3L503.784 582.95L505.609 583.05ZM150.446 620H148.921V619C147.996 619.65 146.571 620.15 145.096 620.15C142.621 620.15 141.271 618.975 141.271 616.975C141.271 614.725 143.021 613.65 145.721 613.65C146.846 613.65 148.171 613.925 148.871 614.275V612.875C148.871 611.025 147.821 610.275 145.796 610.275C144.396 610.275 143.096 610.675 142.296 611.175L142.221 609.7C143.121 609.175 144.471 608.85 145.946 608.85C148.796 608.85 150.446 610.025 150.446 612.725V620ZM148.871 617.9V615.375C148.171 615.025 147.021 614.775 145.971 614.775C144.096 614.775 142.896 615.4 142.896 616.95C142.896 618.4 143.971 618.975 145.471 618.975C146.746 618.975 148.146 618.45 148.871 617.9ZM163.723 614.425C163.723 617.75 161.323 620.15 158.023 620.15C156.873 620.15 155.948 620 155.148 619.65V624.625H153.548V609.05L155.148 608.95V609.925C156.073 609.2 157.198 608.85 158.473 608.85C161.398 608.85 163.723 610.875 163.723 614.425ZM162.073 614.45C162.073 611.775 160.398 610.25 158.123 610.25C157.023 610.25 155.973 610.575 155.148 611.25V618.225C155.848 618.55 156.798 618.75 157.798 618.75C160.173 618.75 162.073 617.15 162.073 614.45ZM176.125 614.425C176.125 617.75 173.725 620.15 170.425 620.15C169.275 620.15 168.35 620 167.55 619.65V624.625H165.95V609.05L167.55 608.95V609.925C168.475 609.2 169.6 608.85 170.875 608.85C173.8 608.85 176.125 610.875 176.125 614.425ZM174.475 614.45C174.475 611.775 172.8 610.25 170.525 610.25C169.425 610.25 168.375 610.575 167.55 611.25V618.225C168.25 618.55 169.2 618.75 170.2 618.75C172.575 618.75 174.475 617.15 174.475 614.45ZM188.877 614.5C188.877 617.825 186.402 620.15 183.177 620.15C179.977 620.15 177.477 617.825 177.477 614.5C177.477 611.175 179.977 608.85 183.177 608.85C186.402 608.85 188.877 611.175 188.877 614.5ZM187.227 614.5C187.227 612 185.402 610.275 183.177 610.275C180.902 610.275 179.127 612 179.127 614.5C179.127 617 180.952 618.725 183.177 618.725C185.477 618.725 187.227 617 187.227 614.5ZM191.921 604.4C192.496 604.4 192.946 604.85 192.946 605.425C192.946 606.025 192.496 606.475 191.921 606.475C191.321 606.475 190.846 606.025 190.846 605.425C190.846 604.85 191.321 604.4 191.921 604.4ZM192.696 608.95V620H191.096V609.05L192.696 608.95ZM205.283 620H203.708V613.1C203.708 611.175 202.758 610.3 201.008 610.3C199.833 610.3 198.533 610.825 197.408 611.625V620H195.808V609.05L197.408 608.95V610.3C198.758 609.3 200.108 608.85 201.408 608.85C203.833 608.85 205.283 610.05 205.283 612.75V620ZM214.106 609L213.981 610.4H210.531V616.7C210.531 618.125 211.281 618.725 212.481 618.725C213.156 618.725 213.781 618.475 214.206 618.175L214.281 619.575C213.806 619.95 213.031 620.15 212.206 620.15C210.081 620.15 208.931 619.05 208.931 616.9V610.4H207.331V609H208.931V606.525L210.531 606.1V609H214.106ZM233.064 620H231.464V613.1C231.464 612.625 231.389 612.225 231.264 611.9C230.939 610.775 230.114 610.3 228.889 610.3C228.714 610.3 228.564 610.325 228.389 610.325C227.439 610.45 226.389 610.9 225.364 611.625C225.464 612 225.514 612.45 225.514 612.9V620H223.914V613.1C223.914 612.625 223.864 612.225 223.714 611.9C223.414 610.775 222.589 610.3 221.364 610.3C220.289 610.3 219.089 610.825 217.989 611.625V620H216.389V609.05L217.989 608.95V610.3C219.214 609.375 220.389 608.925 221.414 608.9C221.989 608.85 222.514 608.925 222.989 609.05C223.914 609.25 224.614 609.725 225.039 610.55C226.539 609.325 227.964 608.85 229.264 608.85C231.589 608.85 233.064 610.05 233.064 612.75V620ZM245.115 614.825H236.965C237.115 617.2 238.865 618.725 241.44 618.725C242.815 618.725 244.29 618.3 245.19 617.575L245.265 619.075C244.415 619.725 242.79 620.15 241.365 620.15C237.715 620.15 235.29 617.95 235.29 614.375C235.29 611.075 237.515 608.85 240.515 608.85C243.265 608.85 245.215 610.7 245.215 613.5C245.215 613.9 245.165 614.425 245.115 614.825ZM240.515 610.1C238.54 610.1 237.09 611.525 236.915 613.775H243.64C243.665 613.65 243.665 613.475 243.665 613.3C243.665 611.45 242.415 610.1 240.515 610.1ZM257.188 620H255.613V613.1C255.613 611.175 254.663 610.3 252.913 610.3C251.738 610.3 250.438 610.825 249.313 611.625V620H247.713V609.05L249.313 608.95V610.3C250.663 609.3 252.013 608.85 253.313 608.85C255.738 608.85 257.188 610.05 257.188 612.75V620ZM266.01 609L265.885 610.4H262.435V616.7C262.435 618.125 263.185 618.725 264.385 618.725C265.06 618.725 265.685 618.475 266.11 618.175L266.185 619.575C265.71 619.95 264.935 620.15 264.11 620.15C261.985 620.15 260.835 619.05 260.835 616.9V610.4H259.235V609H260.835V606.525L262.435 606.1V609H266.01ZM274.994 609.3L274.769 610.725C274.069 610.425 273.119 610.2 271.994 610.2C270.394 610.2 269.544 610.875 269.544 611.85C269.544 614.1 275.494 613.4 275.494 616.95C275.494 618.7 274.269 620.15 271.219 620.15C269.919 620.15 268.544 619.85 267.719 619.375L267.869 617.95C268.719 618.425 270.044 618.8 271.219 618.8C273.019 618.8 273.844 618.175 273.844 617.025C273.844 614.75 267.894 615.425 267.894 611.925C267.894 610.325 269.294 608.85 272.019 608.85C273.319 608.85 274.269 609 274.994 609.3ZM283.865 604.4C284.44 604.4 284.89 604.85 284.89 605.425C284.89 606.025 284.44 606.475 283.865 606.475C283.265 606.475 282.79 606.025 282.79 605.425C282.79 604.85 283.265 604.4 283.865 604.4ZM284.64 608.95V620H283.04V609.05L284.64 608.95ZM297.227 620H295.652V613.1C295.652 611.175 294.702 610.3 292.952 610.3C291.777 610.3 290.477 610.825 289.352 611.625V620H287.752V609.05L289.352 608.95V610.3C290.702 609.3 292.052 608.85 293.352 608.85C295.777 608.85 297.227 610.05 297.227 612.75V620ZM307.049 609.3L306.824 610.725C306.124 610.425 305.174 610.2 304.049 610.2C302.449 610.2 301.599 610.875 301.599 611.85C301.599 614.1 307.549 613.4 307.549 616.95C307.549 618.7 306.324 620.15 303.274 620.15C301.974 620.15 300.599 619.85 299.774 619.375L299.924 617.95C300.774 618.425 302.099 618.8 303.274 618.8C305.074 618.8 305.899 618.175 305.899 617.025C305.899 614.75 299.949 615.425 299.949 611.925C299.949 610.325 301.349 608.85 304.074 608.85C305.374 608.85 306.324 609 307.049 609.3ZM315.791 609L315.666 610.4H312.216V616.7C312.216 618.125 312.966 618.725 314.166 618.725C314.841 618.725 315.466 618.475 315.891 618.175L315.966 619.575C315.491 619.95 314.716 620.15 313.891 620.15C311.766 620.15 310.616 619.05 310.616 616.9V610.4H309.016V609H310.616V606.525L312.216 606.1V609H315.791ZM326.374 620H324.849V619C323.924 619.65 322.499 620.15 321.024 620.15C318.549 620.15 317.199 618.975 317.199 616.975C317.199 614.725 318.949 613.65 321.649 613.65C322.774 613.65 324.099 613.925 324.799 614.275V612.875C324.799 611.025 323.749 610.275 321.724 610.275C320.324 610.275 319.024 610.675 318.224 611.175L318.149 609.7C319.049 609.175 320.399 608.85 321.874 608.85C324.724 608.85 326.374 610.025 326.374 612.725V620ZM324.799 617.9V615.375C324.099 615.025 322.949 614.775 321.899 614.775C320.024 614.775 318.824 615.4 318.824 616.95C318.824 618.4 319.899 618.975 321.399 618.975C322.674 618.975 324.074 618.45 324.799 617.9ZM338.95 620H337.375V613.1C337.375 611.175 336.425 610.3 334.675 610.3C333.5 610.3 332.2 610.825 331.075 611.625V620H329.475V609.05L331.075 608.95V610.3C332.425 609.3 333.775 608.85 335.075 608.85C337.5 608.85 338.95 610.05 338.95 612.75V620ZM347.773 609L347.648 610.4H344.198V616.7C344.198 618.125 344.948 618.725 346.148 618.725C346.823 618.725 347.448 618.475 347.873 618.175L347.948 619.575C347.473 619.95 346.698 620.15 345.873 620.15C343.748 620.15 342.598 619.05 342.598 616.9V610.4H340.998V609H342.598V606.525L344.198 606.1V609H347.773ZM351.656 604.15V620H350.056V604.275L351.656 604.15ZM364.168 609L360.568 618.3C358.993 622.475 357.343 624.15 354.993 624.775L354.293 623.525C356.143 622.95 357.193 621.85 358.118 620L353.518 609.05L355.218 608.95L358.118 615.9C358.468 616.775 358.818 617.725 358.993 618.275H359.093C359.243 617.725 359.543 616.775 359.868 615.875L362.518 609H364.168ZM364.892 617.975C365.492 617.975 365.967 618.45 365.967 619.05C365.967 619.675 365.492 620.15 364.892 620.15C364.267 620.15 363.817 619.675 363.817 619.075C363.817 618.45 364.292 617.975 364.892 617.975ZM384.665 618.975C383.39 619.775 381.965 620.125 380.065 620.125C375.69 620.125 373.115 617.125 373.115 613.575C373.115 608.65 376.54 605.025 381.615 605.025C383.49 605.025 385.165 605.45 386.24 606.175L385.865 607.175C384.94 606.475 383.14 606.025 381.615 606.025C377.115 606.025 374.24 609.2 374.24 613.525C374.24 616.8 376.665 619.125 380.14 619.125C381.89 619.125 383.565 618.65 384.815 617.8L384.665 618.975ZM390.848 604.15L388.098 620H387.048L389.773 604.25L390.848 604.15ZM394.568 604.575C394.993 604.575 395.268 604.875 395.268 605.275C395.268 605.775 394.893 606.175 394.393 606.175C393.968 606.175 393.668 605.85 393.668 605.45C393.668 604.95 394.068 604.575 394.568 604.575ZM394.418 608.95L392.493 620H391.443L393.343 609.05L394.418 608.95ZM405.637 614.4L396.862 614.9C396.812 617.55 398.537 619.175 401.062 619.175C402.737 619.175 404.112 618.65 405.137 617.9L405.012 618.95C404.062 619.675 402.662 620.125 400.962 620.125C397.737 620.125 395.762 618 395.762 615.075C395.762 611.325 398.312 608.875 401.387 608.875C403.962 608.875 405.787 610.475 405.787 613.05C405.787 613.45 405.737 613.975 405.637 614.4ZM401.362 609.75C399.112 609.75 397.262 611.4 396.912 614.1L404.687 613.65C404.712 613.5 404.737 613.225 404.737 613C404.737 610.975 403.337 609.75 401.362 609.75ZM416.511 620H415.461L416.636 613.25C416.711 612.85 416.761 612.325 416.761 612.025C416.761 610.55 415.986 609.85 414.336 609.85C412.936 609.85 411.436 610.45 409.836 611.625L408.386 620H407.336L409.236 609.05L410.311 608.95L410.036 610.575C411.561 609.425 413.061 608.875 414.561 608.875C416.661 608.875 417.836 609.85 417.836 611.8C417.836 612.1 417.786 612.65 417.711 613.1L416.511 620ZM422.536 606.45L423.636 606.125L423.136 609H426.886L426.611 609.925H422.986L421.761 616.975C421.486 618.525 422.086 619.175 423.361 619.175C424.086 619.175 424.811 618.925 425.336 618.575L425.211 619.55C424.761 619.9 423.986 620.125 423.211 620.125C421.561 620.125 420.611 619.35 420.611 617.875C420.611 617.625 420.636 617.4 420.686 617.125L421.936 609.925H420.311L420.486 609H422.086L422.536 606.45ZM442.38 614.4L433.605 614.9C433.555 617.55 435.28 619.175 437.805 619.175C439.48 619.175 440.855 618.65 441.88 617.9L441.755 618.95C440.805 619.675 439.405 620.125 437.705 620.125C434.48 620.125 432.505 618 432.505 615.075C432.505 611.325 435.055 608.875 438.13 608.875C440.705 608.875 442.53 610.475 442.53 613.05C442.53 613.45 442.48 613.975 442.38 614.4ZM438.105 609.75C435.855 609.75 434.005 611.4 433.655 614.1L441.43 613.65C441.455 613.5 441.48 613.225 441.48 613C441.48 610.975 440.08 609.75 438.105 609.75ZM454.604 609L449.554 614.4L452.904 620H451.679L448.754 615.075L444.129 620H442.879L448.229 614.275L445.079 609.05L446.254 608.925L449.004 613.6L453.354 609H454.604ZM465.84 609L463.94 620H462.99L463.14 618.775C462.09 619.575 460.815 620.125 459.415 620.125C456.84 620.125 455.04 618.575 455.04 615.475C455.04 611.625 457.415 608.875 460.79 608.875C462.165 608.875 463.565 609.35 464.615 610.2L464.89 609H465.84ZM464.44 611.15C463.615 610.4 462.165 609.8 460.865 609.8C458.19 609.8 456.115 611.95 456.115 615.425C456.115 618.05 457.615 619.2 459.615 619.2C460.965 619.2 462.29 618.525 463.315 617.7L464.44 611.15ZM483.822 620H482.797L483.947 613.25C484.022 612.85 484.072 612.325 484.072 612.025C484.072 610.55 483.297 609.85 481.722 609.85C480.622 609.85 478.972 610.45 477.397 611.625C477.422 612.05 477.347 612.725 477.272 613.175L476.097 620H475.047L476.222 613.25C476.297 612.85 476.322 612.325 476.322 612.025C476.322 610.55 475.522 609.85 474.022 609.85C472.897 609.85 471.397 610.45 469.822 611.625L468.372 620H467.322L469.222 609.05L470.297 608.95L469.997 610.575C471.547 609.425 473.022 608.875 474.272 608.875C475.922 608.875 476.947 609.625 477.272 610.775C479.272 609.325 480.722 608.875 481.922 608.875C483.972 608.875 485.147 609.85 485.147 611.825C485.147 612.125 485.097 612.65 485.022 613.1L483.822 620ZM498.195 613.525C498.195 617.375 495.82 620.125 492.445 620.125C490.895 620.125 489.495 619.65 488.47 618.8L487.445 624.625H486.395L489.095 609.05L490.17 608.95L489.92 610.225C490.97 609.425 492.27 608.875 493.72 608.875C496.395 608.875 498.195 610.425 498.195 613.525ZM497.12 613.575C497.12 610.95 495.62 609.8 493.52 609.8C492.12 609.8 490.77 610.475 489.745 611.3L488.62 617.85C489.445 618.6 490.895 619.2 492.37 619.2C495.02 619.2 497.12 617.05 497.12 613.575ZM503.324 604.15L500.574 620H499.524L502.249 604.25L503.324 604.15ZM513.718 614.4L504.943 614.9C504.893 617.55 506.618 619.175 509.143 619.175C510.818 619.175 512.193 618.65 513.218 617.9L513.093 618.95C512.143 619.675 510.743 620.125 509.043 620.125C505.818 620.125 503.843 618 503.843 615.075C503.843 611.325 506.393 608.875 509.468 608.875C512.043 608.875 513.868 610.475 513.868 613.05C513.868 613.45 513.818 613.975 513.718 614.4ZM509.443 609.75C507.193 609.75 505.343 611.4 504.993 614.1L512.768 613.65C512.793 613.5 512.818 613.225 512.818 613C512.818 610.975 511.418 609.75 509.443 609.75ZM517.514 608.875C517.939 608.875 518.239 609.2 518.239 609.6C518.239 610.125 517.864 610.5 517.339 610.5C516.914 610.5 516.614 610.175 516.614 609.775C516.614 609.25 517.014 608.875 517.514 608.875ZM515.814 618.5C516.239 618.5 516.539 618.825 516.539 619.225C516.539 619.75 516.139 620.125 515.639 620.125C515.214 620.125 514.914 619.8 514.914 619.4C514.914 618.875 515.314 618.5 515.814 618.5ZM167.184 635.4C167.184 639.15 164.134 640.45 160.609 640.45H157.534L156.584 646H155.509L158.084 631.15H162.234C165.334 631.15 167.184 632.65 167.184 635.4ZM166.059 635.425C166.059 632.975 164.284 632.1 161.934 632.1H158.984L157.709 639.5H160.609C163.359 639.5 166.059 638.7 166.059 635.425ZM175.406 635.025L175.231 636.05C174.956 635.925 174.656 635.85 174.256 635.85C172.931 635.85 171.506 636.725 170.406 637.925L169.006 646H167.956L169.856 635.05L170.931 634.95L170.606 636.75C172.006 635.35 173.106 634.875 174.456 634.875C174.881 634.875 175.231 634.925 175.406 635.025ZM175.572 641.075C175.572 637.375 178.447 634.875 181.822 634.875C184.872 634.875 186.972 637.025 186.972 639.925C186.972 643.625 184.097 646.125 180.722 646.125C177.672 646.125 175.572 643.975 175.572 641.075ZM176.672 641.05C176.672 643.65 178.422 645.175 180.772 645.175C183.597 645.175 185.872 643.125 185.872 639.95C185.872 637.35 184.097 635.825 181.772 635.825C178.947 635.825 176.672 637.875 176.672 641.05ZM197.743 635.8L197.393 636.8C196.668 636.275 195.518 635.85 194.318 635.85C191.493 635.85 189.318 637.85 189.318 641.05C189.318 643.625 190.968 645.15 193.318 645.15C194.643 645.15 196.118 644.625 197.018 643.875L196.993 644.95C196.118 645.65 194.668 646.125 193.243 646.125C190.193 646.125 188.218 643.975 188.218 641.075C188.218 637.375 190.943 634.875 194.318 634.875C195.743 634.875 196.918 635.225 197.743 635.8ZM208.567 640.4L199.792 640.9C199.742 643.55 201.467 645.175 203.992 645.175C205.667 645.175 207.042 644.65 208.067 643.9L207.942 644.95C206.992 645.675 205.592 646.125 203.892 646.125C200.667 646.125 198.692 644 198.692 641.075C198.692 637.325 201.242 634.875 204.317 634.875C206.892 634.875 208.717 636.475 208.717 639.05C208.717 639.45 208.667 639.975 208.567 640.4ZM204.292 635.75C202.042 635.75 200.192 637.4 199.842 640.1L207.617 639.65C207.642 639.5 207.667 639.225 207.667 639C207.667 636.975 206.267 635.75 204.292 635.75ZM218.166 635.25L217.966 636.25C217.316 636 216.341 635.8 215.391 635.8C213.216 635.8 212.216 636.725 212.216 637.975C212.216 640.25 217.516 639.875 217.516 642.95C217.516 644.6 216.316 646.125 212.991 646.125C211.816 646.125 210.516 645.875 209.791 645.475L209.966 644.45C210.741 644.875 211.966 645.2 213.016 645.2C215.416 645.2 216.416 644.35 216.416 642.975C216.416 640.725 211.116 641.1 211.116 638.025C211.116 636.475 212.341 634.875 215.416 634.875C216.491 634.875 217.466 635 218.166 635.25ZM227.468 635.25L227.268 636.25C226.618 636 225.643 635.8 224.693 635.8C222.518 635.8 221.518 636.725 221.518 637.975C221.518 640.25 226.818 639.875 226.818 642.95C226.818 644.6 225.618 646.125 222.293 646.125C221.118 646.125 219.818 645.875 219.093 645.475L219.268 644.45C220.043 644.875 221.268 645.2 222.318 645.2C224.718 645.2 225.718 644.35 225.718 642.975C225.718 640.725 220.418 641.1 220.418 638.025C220.418 636.475 221.643 634.875 224.718 634.875C225.793 634.875 226.768 635 227.468 635.25ZM238.669 640.4L229.894 640.9C229.844 643.55 231.569 645.175 234.094 645.175C235.769 645.175 237.144 644.65 238.169 643.9L238.044 644.95C237.094 645.675 235.694 646.125 233.994 646.125C230.769 646.125 228.794 644 228.794 641.075C228.794 637.325 231.344 634.875 234.419 634.875C236.994 634.875 238.819 636.475 238.819 639.05C238.819 639.45 238.769 639.975 238.669 640.4ZM234.394 635.75C232.144 635.75 230.294 637.4 229.944 640.1L237.719 639.65C237.744 639.5 237.769 639.225 237.769 639C237.769 636.975 236.369 635.75 234.394 635.75ZM248.268 635.25L248.068 636.25C247.418 636 246.443 635.8 245.493 635.8C243.318 635.8 242.318 636.725 242.318 637.975C242.318 640.25 247.618 639.875 247.618 642.95C247.618 644.6 246.418 646.125 243.093 646.125C241.918 646.125 240.618 645.875 239.893 645.475L240.068 644.45C240.843 644.875 242.068 645.2 243.118 645.2C245.518 645.2 246.518 644.35 246.518 642.975C246.518 640.725 241.218 641.1 241.218 638.025C241.218 636.475 242.443 634.875 245.518 634.875C246.593 634.875 247.568 635 248.268 635.25ZM265.45 633.375L265.2 634.325H258.3L257.125 639.575H258.825C262.575 639.575 264.25 641.2 264.25 643.675C264.25 646.7 261.575 648.35 258.1 648.35C256.525 648.35 255 648.125 253.9 647.55L254.1 646.5C255.225 647.15 256.6 647.375 258.1 647.375C261 647.375 263.1 646.125 263.1 643.7C263.1 641.775 261.85 640.5 258.575 640.5H255.925L257.5 633.375H265.45ZM277.167 637.9C277.167 638.55 277.092 639.25 276.967 640C276.242 644.075 274.292 646.125 271.242 646.125C268.417 646.125 266.892 644.5 266.892 641.475C266.892 640.825 266.967 640.1 267.117 639.325C267.842 635.275 269.792 633.25 272.817 633.25C275.642 633.25 277.167 634.875 277.167 637.9ZM276.067 637.9C276.067 635.475 274.967 634.175 272.792 634.175C270.242 634.175 268.817 635.925 268.192 639.5C268.042 640.225 267.992 640.875 267.992 641.475C267.992 643.9 269.092 645.2 271.267 645.2C273.817 645.2 275.242 643.45 275.867 639.875C275.992 639.175 276.067 638.5 276.067 637.9ZM289.398 637.9C289.398 638.55 289.323 639.25 289.198 640C288.473 644.075 286.523 646.125 283.473 646.125C280.648 646.125 279.123 644.5 279.123 641.475C279.123 640.825 279.198 640.1 279.348 639.325C280.073 635.275 282.023 633.25 285.048 633.25C287.873 633.25 289.398 634.875 289.398 637.9ZM288.298 637.9C288.298 635.475 287.198 634.175 285.023 634.175C282.473 634.175 281.048 635.925 280.423 639.5C280.273 640.225 280.223 640.875 280.223 641.475C280.223 643.9 281.323 645.2 283.498 645.2C286.048 645.2 287.473 643.45 288.098 639.875C288.223 639.175 288.298 638.5 288.298 637.9ZM301.954 639.175L301.779 640.125H297.304L296.429 645.025H295.404L296.254 640.125H291.779L291.954 639.175H296.429L297.304 634.275H298.329L297.479 639.175H301.954ZM316.848 635.25L316.648 636.25C315.998 636 315.023 635.8 314.073 635.8C311.898 635.8 310.898 636.725 310.898 637.975C310.898 640.25 316.198 639.875 316.198 642.95C316.198 644.6 314.998 646.125 311.673 646.125C310.498 646.125 309.198 645.875 308.473 645.475L308.648 644.45C309.423 644.875 310.648 645.2 311.698 645.2C314.098 645.2 315.098 644.35 315.098 642.975C315.098 640.725 309.798 641.1 309.798 638.025C309.798 636.475 311.023 634.875 314.098 634.875C315.173 634.875 316.148 635 316.848 635.25ZM329.274 634.95L327.324 646H326.324L326.574 644.4C325.049 645.575 323.574 646.125 322.124 646.125C320.024 646.125 318.849 645.15 318.849 643.2C318.849 642.9 318.899 642.35 318.974 641.9L320.149 635.05L321.224 634.95L320.049 641.75C319.974 642.15 319.949 642.675 319.949 642.975C319.949 644.45 320.724 645.15 322.349 645.15C323.674 645.15 325.149 644.55 326.749 643.375L328.199 635.05L329.274 634.95ZM341.676 639.525C341.676 643.375 339.301 646.125 335.926 646.125C334.376 646.125 332.976 645.65 331.951 644.8L330.926 650.625H329.876L332.576 635.05L333.651 634.95L333.401 636.225C334.451 635.425 335.751 634.875 337.201 634.875C339.876 634.875 341.676 636.425 341.676 639.525ZM340.601 639.575C340.601 636.95 339.101 635.8 337.001 635.8C335.601 635.8 334.251 636.475 333.226 637.3L332.101 643.85C332.926 644.6 334.376 645.2 335.851 645.2C338.501 645.2 340.601 643.05 340.601 639.575ZM354.005 639.525C354.005 643.375 351.63 646.125 348.255 646.125C346.705 646.125 345.305 645.65 344.28 644.8L343.255 650.625H342.205L344.905 635.05L345.98 634.95L345.73 636.225C346.78 635.425 348.08 634.875 349.53 634.875C352.205 634.875 354.005 636.425 354.005 639.525ZM352.93 639.575C352.93 636.95 351.43 635.8 349.33 635.8C347.93 635.8 346.58 636.475 345.555 637.3L344.43 643.85C345.255 644.6 346.705 645.2 348.18 645.2C350.83 645.2 352.93 643.05 352.93 639.575ZM355.259 641.075C355.259 637.375 358.134 634.875 361.509 634.875C364.559 634.875 366.659 637.025 366.659 639.925C366.659 643.625 363.784 646.125 360.409 646.125C357.359 646.125 355.259 643.975 355.259 641.075ZM356.359 641.05C356.359 643.65 358.109 645.175 360.459 645.175C363.284 645.175 365.559 643.125 365.559 639.95C365.559 637.35 363.784 635.825 361.459 635.825C358.634 635.825 356.359 637.875 356.359 641.05ZM375.431 635.025L375.256 636.05C374.981 635.925 374.681 635.85 374.281 635.85C372.956 635.85 371.531 636.725 370.431 637.925L369.031 646H367.981L369.881 635.05L370.956 634.95L370.631 636.75C372.031 635.35 373.131 634.875 374.481 634.875C374.906 634.875 375.256 634.925 375.431 635.025ZM378.346 632.45L379.446 632.125L378.946 635H382.696L382.421 635.925H378.796L377.571 642.975C377.296 644.525 377.896 645.175 379.171 645.175C379.896 645.175 380.621 644.925 381.146 644.575L381.021 645.55C380.571 645.9 379.796 646.125 379.021 646.125C377.371 646.125 376.421 645.35 376.421 643.875C376.421 643.625 376.446 643.4 376.496 643.125L377.746 635.925H376.121L376.296 635H377.896L378.346 632.45ZM391.066 632.45L392.166 632.125L391.666 635H395.416L395.141 635.925H391.516L390.291 642.975C390.016 644.525 390.616 645.175 391.891 645.175C392.616 645.175 393.341 644.925 393.866 644.575L393.741 645.55C393.291 645.9 392.516 646.125 391.741 646.125C390.091 646.125 389.141 645.35 389.141 643.875C389.141 643.625 389.166 643.4 389.216 643.125L390.466 635.925H388.841L389.016 635H390.616L391.066 632.45ZM399.231 630.575C399.656 630.575 399.931 630.875 399.931 631.275C399.931 631.775 399.556 632.175 399.056 632.175C398.631 632.175 398.331 631.85 398.331 631.45C398.331 630.95 398.731 630.575 399.231 630.575ZM399.081 634.95L397.156 646H396.106L398.006 635.05L399.081 634.95ZM409.95 635.8L409.6 636.8C408.875 636.275 407.725 635.85 406.525 635.85C403.7 635.85 401.525 637.85 401.525 641.05C401.525 643.625 403.175 645.15 405.525 645.15C406.85 645.15 408.325 644.625 409.225 643.875L409.2 644.95C408.325 645.65 406.875 646.125 405.45 646.125C402.4 646.125 400.425 643.975 400.425 641.075C400.425 637.375 403.15 634.875 406.525 634.875C407.95 634.875 409.125 635.225 409.95 635.8ZM421.674 635.025L415.774 640.025L420.199 646H418.949L414.974 640.725L412.574 642.75L412.024 646H410.974L413.699 630.25L414.774 630.15L412.799 641.5H412.874C413.349 641.025 413.924 640.475 414.549 639.9L420.324 634.975L421.674 635.025ZM431.931 640.4L423.156 640.9C423.106 643.55 424.831 645.175 427.356 645.175C429.031 645.175 430.406 644.65 431.431 643.9L431.306 644.95C430.356 645.675 428.956 646.125 427.256 646.125C424.031 646.125 422.056 644 422.056 641.075C422.056 637.325 424.606 634.875 427.681 634.875C430.256 634.875 432.081 636.475 432.081 639.05C432.081 639.45 432.031 639.975 431.931 640.4ZM427.656 635.75C425.406 635.75 423.556 637.4 423.206 640.1L430.981 639.65C431.006 639.5 431.031 639.225 431.031 639C431.031 636.975 429.631 635.75 427.656 635.75ZM436.305 632.45L437.405 632.125L436.905 635H440.655L440.38 635.925H436.755L435.53 642.975C435.255 644.525 435.855 645.175 437.13 645.175C437.855 645.175 438.58 644.925 439.105 644.575L438.98 645.55C438.53 645.9 437.755 646.125 436.98 646.125C435.33 646.125 434.38 645.35 434.38 643.875C434.38 643.625 434.405 643.4 434.455 643.125L435.705 635.925H434.08L434.255 635H435.855L436.305 632.45ZM449.245 635.25L449.045 636.25C448.395 636 447.42 635.8 446.47 635.8C444.295 635.8 443.295 636.725 443.295 637.975C443.295 640.25 448.595 639.875 448.595 642.95C448.595 644.6 447.395 646.125 444.07 646.125C442.895 646.125 441.595 645.875 440.87 645.475L441.045 644.45C441.82 644.875 443.045 645.2 444.095 645.2C446.495 645.2 447.495 644.35 447.495 642.975C447.495 640.725 442.195 641.1 442.195 638.025C442.195 636.475 443.42 634.875 446.495 634.875C447.57 634.875 448.545 635 449.245 635.25ZM467.402 630.15L464.652 646H463.702L463.852 644.75C462.802 645.575 461.502 646.125 460.052 646.125C457.377 646.125 455.577 644.575 455.577 641.475C455.577 637.625 457.952 634.875 461.327 634.875C462.852 634.875 464.277 635.35 465.302 636.2L466.352 630.25L467.402 630.15ZM465.127 637.15C464.327 636.4 462.877 635.8 461.377 635.8C458.727 635.8 456.652 637.95 456.652 641.425C456.652 644.05 458.152 645.2 460.252 645.2C461.652 645.2 463.002 644.55 464.002 643.7L465.127 637.15ZM478.755 635L476.855 646H475.905L476.055 644.775C475.005 645.575 473.73 646.125 472.33 646.125C469.755 646.125 467.955 644.575 467.955 641.475C467.955 637.625 470.33 634.875 473.705 634.875C475.08 634.875 476.48 635.35 477.53 636.2L477.805 635H478.755ZM477.355 637.15C476.53 636.4 475.08 635.8 473.78 635.8C471.105 635.8 469.03 637.95 469.03 641.425C469.03 644.05 470.53 645.2 472.53 645.2C473.88 645.2 475.205 644.525 476.23 643.7L477.355 637.15ZM483.362 630.575C483.787 630.575 484.062 630.875 484.062 631.275C484.062 631.775 483.687 632.175 483.187 632.175C482.762 632.175 482.462 631.85 482.462 631.45C482.462 630.95 482.862 630.575 483.362 630.575ZM483.212 634.95L481.287 646H480.237L482.137 635.05L483.212 634.95ZM488.431 630.15L485.681 646H484.631L487.356 630.25L488.431 630.15ZM499.876 635L494.051 645.05C491.951 648.675 490.451 650.075 488.076 650.75L487.651 649.875C489.701 649.225 490.876 648.175 492.376 645.975L489.626 635.05L490.676 634.95L492.601 642.65C492.776 643.4 493.026 644.4 493.076 644.8H493.176C493.426 644.3 493.876 643.4 494.301 642.65L498.701 635H499.876ZM245.707 661L239.907 672H238.832L237.507 665.1C237.332 664.2 237.182 663.325 237.157 662.925H237.032C236.882 663.325 236.407 664.2 235.932 665.1L232.207 672H231.107L229.182 661.05L230.232 660.95L231.507 668.7C231.632 669.425 231.757 670.225 231.807 670.8H231.932C232.157 670.225 232.532 669.425 232.932 668.7L236.732 661.725H237.807L239.132 668.7C239.257 669.425 239.382 670.225 239.457 670.8H239.557C239.807 670.225 240.157 669.45 240.532 668.7L244.532 661H245.707ZM249.182 656.575C249.607 656.575 249.882 656.875 249.882 657.275C249.882 657.775 249.507 658.175 249.007 658.175C248.582 658.175 248.282 657.85 248.282 657.45C248.282 656.95 248.682 656.575 249.182 656.575ZM249.032 660.95L247.107 672H246.057L247.957 661.05L249.032 660.95ZM253.126 658.45L254.226 658.125L253.726 661H257.476L257.201 661.925H253.576L252.351 668.975C252.076 670.525 252.676 671.175 253.951 671.175C254.676 671.175 255.401 670.925 255.926 670.575L255.801 671.55C255.351 671.9 254.576 672.125 253.801 672.125C252.151 672.125 251.201 671.35 251.201 669.875C251.201 669.625 251.226 669.4 251.276 669.125L252.526 661.925H250.901L251.076 661H252.676L253.126 658.45ZM267.466 672H266.416L267.666 665.025C267.716 664.675 267.741 664.325 267.741 664.05C267.741 662.55 266.866 661.85 265.241 661.85C263.841 661.85 262.266 662.45 260.666 663.6L259.216 672H258.166L260.891 656.25L261.966 656.15L260.866 662.575C262.391 661.425 263.941 660.875 265.466 660.875C267.616 660.875 268.816 661.925 268.816 663.825C268.816 664.125 268.791 664.45 268.741 664.8L267.466 672ZM277.268 664.3C277.268 661.475 279.443 659.25 282.618 659.25C285.468 659.25 287.093 661 287.118 663.25V664.025C286.793 667.875 283.768 670.725 278.118 674.425L276.893 674.15C280.268 671.9 282.618 670.15 284.443 667.9C283.418 668.3 282.643 668.45 281.843 668.45C278.918 668.425 277.268 666.65 277.268 664.3ZM282.118 667.55C283.318 667.55 284.393 667.25 285.093 666.875C285.718 665.775 286.018 664.65 286.018 663.4C286.018 661.6 284.818 660.225 282.593 660.225C280.043 660.225 278.393 661.9 278.393 664.275C278.393 666.275 279.868 667.55 282.118 667.55ZM299.518 659.375L299.368 660.35L290.168 674.225H288.968L298.143 660.325H289.368L289.643 659.375H299.518ZM306.772 660.025C306.772 660.425 306.722 660.85 306.647 661.3C306.172 663.925 305.022 665.275 303.147 665.275C301.347 665.275 300.422 664.225 300.422 662.325C300.422 661.925 300.472 661.5 300.547 661.05C301.022 658.425 302.172 657.075 304.072 657.075C305.847 657.075 306.772 658.125 306.772 660.025ZM314.197 657.15L303.072 672H302.172L313.297 657.15H314.197ZM305.872 660.1C305.872 658.675 305.297 657.85 304.047 657.85C302.572 657.85 301.847 658.925 301.447 661.05C301.372 661.525 301.322 661.9 301.322 662.25C301.322 663.675 301.897 664.5 303.147 664.5C304.622 664.5 305.372 663.425 305.747 661.3C305.822 660.825 305.872 660.45 305.872 660.1ZM315.647 666.75C315.647 667.15 315.597 667.575 315.522 668.025C315.047 670.65 313.922 672 312.022 672C310.222 672 309.297 670.925 309.297 669.05C309.297 668.65 309.347 668.225 309.422 667.775C309.897 665.125 311.047 663.8 312.947 663.8C314.722 663.8 315.647 664.85 315.647 666.75ZM314.747 666.825C314.747 665.4 314.172 664.575 312.922 664.575C311.447 664.575 310.722 665.65 310.322 667.775C310.247 668.25 310.197 668.6 310.197 668.975C310.197 670.4 310.772 671.2 312.047 671.2C313.497 671.2 314.247 670.15 314.622 668C314.697 667.55 314.747 667.175 314.747 666.825ZM330.324 661.25L330.124 662.25C329.474 662 328.499 661.8 327.549 661.8C325.374 661.8 324.374 662.725 324.374 663.975C324.374 666.25 329.674 665.875 329.674 668.95C329.674 670.6 328.474 672.125 325.149 672.125C323.974 672.125 322.674 671.875 321.949 671.475L322.124 670.45C322.899 670.875 324.124 671.2 325.174 671.2C327.574 671.2 328.574 670.35 328.574 668.975C328.574 666.725 323.274 667.1 323.274 664.025C323.274 662.475 324.499 660.875 327.574 660.875C328.649 660.875 329.624 661 330.324 661.25ZM342.451 661L340.551 672H339.601L339.751 670.775C338.701 671.575 337.426 672.125 336.026 672.125C333.451 672.125 331.651 670.575 331.651 667.475C331.651 663.625 334.026 660.875 337.401 660.875C338.776 660.875 340.176 661.35 341.226 662.2L341.501 661H342.451ZM341.051 663.15C340.226 662.4 338.776 661.8 337.476 661.8C334.801 661.8 332.726 663.95 332.726 667.425C332.726 670.05 334.226 671.2 336.226 671.2C337.576 671.2 338.901 670.525 339.926 669.7L341.051 663.15ZM346.608 658.45L347.708 658.125L347.208 661H350.958L350.683 661.925H347.058L345.833 668.975C345.558 670.525 346.158 671.175 347.433 671.175C348.158 671.175 348.883 670.925 349.408 670.575L349.283 671.55C348.833 671.9 348.058 672.125 347.283 672.125C345.633 672.125 344.683 671.35 344.683 669.875C344.683 669.625 344.708 669.4 344.758 669.125L346.008 661.925H344.383L344.558 661H346.158L346.608 658.45ZM354.773 656.575C355.198 656.575 355.473 656.875 355.473 657.275C355.473 657.775 355.098 658.175 354.598 658.175C354.173 658.175 353.873 657.85 353.873 657.45C353.873 656.95 354.273 656.575 354.773 656.575ZM354.623 660.95L352.698 672H351.648L353.548 661.05L354.623 660.95ZM363.942 661.25L363.742 662.25C363.092 662 362.117 661.8 361.167 661.8C358.992 661.8 357.992 662.725 357.992 663.975C357.992 666.25 363.292 665.875 363.292 668.95C363.292 670.6 362.092 672.125 358.767 672.125C357.592 672.125 356.292 671.875 355.567 671.475L355.742 670.45C356.517 670.875 357.742 671.2 358.792 671.2C361.192 671.2 362.192 670.35 362.192 668.975C362.192 666.725 356.892 667.1 356.892 664.025C356.892 662.475 358.117 660.875 361.192 660.875C362.267 660.875 363.242 661 363.942 661.25ZM372.669 656.25L372.419 657.225C372.169 657.15 371.869 657.125 371.519 657.125C370.144 657.125 368.969 657.75 368.569 660.075L368.419 661H371.544L371.269 661.925H368.269L366.519 672H365.469L367.219 661.925H365.594L365.769 661H367.369L367.544 659.95C368.044 657.15 369.669 656.15 371.594 656.15C371.944 656.15 372.369 656.175 372.669 656.25ZM382.807 661L380.907 672H379.957L380.107 670.775C379.057 671.575 377.782 672.125 376.382 672.125C373.807 672.125 372.007 670.575 372.007 667.475C372.007 663.625 374.382 660.875 377.757 660.875C379.132 660.875 380.532 661.35 381.582 662.2L381.857 661H382.807ZM381.407 663.15C380.582 662.4 379.132 661.8 377.832 661.8C375.157 661.8 373.082 663.95 373.082 667.425C373.082 670.05 374.582 671.2 376.582 671.2C377.932 671.2 379.257 670.525 380.282 669.7L381.407 663.15ZM393.739 661.8L393.389 662.8C392.664 662.275 391.514 661.85 390.314 661.85C387.489 661.85 385.314 663.85 385.314 667.05C385.314 669.625 386.964 671.15 389.314 671.15C390.639 671.15 392.114 670.625 393.014 669.875L392.989 670.95C392.114 671.65 390.664 672.125 389.239 672.125C386.189 672.125 384.214 669.975 384.214 667.075C384.214 663.375 386.939 660.875 390.314 660.875C391.739 660.875 392.914 661.225 393.739 661.8ZM397.438 658.45L398.538 658.125L398.038 661H401.788L401.513 661.925H397.888L396.663 668.975C396.388 670.525 396.988 671.175 398.263 671.175C398.988 671.175 399.713 670.925 400.238 670.575L400.113 671.55C399.663 671.9 398.888 672.125 398.113 672.125C396.463 672.125 395.513 671.35 395.513 669.875C395.513 669.625 395.538 669.4 395.588 669.125L396.838 661.925H395.213L395.388 661H396.988L397.438 658.45ZM405.603 656.575C406.028 656.575 406.303 656.875 406.303 657.275C406.303 657.775 405.928 658.175 405.428 658.175C405.003 658.175 404.703 657.85 404.703 657.45C404.703 656.95 405.103 656.575 405.603 656.575ZM405.453 660.95L403.528 672H402.478L404.378 661.05L405.453 660.95ZM406.797 667.075C406.797 663.375 409.672 660.875 413.047 660.875C416.097 660.875 418.197 663.025 418.197 665.925C418.197 669.625 415.322 672.125 411.947 672.125C408.897 672.125 406.797 669.975 406.797 667.075ZM407.897 667.05C407.897 669.65 409.647 671.175 411.997 671.175C414.822 671.175 417.097 669.125 417.097 665.95C417.097 663.35 415.322 661.825 412.997 661.825C410.172 661.825 407.897 663.875 407.897 667.05ZM428.694 672H427.644L428.819 665.25C428.894 664.85 428.944 664.325 428.944 664.025C428.944 662.55 428.169 661.85 426.519 661.85C425.119 661.85 423.619 662.45 422.019 663.625L420.569 672H419.519L421.419 661.05L422.494 660.95L422.219 662.575C423.744 661.425 425.244 660.875 426.744 660.875C428.844 660.875 430.019 661.85 430.019 663.8C430.019 664.1 429.969 664.65 429.894 665.1L428.694 672Z" fill="white"/>
<path d="M432.25 205.75V146.75H373.25V205.75H395.375V235.25H380.625V250H432.25V235.25H410.125V205.75H432.25ZM388 161.5H417.5V191H388V161.5ZM358.5 304.649L348.101 294.25L329 313.351L309.899 294.25L299.5 304.649L318.601 323.75L299.5 342.851L309.899 353.25L329 334.149L348.101 353.25L358.5 342.851L339.399 323.75L358.5 304.649ZM358.5 235.25H299.5V250H321.625V286.875H336.375V250H358.5V235.25ZM262.625 204.718C269.577 202.923 275.636 198.654 279.666 192.711C283.695 186.768 285.42 179.56 284.515 172.437C283.61 165.314 280.139 158.766 274.751 154.019C269.364 149.273 262.43 146.654 255.25 146.654C248.07 146.654 241.136 149.273 235.749 154.019C230.361 158.766 226.89 165.314 225.985 172.437C225.08 179.56 226.804 186.768 230.834 192.711C234.864 198.654 240.923 202.923 247.875 204.718V235.25H225.75V250H277.375V235.25H262.625V204.718ZM240.5 176.25C240.5 173.333 241.365 170.481 242.986 168.055C244.607 165.63 246.91 163.739 249.605 162.623C252.301 161.506 255.266 161.214 258.128 161.783C260.989 162.353 263.617 163.757 265.68 165.82C267.743 167.883 269.147 170.511 269.717 173.372C270.286 176.234 269.994 179.199 268.877 181.895C267.761 184.59 265.87 186.893 263.445 188.514C261.019 190.135 258.167 191 255.25 191C251.338 191 247.586 189.446 244.82 186.68C242.054 183.914 240.5 180.162 240.5 176.25Z" fill="url(#paint1_linear_204_1421)"/>
<defs>
<radialGradient id="paint0_radial_204_1421" cx="0" cy="0" r="1" gradientTransform="matrix(144 423.85 -380.023 193.746 330 399.35)" gradientUnits="userSpaceOnUse">
<stop stop-color="#00277C" stop-opacity="0.8"/>
<stop offset="1" stop-color="#000F30"/>
</radialGradient>
<linearGradient id="paint1_linear_204_1421" x1="329" y1="146.654" x2="329" y2="353.25" gradientUnits="userSpaceOnUse">
<stop stop-color="white"/>
<stop offset="1" stop-color="#989898"/>
</linearGradient>
</defs>
</svg>
