<svg width="93" height="93" viewBox="0 0 93 93" fill="none" xmlns="http://www.w3.org/2000/svg">
<g clip-path="url(#clip0_204_424)">
<path d="M34.875 58.125C24.5287 58.125 3.875 63.3175 3.875 73.625V81.375H65.875V73.625C65.875 63.3175 45.2212 58.125 34.875 58.125Z" fill="url(#paint0_linear_204_424)"/>
<path d="M85.6375 26.505C85.6762 26.0788 85.715 25.6525 85.715 25.1875C85.715 24.7225 85.6762 24.2962 85.5987 23.87L88.4662 21.6225C88.7375 21.4288 88.7762 21.0413 88.6212 20.77L85.9087 16.0813C85.7537 15.7713 85.3662 15.6938 85.095 15.7713L81.7625 17.1275C81.065 16.585 80.29 16.1587 79.4762 15.81L78.9725 12.2063C78.895 11.8575 78.6237 11.625 78.275 11.625H72.85C72.5012 11.625 72.23 11.8575 72.1912 12.2063L71.6875 15.81C70.8737 16.1587 70.0987 16.6238 69.4012 17.1275L66.03 15.7713C65.72 15.655 65.3712 15.7713 65.2162 16.0813L62.5037 20.77C62.3487 21.08 62.3875 21.4288 62.6587 21.6225L65.5262 23.87C65.4487 24.2962 65.41 24.7612 65.41 25.1875C65.41 25.6138 65.4487 26.0788 65.5262 26.505L62.6587 28.7525C62.3875 28.9463 62.3487 29.3337 62.5037 29.605L65.2162 34.2938C65.3712 34.6038 65.7587 34.6813 66.03 34.6038L69.4012 33.2475C70.0987 33.79 70.8737 34.2162 71.6875 34.565L72.1912 38.1688C72.23 38.5175 72.5012 38.75 72.85 38.75H78.275C78.6237 38.75 78.895 38.5175 78.9337 38.1688L79.4375 34.565C80.2512 34.2162 81.0262 33.7512 81.7237 33.2475L85.095 34.6038C85.405 34.72 85.7537 34.6038 85.9087 34.2938L88.6212 29.605C88.7762 29.295 88.7375 28.9463 88.4662 28.7525L85.6375 26.505ZM75.5625 30.0312C72.8887 30.0312 70.7187 27.8612 70.7187 25.1875C70.7187 22.5138 72.8887 20.3438 75.5625 20.3438C78.2362 20.3438 80.4062 22.5138 80.4062 25.1875C80.4062 27.8612 78.2362 30.0312 75.5625 30.0312Z" fill="url(#paint1_linear_204_424)"/>
<path d="M77.19 45.26L75.2525 41.8888C75.1363 41.6563 74.865 41.5787 74.6713 41.6562L72.2688 42.625C71.765 42.2375 71.2225 41.9275 70.6413 41.695L70.2925 39.1375C70.215 38.905 69.9825 38.75 69.75 38.75H65.875C65.6425 38.75 65.4488 38.905 65.41 39.1762L65.0613 41.7338C64.48 41.9663 63.9375 42.315 63.4338 42.6638L61.0313 41.695C60.7988 41.6175 60.5663 41.695 60.45 41.9275L58.5125 45.2987C58.3963 45.5312 58.435 45.7638 58.6288 45.9188L60.6825 47.5075C60.6438 47.8175 60.605 48.1275 60.605 48.4375C60.605 48.7475 60.6438 49.0962 60.6825 49.3675L58.6288 50.9562C58.435 51.1112 58.3963 51.3825 58.5125 51.5763L60.45 54.9475C60.5663 55.18 60.8375 55.2575 61.0313 55.18L63.4338 54.2112C63.9375 54.5987 64.48 54.9087 65.0613 55.1412L65.41 57.6988C65.4488 57.97 65.6425 58.125 65.875 58.125H69.75C69.9825 58.125 70.215 57.97 70.215 57.6988L70.5638 55.1412C71.145 54.9087 71.6875 54.56 72.1913 54.2112L74.5938 55.18C74.8263 55.2575 75.0588 55.18 75.175 54.9475L77.1125 51.5763C77.2288 51.3438 77.19 51.1112 76.9963 50.9562L74.9813 49.3675C75.02 49.0575 75.0588 48.7475 75.0588 48.4375C75.0588 48.1275 75.02 47.7788 74.9813 47.5075L77.035 45.9188C77.2288 45.7638 77.2675 45.4925 77.19 45.26ZM67.8125 51.6537C66.03 51.6537 64.5963 50.1812 64.5963 48.4375C64.5963 46.655 66.0688 45.2213 67.8125 45.2213C69.5563 45.2213 71.0288 46.6937 71.0288 48.4375C71.0288 50.22 69.595 51.6537 67.8125 51.6537Z" fill="url(#paint2_linear_204_424)"/>
<path d="M18.3675 34.875H51.4212C52.4675 34.875 53.32 34.0225 53.32 32.9763V32.8987C53.32 31.8525 52.4675 31 51.4212 31H50.375C50.375 25.265 47.2362 20.3438 42.625 17.6313V21.3125C42.625 22.3975 41.7725 23.25 40.6875 23.25C39.6025 23.25 38.75 22.3975 38.75 21.3125V16.0425C37.51 15.7325 36.2312 15.5 34.875 15.5C33.5187 15.5 32.24 15.7325 31 16.0425V21.3125C31 22.3975 30.1475 23.25 29.0625 23.25C27.9775 23.25 27.125 22.3975 27.125 21.3125V17.6313C22.5137 20.3438 19.375 25.265 19.375 31H18.3675C17.3212 31 16.4688 31.8525 16.4688 32.8987V33.015C16.4688 34.0225 17.3212 34.875 18.3675 34.875Z" fill="url(#paint3_linear_204_424)"/>
<path d="M34.875 50.375C42.0825 50.375 48.0887 45.415 49.8325 38.75H19.9175C21.6612 45.415 27.6675 50.375 34.875 50.375Z" fill="url(#paint4_linear_204_424)"/>
</g>
<defs>
<linearGradient id="paint0_linear_204_424" x1="34.875" y1="58.125" x2="34.875" y2="81.375" gradientUnits="userSpaceOnUse">
<stop stop-color="#004AE9"/>
<stop offset="1" stop-color="#989898"/>
</linearGradient>
<linearGradient id="paint1_linear_204_424" x1="75.5625" y1="11.625" x2="75.5625" y2="38.75" gradientUnits="userSpaceOnUse">
<stop stop-color="#004AE9"/>
<stop offset="1" stop-color="#989898"/>
</linearGradient>
<linearGradient id="paint2_linear_204_424" x1="67.8373" y1="38.75" x2="67.8373" y2="58.125" gradientUnits="userSpaceOnUse">
<stop stop-color="#004AE9"/>
<stop offset="1" stop-color="#989898"/>
</linearGradient>
<linearGradient id="paint3_linear_204_424" x1="34.8944" y1="15.5" x2="34.8944" y2="34.875" gradientUnits="userSpaceOnUse">
<stop stop-color="#004AE9"/>
<stop offset="1" stop-color="#989898"/>
</linearGradient>
<linearGradient id="paint4_linear_204_424" x1="34.875" y1="38.75" x2="34.875" y2="50.375" gradientUnits="userSpaceOnUse">
<stop stop-color="#004AE9"/>
<stop offset="1" stop-color="#989898"/>
</linearGradient>
<clipPath id="clip0_204_424">
<rect width="93" height="93" fill="white"/>
</clipPath>
</defs>
</svg>
