<svg width="89" height="89" viewBox="0 0 89 89" fill="none" xmlns="http://www.w3.org/2000/svg">
<g clip-path="url(#clip0_204_449)">
<path d="M77.875 29.6665C72.498 29.6665 69.4942 35.0065 70.718 38.9744L57.5534 52.1761C56.4409 51.8423 54.8092 51.8423 53.6967 52.1761L44.2405 42.7198C45.5013 38.7519 42.4975 33.3748 37.0834 33.3748C31.7063 33.3748 28.6655 38.7148 29.9263 42.7198L13.0163 59.5928C9.04837 58.369 3.70837 61.3728 3.70837 66.7498C3.70837 70.829 7.04587 74.1665 11.125 74.1665C16.5021 74.1665 19.5059 68.8265 18.2821 64.8586L35.155 47.9486C36.2675 48.2823 37.8992 48.2823 39.0117 47.9486L48.468 57.4048C47.2071 61.3728 50.2109 66.7498 55.625 66.7498C61.0021 66.7498 64.043 61.4098 62.7821 57.4048L75.9838 44.2403C79.9517 45.464 85.2917 42.4603 85.2917 37.0832C85.2917 33.004 81.9542 29.6665 77.875 29.6665Z" fill="url(#paint0_linear_204_449)"/>
<path d="M55.625 33.375L59.1108 25.6987L66.75 22.25L59.1108 18.8013L55.625 11.125L52.2133 18.8013L44.5 22.25L52.2133 25.6987L55.625 33.375Z" fill="url(#paint1_linear_204_449)"/>
<path d="M12.9792 40.7917L14.8334 33.375L22.25 31.5208L14.8334 29.6667L12.9792 22.25L11.125 29.6667L3.70837 31.5208L11.125 33.375L12.9792 40.7917Z" fill="url(#paint2_linear_204_449)"/>
</g>
<defs>
<linearGradient id="paint0_linear_204_449" x1="44.5" y1="29.6665" x2="44.5" y2="74.1665" gradientUnits="userSpaceOnUse">
<stop stop-color="#004AE9"/>
<stop offset="1" stop-color="#989898"/>
</linearGradient>
<linearGradient id="paint1_linear_204_449" x1="55.625" y1="11.125" x2="55.625" y2="33.375" gradientUnits="userSpaceOnUse">
<stop stop-color="#004AE9"/>
<stop offset="1" stop-color="#989898"/>
</linearGradient>
<linearGradient id="paint2_linear_204_449" x1="12.9792" y1="22.25" x2="12.9792" y2="40.7917" gradientUnits="userSpaceOnUse">
<stop stop-color="#004AE9"/>
<stop offset="1" stop-color="#989898"/>
</linearGradient>
<clipPath id="clip0_204_449">
<rect width="89" height="89" fill="white"/>
</clipPath>
</defs>
</svg>
